<mxfile host="Electron" agent="Mozilla/5.0 (Windows NT 10.0; Win64; x64) AppleWebKit/537.36 (KHTML, like Gecko) draw.io/24.7.5 Chrome/126.0.6478.183 Electron/31.3.0 Safari/537.36" version="24.7.5">
  <diagram name="第 1 页" id="nSZC6e591kOS8wT4qb8E">
    <mxGraphModel dx="764" dy="535" grid="1" gridSize="10" guides="1" tooltips="1" connect="1" arrows="1" fold="1" page="1" pageScale="1" pageWidth="827" pageHeight="1169" math="0" shadow="0">
      <root>
        <mxCell id="0" />
        <mxCell id="1" parent="0" />
        <mxCell id="FPhGLOeRIJD_VWcTb4df-1" value="SpringBoot是如何实现自动配置的" style="text;whiteSpace=wrap;fontSize=18;fillColor=#ffe6cc;strokeColor=#d79b00;" vertex="1" parent="1">
          <mxGeometry x="10" y="10" width="320" height="40" as="geometry" />
        </mxCell>
        <UserObject label="&lt;section id=&quot;markdown-section--6&quot; class=&quot;markdown-section&quot; data-markdown-raw=&quot;Spring Boot 的自动配置是通过 `@EnableAutoConfiguration` 注解实现，这个注解包含 `@Import({AutoConfigurationImportSelector.class})` 注解，导入的这个类会去扫描 classpath 下所有的 META-INF/spring.factories 中的文件，根据文件中指定的配置类加载相应的 Bean 的自动配置。&quot; data-section-index=&quot;6&quot; style=&quot;border-radius: 4px; margin: 6px 0px; padding: 4px; position: relative; scroll-margin-bottom: 40px; scroll-margin-top: 40px; color: rgb(20, 20, 20); font-family: &amp;quot;Segoe WPC&amp;quot;, &amp;quot;Segoe UI&amp;quot;, &amp;quot;Microsoft YaHei&amp;quot;, sans-serif; font-size: 13px; font-style: normal; font-variant-ligatures: normal; font-variant-caps: normal; font-weight: 400; letter-spacing: normal; orphans: 2; text-align: start; text-indent: 0px; text-transform: none; widows: 2; word-spacing: 0px; -webkit-text-stroke-width: 0px; white-space: normal; background-color: rgb(235, 235, 235); text-decoration-thickness: initial; text-decoration-style: initial; text-decoration-color: initial;&quot;&gt;&lt;span style=&quot;margin-top: 0px;&quot;&gt;Spring Boot 的自动配置是通过&lt;span&gt;&amp;nbsp;&lt;/span&gt;&lt;/span&gt;&lt;span class=&quot;markdown-inline-code&quot; style=&quot;background-color: var(--vscode-textCodeBlock-background); border-radius: 4px; padding: 1px 4px; word-break: break-word; font-family: Consolas, &amp;quot;Courier New&amp;quot;, monospace; cursor: default; color: inherit;&quot;&gt;&lt;span&gt;@EnableAutoConfiguration&lt;/span&gt;&lt;/span&gt;&lt;span&gt;&lt;span&gt;&amp;nbsp;&lt;/span&gt;注解实现，这个注解包含&lt;span&gt;&amp;nbsp;&lt;/span&gt;&lt;/span&gt;&lt;span class=&quot;markdown-inline-code&quot; style=&quot;background-color: var(--vscode-textCodeBlock-background); border-radius: 4px; padding: 1px 4px; word-break: break-word; font-family: Consolas, &amp;quot;Courier New&amp;quot;, monospace; cursor: default; color: inherit;&quot;&gt;&lt;span&gt;@Import({AutoConfigurationImportSelector.class})&lt;/span&gt;&lt;/span&gt;&lt;span&gt;&lt;span&gt;&amp;nbsp;&lt;/span&gt;注解，导入的这个类会去扫描 classpath 下所有的 META-INF/spring.factories 中的文件，根据文件中指定的配置类加载相应的&lt;/span&gt;&lt;span style=&quot;margin-bottom: 0px;&quot;&gt;&lt;span&gt;&amp;nbsp;&lt;/span&gt;Bean 的自动配置。&lt;/span&gt;&lt;/section&gt;&lt;section id=&quot;markdown-section--8&quot; class=&quot;markdown-section&quot; data-markdown-raw=&quot;这些 Bean 通常会使用 `@ConditionalOnClass`、`@ConditionalOnMissingBean`、`@ConditionalOnProperty` 等条件注解，来控制自动配置的加载条件，例如仅在类路径中存在某个类时，才加载某些配置。&quot; data-section-index=&quot;8&quot; style=&quot;border-radius: 4px; margin: 6px 0px; padding: 4px; position: relative; scroll-margin-bottom: 40px; scroll-margin-top: 40px; color: rgb(20, 20, 20); font-family: &amp;quot;Segoe WPC&amp;quot;, &amp;quot;Segoe UI&amp;quot;, &amp;quot;Microsoft YaHei&amp;quot;, sans-serif; font-size: 13px; font-style: normal; font-variant-ligatures: normal; font-variant-caps: normal; font-weight: 400; letter-spacing: normal; orphans: 2; text-align: start; text-indent: 0px; text-transform: none; widows: 2; word-spacing: 0px; -webkit-text-stroke-width: 0px; white-space: normal; background-color: rgb(235, 235, 235); text-decoration-thickness: initial; text-decoration-style: initial; text-decoration-color: initial;&quot;&gt;&lt;div class=&quot;markdown-section-toolbar&quot; style=&quot;animation: auto ease 0s 1 normal none running none !important;&quot;&gt;&lt;div style=&quot;animation: auto ease 0s 1 normal none running none !important; height: 0px; width: 747px;&quot;&gt;&lt;div class=&quot;markdown-section-toolbar-internal&quot; style=&quot;border-radius: 4px; display: flex; gap: 4px; opacity: 0; position: absolute; right: 8px; top: 0px; transform: translateY(-55%); z-index: 303; animation: auto ease 0s 1 normal none running none !important;&quot;&gt;&lt;div class=&quot;markdown-section-toolbar-item light&quot; style=&quot;align-items: center; border-radius: 3px; color: var(--vscode-foreground); cursor: pointer; display: flex; height: 20px; justify-content: center; opacity: 0.3; position: relative; width: 20px; animation: auto ease 0s 1 normal none running none !important;&quot;&gt;&lt;span class=&quot;codicon codicon-reply&quot; style=&quot;animation: auto ease 0s 1 normal none running none !important; display: inline-block; font: 14px / 1 codicon; text-align: center; text-decoration: none; text-rendering: auto; text-transform: none; -webkit-font-smoothing: antialiased; user-select: none;&quot;&gt;&lt;/span&gt;&lt;/div&gt;&lt;div class=&quot;markdown-section-toolbar-item markdown-section-toolbar-copy light&quot; style=&quot;align-items: center; border-radius: 3px; color: var(--vscode-foreground); cursor: pointer; display: flex; height: 20px; justify-content: center; opacity: 0.3; position: relative; width: 20px; animation: auto ease 0s 1 normal none running none !important; pointer-events: auto;&quot;&gt;&lt;span class=&quot;codicon codicon-copy&quot; style=&quot;animation: auto ease 0s 1 normal none running none !important; display: inline-block; font: 14px / 1 codicon; text-align: center; text-decoration: none; text-rendering: auto; text-transform: none; -webkit-font-smoothing: antialiased; user-select: none;&quot;&gt;&lt;/span&gt;&lt;/div&gt;&lt;/div&gt;&lt;/div&gt;&lt;/div&gt;&lt;span style=&quot;margin-top: 0px;&quot;&gt;这些&lt;/span&gt;&lt;span&gt;&lt;span&gt;&amp;nbsp;&lt;/span&gt;Bean 通常会使用&lt;span&gt;&amp;nbsp;&lt;/span&gt;&lt;/span&gt;&lt;span class=&quot;markdown-inline-code&quot; style=&quot;background-color: var(--vscode-textCodeBlock-background); border-radius: 4px; padding: 1px 4px; word-break: break-word; font-family: Consolas, &amp;quot;Courier New&amp;quot;, monospace; cursor: default; color: inherit;&quot;&gt;&lt;span&gt;@ConditionalOnClass&lt;/span&gt;&lt;/span&gt;&lt;span&gt;、&lt;/span&gt;&lt;span class=&quot;markdown-inline-code&quot; style=&quot;background-color: var(--vscode-textCodeBlock-background); border-radius: 4px; padding: 1px 4px; word-break: break-word; font-family: Consolas, &amp;quot;Courier New&amp;quot;, monospace; cursor: default; color: inherit;&quot;&gt;&lt;span&gt;@ConditionalOnMissingBean&lt;/span&gt;&lt;/span&gt;&lt;span&gt;、&lt;/span&gt;&lt;span class=&quot;markdown-inline-code&quot; style=&quot;background-color: var(--vscode-textCodeBlock-background); border-radius: 4px; padding: 1px 4px; word-break: break-word; font-family: Consolas, &amp;quot;Courier New&amp;quot;, monospace; cursor: default; color: inherit;&quot;&gt;&lt;span&gt;@ConditionalOnProperty&lt;/span&gt;&lt;/span&gt;&lt;span&gt;&lt;span&gt;&amp;nbsp;&lt;/span&gt;等条件注解，来控制自动配置的加载条件，例如&lt;/span&gt;&lt;span&gt;仅在类路径中存在某个类&lt;/span&gt;&lt;span style=&quot;margin-bottom: 0px;&quot;&gt;时，才加载某些配置。&lt;/span&gt;&lt;/section&gt;" link="&lt;section id=&quot;markdown-section--6&quot; class=&quot;markdown-section&quot; data-markdown-raw=&quot;Spring Boot 的自动配置是通过 `@EnableAutoConfiguration` 注解实现，这个注解包含 `@Import({AutoConfigurationImportSelector.class})` 注解，导入的这个类会去扫描 classpath 下所有的 META-INF/spring.factories 中的文件，根据文件中指定的配置类加载相应的 Bean 的自动配置。&quot; data-section-index=&quot;6&quot; style=&quot;border-radius: 4px; margin: 6px 0px; padding: 4px; position: relative; scroll-margin-bottom: 40px; scroll-margin-top: 40px; color: rgb(20, 20, 20); font-family: &amp;quot;Segoe WPC&amp;quot;, &amp;quot;Segoe UI&amp;quot;, &amp;quot;Microsoft YaHei&amp;quot;, sans-serif; font-size: 13px; font-style: normal; font-variant-ligatures: normal; font-variant-caps: normal; font-weight: 400; letter-spacing: normal; orphans: 2; text-align: start; text-indent: 0px; text-transform: none; widows: 2; word-spacing: 0px; -webkit-text-stroke-width: 0px; white-space: normal; background-color: rgb(235, 235, 235); text-decoration-thickness: initial; text-decoration-style: initial; text-decoration-color: initial;&quot;&gt;&lt;span style=&quot;margin-top: 0px;&quot;&gt;Spring Boot 的自动配置是通过&lt;span&gt;&amp;nbsp;&lt;/span&gt;&lt;/span&gt;&lt;span class=&quot;markdown-inline-code&quot; style=&quot;background-color: var(--vscode-textCodeBlock-background); border-radius: 4px; padding: 1px 4px; word-break: break-word; font-family: Consolas, &amp;quot;Courier New&amp;quot;, monospace; cursor: default; color: inherit;&quot;&gt;&lt;span&gt;@EnableAutoConfiguration&lt;/span&gt;&lt;/span&gt;&lt;span&gt;&lt;span&gt;&amp;nbsp;&lt;/span&gt;注解实现，这个注解包含&lt;span&gt;&amp;nbsp;&lt;/span&gt;&lt;/span&gt;&lt;span class=&quot;markdown-inline-code&quot; style=&quot;background-color: var(--vscode-textCodeBlock-background); border-radius: 4px; padding: 1px 4px; word-break: break-word; font-family: Consolas, &amp;quot;Courier New&amp;quot;, monospace; cursor: default; color: inherit;&quot;&gt;&lt;span&gt;@Import({AutoConfigurationImportSelector.class})&lt;/span&gt;&lt;/span&gt;&lt;span&gt;&lt;span&gt;&amp;nbsp;&lt;/span&gt;注解，导入的这个类会去扫描 classpath 下所有的 META-INF/spring.factories 中的文件，根据文件中指定的配置类加载相应的&lt;/span&gt;&lt;span style=&quot;margin-bottom: 0px;&quot;&gt;&lt;span&gt;&amp;nbsp;&lt;/span&gt;Bean 的自动配置。&lt;/span&gt;&lt;/section&gt;&lt;section id=&quot;markdown-section--8&quot; class=&quot;markdown-section&quot; data-markdown-raw=&quot;这些 Bean 通常会使用 `@ConditionalOnClass`、`@ConditionalOnMissingBean`、`@ConditionalOnProperty` 等条件注解，来控制自动配置的加载条件，例如仅在类路径中存在某个类时，才加载某些配置。&quot; data-section-index=&quot;8&quot; style=&quot;border-radius: 4px; margin: 6px 0px; padding: 4px; position: relative; scroll-margin-bottom: 40px; scroll-margin-top: 40px; color: rgb(20, 20, 20); font-family: &amp;quot;Segoe WPC&amp;quot;, &amp;quot;Segoe UI&amp;quot;, &amp;quot;Microsoft YaHei&amp;quot;, sans-serif; font-size: 13px; font-style: normal; font-variant-ligatures: normal; font-variant-caps: normal; font-weight: 400; letter-spacing: normal; orphans: 2; text-align: start; text-indent: 0px; text-transform: none; widows: 2; word-spacing: 0px; -webkit-text-stroke-width: 0px; white-space: normal; background-color: rgb(235, 235, 235); text-decoration-thickness: initial; text-decoration-style: initial; text-decoration-color: initial;&quot;&gt;&lt;div class=&quot;markdown-section-toolbar&quot; style=&quot;animation: auto ease 0s 1 normal none running none !important;&quot;&gt;&lt;div style=&quot;animation: auto ease 0s 1 normal none running none !important; height: 0px; width: 747px;&quot;&gt;&lt;div class=&quot;markdown-section-toolbar-internal&quot; style=&quot;border-radius: 4px; display: flex; gap: 4px; opacity: 0; position: absolute; right: 8px; top: 0px; transform: translateY(-55%); z-index: 303; animation: auto ease 0s 1 normal none running none !important;&quot;&gt;&lt;div class=&quot;markdown-section-toolbar-item light&quot; style=&quot;align-items: center; border-radius: 3px; color: var(--vscode-foreground); cursor: pointer; display: flex; height: 20px; justify-content: center; opacity: 0.3; position: relative; width: 20px; animation: auto ease 0s 1 normal none running none !important;&quot;&gt;&lt;span class=&quot;codicon codicon-reply&quot; style=&quot;animation: auto ease 0s 1 normal none running none !important; display: inline-block; font: 14px / 1 codicon; text-align: center; text-decoration: none; text-rendering: auto; text-transform: none; -webkit-font-smoothing: antialiased; user-select: none;&quot;&gt;&lt;/span&gt;&lt;/div&gt;&lt;div class=&quot;markdown-section-toolbar-item markdown-section-toolbar-copy light&quot; style=&quot;align-items: center; border-radius: 3px; color: var(--vscode-foreground); cursor: pointer; display: flex; height: 20px; justify-content: center; opacity: 0.3; position: relative; width: 20px; animation: auto ease 0s 1 normal none running none !important; pointer-events: auto;&quot;&gt;&lt;span class=&quot;codicon codicon-copy&quot; style=&quot;animation: auto ease 0s 1 normal none running none !important; display: inline-block; font: 14px / 1 codicon; text-align: center; text-decoration: none; text-rendering: auto; text-transform: none; -webkit-font-smoothing: antialiased; user-select: none;&quot;&gt;&lt;/span&gt;&lt;/div&gt;&lt;/div&gt;&lt;/div&gt;&lt;/div&gt;&lt;span style=&quot;margin-top: 0px;&quot;&gt;这些&lt;/span&gt;&lt;span&gt;&lt;span&gt;&amp;nbsp;&lt;/span&gt;Bean 通常会使用&lt;span&gt;&amp;nbsp;&lt;/span&gt;&lt;/span&gt;&lt;span class=&quot;markdown-inline-code&quot; style=&quot;background-color: var(--vscode-textCodeBlock-background); border-radius: 4px; padding: 1px 4px; word-break: break-word; font-family: Consolas, &amp;quot;Courier New&amp;quot;, monospace; cursor: default; color: inherit;&quot;&gt;&lt;span&gt;@ConditionalOnClass&lt;/span&gt;&lt;/span&gt;&lt;span&gt;、&lt;/span&gt;&lt;span class=&quot;markdown-inline-code&quot; style=&quot;background-color: var(--vscode-textCodeBlock-background); border-radius: 4px; padding: 1px 4px; word-break: break-word; font-family: Consolas, &amp;quot;Courier New&amp;quot;, monospace; cursor: default; color: inherit;&quot;&gt;&lt;span&gt;@ConditionalOnMissingBean&lt;/span&gt;&lt;/span&gt;&lt;span&gt;、&lt;/span&gt;&lt;span class=&quot;markdown-inline-code&quot; style=&quot;background-color: var(--vscode-textCodeBlock-background); border-radius: 4px; padding: 1px 4px; word-break: break-word; font-family: Consolas, &amp;quot;Courier New&amp;quot;, monospace; cursor: default; color: inherit;&quot;&gt;&lt;span&gt;@ConditionalOnProperty&lt;/span&gt;&lt;/span&gt;&lt;span&gt;&lt;span&gt;&amp;nbsp;&lt;/span&gt;等条件注解，来控制自动配置的加载条件，例如&lt;/span&gt;&lt;span&gt;仅在类路径中存在某个类&lt;/span&gt;&lt;span style=&quot;margin-bottom: 0px;&quot;&gt;时，才加载某些配置。&lt;/span&gt;&lt;/section&gt;" id="FPhGLOeRIJD_VWcTb4df-2">
          <mxCell style="text;whiteSpace=wrap;html=1;" vertex="1" parent="1">
            <mxGeometry x="10" y="50" width="660" height="120" as="geometry" />
          </mxCell>
        </UserObject>
        <mxCell id="FPhGLOeRIJD_VWcTb4df-3" value="" style="shape=image;verticalLabelPosition=bottom;labelBackgroundColor=default;verticalAlign=top;aspect=fixed;imageAspect=0;image=data:image/png,iVBORw0KGgoAAAANSUhEUgAABJMAAAGQCAYAAAAa3yGNAAAABWZkRUNSJJPjAOWrYpkAAd3KSURBVHgB5cRjtCVn2oDh+3mravPY57RtxLYzM0kGydi2bdu2EYxi22bbPH2szap6n2/Vj7PWXr06mWimZ773x3Whquoyl7nMZS5zmctc5jKXucxlLnOZy1zmMpf9tzEALnOZy1zmMpe5zGUuc5nLXOYyl7nMZS5z2X8bA+Ayl7nMZS5zmctc5jKXucxlLnOZy1zmMpf9tzEALnOZy1zmMpe5zGUuc5nLXOYyl7nMZS5z2X8bA+Ayl7nMZS5zmctc5jKXucxlLnOZy1zmMpf9tzEALnOZy1zmMpe5zGUuc5nLXOYyl7nMZS5z2X8bA+Ayl7nMZS5zmctc5jKXucxlLnOZy1zmMpf9tzEALnOZy1zmMpe5zGUuc5nLXOYyl7nMZS5z2X8bA+Ayl7nMZS5zmctc5jKXucxlLnOZy1zmMpf9tzEA/2sq1ZCJYomx8QIjYxO4zGVP1dh4gYliiUo1BMBlLnOZy1zmMpe5zGUuc5nLXOYyl/03MQD/K+I4ZqJQolSuEEUxVhUAl7nsqbKqRFFMqVxholAijmMAXOYyl7nMZS5zmctc5jKXucxlLnPZfwMD8O8yMDDIV7/xLTZs3AjAMxHHMYVimSiOAXCZy54tURxTKJaJ4xiAp6pcLnPLrbfz5a9+g4cfeRRVBeDJiuKYCy78K1/+6jfYsWMnAJOKpRL/vPhSfvaLX7Fl6zYAXOYyl7nMZS5zmctc5jKXucxlLvv/zAD8u7S2tlApV/jyV79BuVwG4OkqlatYVQBc5rJnm1WlVK4C8FQVCgX++Oe/8NOf/5JvfOu7DA4OAfBkjY2NccllV/DTn/+Sq6+9jvUbNvK3f1zMQw8/wtjYGH/6ywV87RvfZsuWLQC4zGUuc5nLXOYyl7nMZS5zmctc9v+ZAXg6hkdG+NVvfsdHP/4pPvHpz3Ht9TcQRREAk0SEF5/3Ih586BHuuvseAJ6OSjUkimMAXOayf5cojqlUQwCeitbWVj70/vcyb+4cbr3tdm665VastQA8GevXb+CBBx+ip6ebQw85mJtuvoX3feDD/PHP5xOGIQAuc5nLXOYyl7nMZS5zmctc5jKXucIAPFXX33ATRx5zAt/53g8YH5/gkUcf401veQcvOPel7O7tBWDSnDmzOfKIw/jjn8+nUqkA8FSFUQSAy1z27xZGEQD7MjExwYUX/Y3v/eDHfPf7P6LWPy+5lHw+j7WWb3/3+3zz29/ju9//EXv71a9/x65duwFIlEplLrv8SiYmJjjlpBPp6e5i9Zq1AMyZPYsgCABwmctc5jKXucxlLnOZy1zmMpe5zBUG4KnYsnUbH/n4Jznruc/h7ttv5gff+xb//Ov5XHnZPxkYHORLX/k6URwDkPA9j7Oe9xzuvudetmzdBsBTZWMLgMtc9u9mYwvAvoyPT/Cb3/2Bb33ne3z7u9+n1ne//yMefOhhAHbs2MkPf/xTvv3d77O3b333++zYuQsAVeXBhx7ib/+4mJbmZs563nMYn5jgkUceBeC3v/8jr3/jW7nn3vuIoohPfPpzPP9FLyFx3ktfwfkX/pUojgGYVCyVuOvue5iYmADAZS5zmctc5jKXucxlLnOZy1zmsv81BuCpuPa66ymXy7zuta8mk8kAkJg/by7PP/ssHnroEUaGRwCYtGD+PIIg4L777gfgqbKqALjMZf9uVhWAfamvr+M1r3oF73vPu3jzG19Pe3sbAKeechLvffc72dsLX3AOIoLvebz8ZS/hve9+J+979zuZOqUHgNHRMX77+z8yMTHB4Ycdytw5c3jk0cfYtGkzALt27eaxVaux1gKwY8dOHnjwIRJ333MfW7ZuRa0FYNLXvv4tXvyyV/H5L34FAJe5zGUuc5nLXOYyl7nMZS5zmcv+1xiAp2L16jUsmD+fqVN6AKhVV1dHFEdYawGY1NrayuxZs3jo4UcA+F8WxTFf/srXOOCgQ/njH/8MwP60des2XveGN7LywENIHH7kMaxavRqAZ8uOnTv58Ec+xhe+9BUA/p3WrVvHCSeewrkvfhl7+vYAsD/V1dVx7otewLve8Vbe/9538aIXnANAT3c3b37j63j3O9/GpLe/7c0sXrQQVeWE44/jQ+9/L+9+59t43WtfRU9PN1Ecc+XV13D1NdcBkE6nGRkd4fwL/koUx7zuta/i/D/9jp//9IfMnzcXYwwf/sD7uODPfyBx0fl/5OUveTG+7wMw6aQTT2De3DmcdOIJALjMZS5zmctc5jKXucxlLnOZy1z2v8YAPBWf/uTH+dlPfkAulwNgUhRFPPDgg3S0t5PNZgCYlM/lmDqlhx07d1IslQBw2bNlaGiI933gg9x//4MA/Lts3LiJq66+hkq5DICrUqkUJ55wPI2NDVx+5VWs37ARgEn9/f1cfMllGGM4/fRTqa+vAyBhreXmm2/lC1/6KtZaAKI44rbb7+T2O+5kzpzZvPJlL+WwQw/hoANW0tzcjDGGRYsWcOghB5E4+KADmTp1CiICwKRjjj6Sa668lFNPOQkAl7nMZS5zmctc5jKXucxlLnOZy/7XGICnoqGhnuamJkQEgISqcuVV13D99Tdy7gufT319PQC1urq6iKIYVQXgf5XveXz0Ix/igfvu5uUvfykA+0vvnj3s3LmLZcuWcuMN1/Lg/fdw5+23sHjRIgD+F82fP58brr+GC8//E50dnQD8N1m8eBEnn3QifX39/OWCiyiWSgDEccwNN97Mw488ypLFizjy8MMwxgCQKJXL/P2fFzMxMQFAIo5i+vr6UVVefO4LmTZ9GgAuc5nLXOYyl7nMZS5zmctc5jKXucYAPBNRFPGDH/2Ed77n/bz4xefy4vNeBMDe6urqAHi2qSp333MPL37Jy1l54CFM+uSnPgNA4le/+R2HH3kM519wIS8898WsPPAQTjjpVK66+hpUFYBf/eZ3HH7kMTz88CN893vfY+WBh3DYkcdw6WWXo6oAfPJTn2HlgYcw6Ve/+R0Ak266+RZWHngIf/zjn3nDG9/CygMP4cCDD+O73/8BURQBUCmX+clPf84xx53AygMPodYnP/UZAP6VX/3md6w88BBe9vJXUS6XeeSRRzn+hJNZeeAhfPJTnwFgoH+A0898HisPPIRJZzznLK66+hpUFYDE8MgIX/7K1zjiyGNYeeAhJF7/xjdTLJX41W9+x8oDD+Hd73kfAJdcehkrDzyExCc/9RkAEnv69vDhD3+MAw8+jJUHHsIxx53Ab377eyrlMgAD/QOcfubz+OSnPsPadet43lnPZ+WBh/DWt72TwYFBAFatXs3hRx7DygMPIXH6mc9joH8AgElRFPG73/+BY447gZUHHsLBhx7B17/5LUrlMgCJPX17+PBHP87Bhx7BygMPIXH6mc9joH8AgGcql83ywuefTV1dHX85/0KuuOIqojhm46bN/OznvwTgBc8/m/aOdgAmpdNpDjrwAE495STe8663IyKk02le9pLz+OH3vs3zzz4L3/MAcJnLXOYyl7nMZS5zmctc5jKXucw1BuDp2t3by6tf90a+/d0f8MmPf4TPffoT+L4PwN42bNgAwLNty5YtfPBDH2HtunUAPJ5yucyXv/I1Nm7cBMDw8DCf+OSneeSRRwFIlMtlfvijH/Pr3/wegEq5zPe+/0N27d4NwJP19W9+i3vvuw8Aay1/+MOfWLVqNQCXX3k1P/npz3jVK1/BfffcyW9+9QsymQwnnHAcn/z4RwH4d9m9ezef/sznWL1mDQBDQ0O84Y1v5vwLLqRULgPwVO3p28Ob3/oOrrrmGqy1AIyPT/Cd736P7/3gR6gqAImHH36Yd737fWzfsQOAO+68kwv/+lcA/hVV5ac/+wXf+vZ3GR+fACCKIv74xz/zzW99hyiOqVYqfP4LX+aqq64miiIAnm0iwiEHH8Tb3/Im4jjmi1/5OlddfQ3f+8GP2LJ1G8ccfRTPe86Z+J4HwCTf83j+2WfxtS9/kalTpgAQxRFXXXMtb3/XeznkiGOYOXcRiQMPPYq77r6HKIp4zevfzMy5i5g0d8FSrr/hJgBc5jKXucxlLnOZy1zmMpe5zGUu+//CADwdt99xJ8953gvo3dPH5Rf/jde95lV4ngfA3qI4plgq0dLSTDqdBuDZEoYhYRiRyWR45zvexuWXXswD993N5z/3GQBqHXjgSi679J/cdfstPO95zyUMQ+69/wEAJt1z73187jOf5uYbr+fAA1cyNDhI354+AD7/uc/w4P338K53vROAx5PJZPjOt7/J3XfexgknHEcYhgyPjAAQxxEA2WwWgKfjda95FQ/efw9/+uPvyGQyHHTQgdx+2808eP89fP5znwGgrb2NKy+/hAfvv4fEHbffwrHHHk25XKa/fwCA62+4kY0bN3HggSu5+J9/54H77ubB++/hlz//Kblslte95lU8eP89fPc73wLgec99Dg/efw+Jz3/uMwDccsttbNm8hUMOPpjrr72K++65k29+42sEQcBNN93M0NAwAImt27YzZUo31119Jd/4+lcB2LBhI1Ecs3jRIu68/RauveoKurq6AKi1a/du/nnxJTQ3N/OH3/+GB+67m9/86hdkMhluvfU2RoaGiVUJq1UATjvtVH7/219z7913cOXll9DW3gbAsyEIAl720hfzgnPOYmhoiLe/871cetkVtLe38a53vJXW1hYA9tbY2EBDQz0Az6ah4WHOv/Cv9PX1A+Ayl7nMZS5zmctc5jKXucxlLnPZ/xoD8FRdceXVvOLVr+e4Y4/hkn9cxMKFCwB4PGNjY2zYsJGlSxbjex4Az5Z58+bx6U99gvr6er7/gx9x5nPP4vCjjuV3v/8DURQBMOnoo49hSk8P6UyGWbNmAbC3k088kTPPPJ2Ghnp+9Yufc+89d3LAASsBeLJOOfkkjj/uWFKpFHX5OgAmHXLIIXR1dfH9H/6Ygw45nNe94U0cftihfPD97yeVTgPwbKiUy/z5L+dzxnPOYuWBh3DEkcdw8823AjDpscceA+DFLz6P6dOmIiIAPBWPPfYYAC869wW0tLTgeR4rli2jtbWVKI5RawFIBEHAO972dlrbWjn5pBN58P57+MbXv4rveQA8kdHRUcbGxhgeHuYVr3wNBxx0KK953Rsol8sAJLKZDB/76Ec48MCVXHXV1bzy1a/l4EOP4EMf+iiDA4MAPFsaGxt4z7vfweJFCwFIvPTF57J82VJEBIB/xRjDC19wDpvWPcaWDauZdP/dt3HYoYfg+z6//sVP2bJhNZM2rH2UE084DoBJP/rxz/jwRz/BN7/9XQBc5jKXucxlLnOZy1zmMpe5zGUu+19jAJ6Kdes38PFPfoYXn/tCvv7VL5LLZgF4Ilu2bGXX7l5WLF8OwLNJRDjt1FO45qrLufXmG/jkJz+OAN/+zve49777Adjbzl27uPXWWwBoqK8DYNLCxYvwfR+Af4crrriCSqXC737zSx64727uv/cuvvPtb9LT0w3ApCiK+MKXvsIBBx3K737/B1QVgCfrj3+5gK9+7Ru86IXP59577uTySy/m4IMOAmDS7NmzATj//AvYtn0HqgrA4xkfH6dSLgMwafbs2QBcdOHfGBoaIo5j7r3vPvr6+sjlsniBD0CitbWV6dOmAvBUZTMZ0ukUXV1d/OH3v+G+e+7kwfvvIXHl5ZfQ1t4GwIwZ0/nVL37OvXffwW9+9QsWzJ/P1ddeyy9+9WsAni1DQ0P85Ge/ZNXqNQAkvv/Dn/Ct73yP4ZERAP5TXvSCc3juc87gpS85DwCXucxlLnOZy1zmMpe5zGUuc5nL/tcYgKfiT38+n9GxMaZOncLV117H5VdeRa1rrr2OkZFRACbdfMutdHV1snDBfACeTTfdfAsrDzyExNHHnsDnP/9FyuUyvu+Ty2YBmPS9732flQcewnOeezb33/8gM2fN5JhjjgLgXxnoH+D0M5/HygMP4Xvf+z4A3/ve91l54CG8/o1vplgqAfCvjI6OMTw8zItf8nIOOOhQVh54CAcefBhf+OKXmZiYACCxefMWrrrqKlSVv/71bwwPDwPwZBUmJgD4/g9+xMGHHM6Zzz2Le++7D4BJxx13HG3tbdx//4OcdfbzOeCgQ1l54CG8/o1vplgqAZDwPQPAjTfdzGFHHsPKAw/hk5/6DABHHnEEzU1N3HPvvZx48mkcdMjhfORjn8Bayzlnn0VzUxMA/8qvfvM7Vh54CCefdga9vb0kTj7tDFYeeAg33XwL06ZP55RTTqG3t5dXvPI1HHTI4aw88BASn/zUZwAY6B/g9DOfx8oDD+HgQ4/gNa97A2vXrQOgsbEBgGeqUCzyp79cwClnnMWf/nw+7e1t/PgH3+WD738Pxhh+8rNfcvqZZ3PRX/9OsVQC4N9t4cIF/OC732LliuUAuMxlLnOZy1zmMpe5zGUuc5nLXPa/xgA8WYVikdVr1hLHMV//5nd42zvew97e9d4PsH3HDgAS4+Pj3HjTLTzvOWfQ1tYKwL/bsmVL+emPf8iyZUsBmCQiAPi+zwuefzY//fEP6OzoBOA/5TlnnkE2kwFgkrWWi/76N/7wxz8BkJg1ayannXYaIsILX/gCmpubAXiyzjvvhRx80EEAGGM4+uijeN5znwPApOnTpvLLn/2UY445Ct/3AdiXww47jNe/7rX4vg9ArTlzZvPjH/+AZcuWApDo7u7mK1/6Ai9/2UsBeDb4nsf73/ceXveaV1FfXwfAk9He3s6HP/QBXvvqVwHwdI2MjPLn8y/k1DOex8c+8WkGBwd57pln8Kff/4bTTzuFt775jfzp979m/ry57Onr4wMf/hjPPfuF/PPiSymWSgC4zGUuc5nLXOYyl7nMZS5zmctc5rInYgCerHwux/l/+h1bNqzm8ax+5AGWLV0CQOLGm25hT18fL3zBOQA8HUYEgH057thjePD+e6j1+9/+mgMPPAARAWDSO9/5Dh68/x7uvfsOPvXJT9DZ0QlA4nWveRUP3n8Pr3vNqwDYW1t7G1defgkP3n8Pe/vlz39KLpvluGOP4cH77+Hzn/sMAInPf+4zPHj/PRx37DGMjI7y2c9/EQV+/7vf8OD993DfPXfyiU98DIA9e/YAkPB9n0987CM8cN/dvOqVr0BEAKi1eNEi7rz9Fn7585+Sy2YBmNTZ0ckvfv4THrz/Hu6/9y5+8L3v8PnPfYYH77+H4449BoDEjBnT+f53v8O9d9/Bg/ffQ+KXP/8puWwWgITv+7zzHW/j3rvv4MH77yHx+c99BoDEwgUL+P1vf82D999D4orLLub000/D8zwA2trbuPLyS0i0tbcBsLfXveZVPHj/PezLccceA0A2k+Fd73ont9x0Aw/efw+TPv+5zwDQ1t7GlZdfwoP338Oka666nJe+5MWkMxkA9sWIALAva9as5R3veh8HHnokH/34p9i1azfPfc4ZXPrPv/K973yDeXPnICIYYzjs0EO44M9/4GMf+SCNjQ1s2rSZd7/vg5x06plcevkVRHEMgMtc5jKXucxlLnOZy1zmMpe5zGUu2xcD8O8yPDLCL3/9W173mlcxbepUAJ4O4xkA/tepKnEcEQQ+AKpKNQx59NFHMcZw6qmnAuCy/cF4BoB9aWlpYXhkGN/3ed1rX8V1V13G97/zTZYuWYwxBoBaTU2NvOkNr+Pm66/h85/9FFOm9DAwMEjgB3jGADDJiAHgiYgAgMtc5jKXucxlLnOZy1zmMpe5zGX/nxmAf5fmpib+8dfzeePrXwvA0xX4PgD/65qbmvjSFz/PnDlzePVrXscBBx3KUUcfx5YtW/nVL37GEYcfBoDL9ofA9wHYl46Odr7/3W9x/9238amPf5TZs2chIgA8kcbGBl758pdy/dWXc8Wlf+f4445BRDDGcPxxx3LR+X/kXe94K+lUCoBaDQ0NfO4zn+TCv/yBlStWAOAyl7nMZS5zmctc5jKXucxlLnPZ/2cG4L9dOhXgex4AT8frXvMqHrz/Hl73mlcBsD8tXLCA3/zqF9x/7108eP893H/vXfzmV79g5coVALhsf/A9j3QqAODxtDQ3U1dXB8BTlU6nmTtnDul0GoBEW1srBx14ALNmzcTzPABq+b7PgvnzOGDlCpqaGgFwmctc5jKXucxlLnOZy1zmMpe57P8zA/C/IJtJYUQAcJnLnm1GhGwmBYDLXOYyl7nMZS5zmctc5jKXucxlLtvfDMD/As/zyOcy+J4HgMtc9mzxPY98LoPneQC4zGUuc5nLXOYyl7nMZS5zmctc5rL9zQD8r/A8j7p8lmwmje97GBEAXOayp8qI4Pse2UyaunwWz/MAcJnLXOYyl7nMZS5zmctc5jKXucxl/w0MwP+adCqgLpeloT5PU0MdLnPZU9VQn6culyWdCgBwmctc5jKXucxlLnOZy1zmMpe5zGX/TQyAy1zmMpe5zGUuc5nLXOYyl7nMZS5zmctc9t/GALjMZS5zmctc5jKXucxlLnOZy1zmMpe5zGX/bQyAy1zmMpe5zGUuc5nLXOYyl7nMZS5zmctc9t/GALjMZS5zmctc5jKXucxlLnOZy1zmMpe5zGX/bQyAy1zmMpe5zGUuc5nLXOYyl7nMZS5zmctc9t/GALjMZS5zmctc5jKXucxlLnOZy1zmMpe5zGX/bQyAy1zmMpe5zGUuc5nLXOYyl7nMZS5zmctc9t/GALjMZS5zmctc5jKXucxlLnOZy1zmMpe5zGX/bQyAy1zmMpe5zGUuc5nLXOYyl7nMZS5zmctc9t/GALjMZS5zmctc5jKXucxlLnOZy1zmMpe5zGX/bQyAy1zmMpe5zGUuc5nLXOYyl7nMZS5zmctc9t/GALjMZS5zmctc5jKXucxlLnOZy1zmMpe5zGX/bQyAy1zmMpe5zGUuc5nLXOYyl7nMZS5zmctc9t/GALjMZS5zmctc5jKXucxlLnOZy1zmMpe5zGX/bQyAy1zmMpe5zGUuc5nLXOYyl7nMZS5zmctc9t/GALjMZS5zmctc5jKXucxlLnOZy1zmMpe5zGX/bQyAy1zmMpf9p1WqIRPFEmPjBUbGJnCZy1z2nzY2XmCiWKJSDQFwmctc5jKXucxlLnOZy/6bGACXucxlLvtPieOYiUKJUrlCFMVYVQBc5jKX/adZVaIoplSuMFEoEccxAC5zmctc5jKXucxlLnPZfwMD4DLXlMtldu/upVKpAFCrr6+f3b29xHEMwFO1bft29vT1oaoAPJvGxsZJAPwvUlU2b9lKFEUATIqiiMHBQaIoAuDJKJfL3HjTzfTu2QPA3h586GG2bN0GwP4SxzGFYpkojgFwmctc9t8iimMKxTJxHAPwdAyPjLB58xYAno6h4WGGR0YA2NvY2DgJgP8Wm7ds5U9/uYDhkREAnorhkRE2b94CwNMxNDzM8MgIAHsbGxsnAfBURXHMnXfdzYaNGwH4d1FVhkdGKBSLAPwrvXv2cONNN1MulwHY38IwJIoiAB5PFMckAJ5IuVzm5ltuZWh4GIBnolwus2btOiqVCgDPpiiKGBwcJIoiAP4/6N2zhxtvuplyuQzAfwNVZXhkhLGxcQBc5rJ9KZZKXH/DTfTu2QPAs2lsbJwEwLNlbGycBMB/WqFY5N777mdkZBSAZyKKIu68626GhocBeLIqlQqDg4PEcQzA06WqDI+MUCgWAfhfZQBc5ppHHn2MF774ZWzfsQOAWr/9/R/52Cc+TRRFADwVlUqFT3/2C/zwRz8F4Nn22c9/kQTA3sbGxvnq17/JRz/+KR7PlVddw09//ks++vFPsbef/vyXVCoVACbdeNPNfPTjn+Kp+OrXv8nY2DgAexscHOINb34bP/nZLwCYtH3HTk454ywuvewKAJ6MsbFxPvbJz/DoY6sAqDUwMMj7P/RRHnzwIQAez/kX/pWPfvxTPFWrVq8B4F8platYVQBc5jKX/bexqpTKVQCeKlXl/Av+yote8grWrd8AwFP1y1/9lte+/s2Mj48TRRHj4+MAJD77+S+SAPhPeOihhzn5tOdy+x13ArAvIsL3vv8jbr31dgCeLFXl/Av+yote8grWrd8AwFP1y1/9lte+/s2Mj48TRRHj4+MAJD77+S+SAHiqKpUK3/7uD7jm2hsA+FdWrV7DRz/+KZ7IT3/+SyqVCgCTiqUSb3nbu/jd7/8EwL/y6GOr+NgnP8PY2DgA/0oURQwMDNLX189TMTAwSBRFAOwtjmM2bNzI577wZZYdcChve+d7KJXKACQqlQqbt2zlr3/7B295+7uYv2g5P//FrwF4InfdfQ/vfM/72blzFwDPxL33PcDLX/U6tmzdBsCzafWatTz3nBexes1aAPZ2400389GPf4rH89Wvf5M77ryLj378U+zLqtVrAJg0NjbOV7/+TT768U/xVNx4080A7O3e++7nvJe+knXrNwCQePSxVXzsk59hbGwcgMQll17O6c85m949ewD4d1JV4jgGYFKxVOItb3sXn/38FwGoNTExQbFUAsBlrlJVfvrzX/KjH/8MVQXg2fLZz3+RBMCz5bOf/yIJgP+0nTt38ea3vYtbbr0NgKdLVfnFr37LS17+al7yslexc+cuAJ6MW267nec9/1wGB4cASJx/4V/56Mc/xeO58aabAahVLJV4y9vexe9+/ycAEudf+Fc++vFP8UQ++/kvsWPHTgD+GxiApyqOYx586GG+/NVv8NGPf4rEz3/5a3bv7gXg36Gvr5/Vq9cQxzEA/2m9e/Zw+ZVXsS+33Hob4+PjAPy3W79+A22trbS3tQMwqVAscu9997N40SLS6TQAT8Vjq1bz0MOPcs7Zz0NEAPhX+vr6OfLYE5k5dxF7e/HLXkWhWATgXwnDKvfe9wA33nwL/7z4Ui7869+56prr+MsFF3HdDTdy4823sHXbNh559DFuvPkWav3z4ku5/oabiOIYgEmr16xj46ZNHHPMUSSKpRIbN23imGOOItHY2MBlV1zJ8uXLOOaYo2hsbOCfl1xGuVwGYG+PrVrFyMgop5x8EgCTpk2bymGHHsytt9+BqgKwL7179nD5lVeRuO6GG5mYmODee+/j8iuvItG7Zw8Af//nxWzatJnPffErHHHMCSTe8e73USyVAJi0bt16brz5FvZ21TXX8ZcLLuKqa67jxptvYW9DQ8MAPJFKNSSKYwBc5jKX/beK4phKNQTgqRARXv7S81i4YB7f/d4PiaIIgCdrYGCQK6++huOPO4b6+noeePAhTjrtOaxevQaA/7QFC+Zz3LFH85rXv5krr7oGgEKxSF9fP5Oy2QxHHH4Y/7j4Enb39tLX18+kSqUCwL6ICC9/6XksXDCP737vh0RRBMCTNTAwyJVXX8Pxxx1DfX09Dzz4ECed9hxWr14DwH/S0NAwN958C4l/Xnwp51/4V2648WZuvPkWJj3y6GNMTEzwjne/jz/+6S8APJ6+vn6OPPZErr3+BgD+lR//9Be8+GWvolAsAjBp9Zq1HHPCyRx65LE8FceccDKr16wFYNKtt93BoUcey5wFSzn1jLN4+JFH+dY3vsL3vv0NstkM7//gR5g5dxELlqzkhJNP53Nf/DK+7/Ozn/yAV778JagqAJVKhb6+fmrt7u3lz+dfyIL582hsbKCvr5/HMzg4SBzHAOxLFMecf+FFHHnEYcyZMxuAJ+PHP/0FM+cuYl+uvf4GAJ6MnTt3cePNt3DdDTfylwsu4qprruPCv/6df158KTfefAv33vcAvXv2cOPNt1Druhtu5M/nX8iu3bsBmFQul7nm2huYPn06xxxzFMuXL+OGG29m+vTpHHPMURx66MHcdc+9FEsljjnmKA499GDuuudeVq9ZB8DeVq5YzvTp0/jq179JuVwGYG/DIyP84le/4ZSTT6KzowOAf5dSqcyb3/ZOPvGpzxJFEQBPJIpjPv/Fr/Ca172JQrEIwJMxPDLC+Rf+lY9+/FMkPvO5L3LLrbcRRREAz7Y4jnnooYcZHhkB4D8timPuvOtuLr/yKvZlw8aNxHEMwH+zQrFIX18/tQoTBU4/7RRuvf0O1m/YSF9fP7UGBweJ4xiARF9fP0ceeyIz5y5iby9+2asoFIsAPBk//ukvmDl3EbWOPPZE+vr6Adgf4jhmcHCQvr5+9lZfV8eypUv4x8WXsLu3l76+fvY2PDKCqgKwL3Ec8+Of/pwf//Rn/On3v2bJ4sW89g1vZufOXQA8HXfffQ+PPrYKgFphFHHV1deyes06AP6Vu+++h1tuux2AfRkcGuJv//gnwyMjAPw3MABPRX//AK967Rs454Uv5sK//p0bb76FxFe//i2OOOYEvv/DHxNFEQDPlmKpxHs/8CHOeN7zueXW2wD4T3v0sVW87R3vYV9e+Zo3sOyAQ/nK175BFEUA/Ls9/MijfPf7P6JYKgHwZERxzC233c6JJxxHY2MDAJN27NjJho2bOOLwwwD4V378018wc+4iJr3g3JcyNDTEC859KTPnLmJvi5YdwCOPPgbApNbWFi75+4XcffvN7O0nP/oeuWwWgH+ltbWVC//yB+645Qbe+Y63cfbznsNvf/UzFi5cwKX/+Ct33HIDb37j6/nBd7/FHbfcQK13vuNtAOzLtKlTOfP000gsXLCAaVOncubpp5E4+OCDqKur46QTjufM00/j4IMPAmBfyuUyv/vDnzjyiMNQa7n8yquYdPU115JKpbj9jjv569/+weVXXsWkO++6myiOAdiwYROf/+JXSHz7u99nbGycP59/IZ//4ldIbNiwifvuf4Cf/eJXfOsbX+HKS//B+X/6HdOmTqGxsZFUKgXApE9+/CPcccsN7O23v/oZXV2d/PZXP+OOW25gb0cfdQQATySMIgBc5jKX/bcLowiAfVFVhkdG6OvrZ2+lUpmXvfTF3HLbbdxy6+309fWzL4ViEYBad9x5F4ODg5xx+mkArF+/gcaGBjq7OgH4T8tkMnzsIx/kfe95F+949/u44cab+d3v/8ShRx7LpMOOPI6///Nirrv+Ro44+gQOPfJYJt1y2+2oKsMjI/T19bO3UqnMy176Ym657TZuufV2+vr62ZdCsQhArTvuvIvBwUHOOP00ANav30BjQwOdXZ0A/CcdfdQR3HHLDSTe/rY3c8Thh3L9tVdwxy03MOkH3/0WmWyW/v4BxsYnAPh3W7Z0CasfeYAtG1bzZPzht7+isbGBV7zspSxauACASeVKGUG48rJ/sn71w1x0/h858/TTyGQyACTe+fa38sC9d7B5/Soeuu8ufvDdb3HyiSdQV1eHiABwy223c+iRx1LriKNP4MqrruHue+7j2BNO5dAjj+XxPO/55zI4OARAoq+vnyOPPZGZcxeRmLtgKZdcejmJuQuWMnPuIvb2/g9+BIBar3rly7j79pvZl2OOOhKAJ+PlL3sJd9xyA5f+468sXLiA3/7qZ5z9vOfwzne8jTtuuYEL//IHnn/2Wdxxyw3UuvQff6WnpxuAvQWpgKOPOoIzTz+Nk044nuaWZo4+6gjOPP00Tj3lZNrb2li4YAFnnn4ap55yMu1tbQDsi+/7vOsdb8Vay/YdOwHY2/r1G+hob+dlLz0PEQHg3yWbzfD8s8/ir3//J1dedQ0AT+T++x/k0suv5HWveRX5XA6AJ6Kq/PXv/+SQw4/h45/8DDfefAuJiy+9nFe+5g2c9pyz2bBxIwDPpltuvY2zX/hi3vGu91IslQD4T6pUKnz7uz/gbe94D/ty8mnP5cRTzmTV6jUA/LsVSyV++vNfcvc99wHwZP3u93/i0COPZW+f/fyX2LRpM6ee8TwOPfJYaj3v+ecyODgEQKK1tYVL/n4hd99+M3v7yY++Ry6bBeDJmj17Ft/+5lf50Q++w1ve9HoA9qfBwSGe9/xzOfTIY9nbEcecwI033cx119/IEUefwKFHHsve3vK2d1EslQDYW7lc5pOf+Tw//fkv+eH3vsORRxzO5z7zCbq7u3nRS17OqtVrAHg6zjzjdL78xc9R67Of/gTz5s0F4Mk67JCD+fIXP8e+vPPtbyWXywHw38IAPFlRHPO5L36Z7dt3cuWl/+D+u2/jjltuIPHog/fw7ne+jW9/9wdce90NADxbUqkUBx14ACtXLGfG9OkA7A/ZbIZL/nERWzasptaaRx/g3e98Gz/9+a+44sqrAfh3++3v/sDtd9yJqgLwr7z/gx9h7oKlXHHl1Xznez9k5txFJK69/gYA7rzrbgYHB3nFq1/HzLmLqLVo2QE88uhjANTq7Ojgikv+zt2338wT+d2vf05jQyMAtTzPo7W1lY6OdvbW3NTE0NAQ577kFRxxzAn885LLSBxxzAlMese730exVALg3+Gvf/8nM+cuIvHVr3+Tv/79n8ycu4jEG970Nnbt2s2hRx7LzLmLeMOb3gbAvtxz7/3cfsednPeiF3Lf/Q/w+S9+hUkf+OBH+efFl7J7dy+f+szn+fwXv8KkP/zpL1SrVQCOPuoI7rjlBhKX/uOv9PR0882vf4U7brmB22++nlK5xCtf/Xpe/9rXcM5Zz6O9vY3Lr7ia4eER3vG2N+N7HgD/CTa2ALjMZS77b2djC8C+FEsl3vK2d3HokceyL29/53sZGxvntW94M4ceeSz78rvf/wmAScMjI/ziV7/hrOc+h/nz5hLFMbfcdjv19fXcceddXH7lVWzfsYPE5VdexaQbb7qZcrkMwL+D53m8+Y2v4ze//BkHH3QAb33zG9iyYTWJ2266jjlzZvORD32AzetXsWXDamqdfOIJFEsl3vK2d3HokceyL29/53sZGxvntW94M4ceeSz78rvf/wmAScMjI/ziV7/hrOc+h/nz5hLFMbfcdjv19fXcceddXH7lVWzfsYPE5VdexaQbb7qZcrkMQOLHP/0FM+cuYm9Llh/EXXffw1e//k1mzl3Evlx7/Q0A1IrimEcfW8W8uXPJZbMA/C+Iooif/OyXvPEtb+Pd73w7H/nQ+/F9H4Banu/R0tyM53kA7C2Xy9Hc1ISIALAvJ594Als2rGbS5vWreN1rXsX8eXO5765b2bJhNU/k9puvp6OjHYBa73z7W7n79pv5V848/TQA9pbP5ejoaGdf0uk0f/zTXzjimBN49eveRG/vHl79ujdxxDEnMOnW2+4A4N9hdHSU553zImbOXcShRx7L6tVreN45L2Lm3EUsWX4Qd919D1/9+jeZOXcRS5YfxF133wNArRtvupmPfvxTJH78k5/T1dnJr379Wz768U/x29/9gf7+Ab74la/x0Y9/ir//42La2lr53vd/xEc//ikSq1avAeDf4fTTTuEVL3sJn/vil9mydRsA+zI8MsIXv/xVDj/sEI4/7hgA/pUHHnyIj3/yM7z9rW/i0Qfv4Y5bbiBx/923ceWl/yCshnz8k5+lUCwC8Gzp6upi+bKlHHH4YWQzGQD2hxc+/2y2bFjN3q689B+oKh/7xKcZHx8H4N9p48ZNfOd7P2BsfAyAp+KwQw/hsYfvY8uG1fwrv/jZjwCo5Xkera2tdHS0s7fmpiaGhoY49yWv4IhjTuCfl1xG4ohjTmDSO979PoqlEgCJ9rY2Tj3lZM48/TQOPvggANasXcvpzzmbI445gb3985LLSBxxzAmc+5JXMDg4CMCz7Rc/+xFbNqzmqfjwB98PwL7s2LGT8176Sq688mp+/YufcvRRRwBQX1/PD777TQ5YsYKznn8uf/37P1FVACZVKhV++vNf8tGPf4rf/u4P9PcP8MWvfI3Pfv5L7NixE4BisUhfXz+1+vsHqFarAEwaHBzk3Je8gpNOOZN77r2P7//gRxxxzAncetsdAJRKZfr6+tmX4eFh1CoA/y0MwJM1NDjEffc/wIvPeyELFy4AYFImk+E1r34ly5Yu4fwLL6JSqQDwbPA9j/e9513846/nM2vWTAD+m2QyGV73mlezbOkSbrzpZgD+G515+mncffvNJG687ioOWLkCgMHBQf74p7/wnne9g7tvv5lav/v1z2lsaARgb57v0draSkdHO0+kubkZMQLAU5HP53n7W9/EJz/+EQ48YAWJT378IyQOPeRg+vsHUFUAfvzTXzBz7iK++vVv8te//5PnnfMiVq9ew6FHHsuiZQfwyKOPAfBkvfXNb2DLhtXs7cMffD+HHXoIjz18H1s2rKbW7TdfT0dHOwCTCsUiP/jRT2hubmbB/Hm8/GUv4Y5bbiBx+83X86IXPp/nPfdMnvucM3jta17FHbfcwKQffPdb5LJZACqVCj/9+S/56Mc/xRe/8jX6+wf47e/+wEc//im+9o1vUZfP09Lawq9+81uOPPZEDjvqOL7ytW+wc+cuXnDuS/n8F78CwH+CVQXAZS5z2X87qwrAvuSyWX7yo+9x9+03c9P1V3HIwQfxqle8jLtvv5l9ue6qy5g/by5vfuPrufv2m0m86pUvA2DS5Zdfyfr1G3jhC85BRNi1axf33nc/9z/wIG9/53t52zvew9333Efibe94D5M+9snPMDY2DsC/i4hw9FFHUF9fD0AiiiJ+8KOf0NXZwctfeh4iQqFY5L77HyCOYwASuWyWn/zoe9x9+83cdP1VHHLwQbzqFS/j7ttvZl+uu+oy5s+by5vf+Hruvv1mEq965csAmHT55Veyfv0GXviCcxARdu3axb333c/9DzzI29/5Xt72jvdw9z33kXjbO97DpI998jOMjY0DMOmAlSu48bqruPv2m5l043VXccDKFbzz7W/l7ttvptYVl/ydzo4OAPY2MDDAw488yuo1a/noxz/FpJ/+/JdUKhUA/tvs7u3l1a97Iz/7+S/55c9+zOte8yo8zwNgb/39A3zxK1/jox//FJPOv/CvADxd99x7P3/6ywW89S1vpLW1FYCnI5fL0dHRzr+SzWYAeKoOO+wQPvnxj/DG17+W+vo63vj61/LJj3+Ed73jbRQKBcqVMgB9ff0ceeyJHHrksaxevYbnnfMi/vr3f/LVr3+TmXMX8f4PfgSAJ6ujo53bb76eLRtWU+vu22+mp6ebX/zsR2zZsJq9vfXNbwDgiagqN958C/fd9wAA+4uI8Pa3vomlSxYzODgIwL6sWbMWz/P43Kc/SSaTAeBfuevue2lqbOQlLz6XTCYDwKSFCxfw3ve8g3vuvY8HHngIgGfLwgXzufjvF/KOt70FEQHgv8nChQt433veydp169iydRsArsrn87z9rW/ikx//CAcesILEJz/+ERKHHnIw/f0DqCoAj6erq4v3v/ddfPLjH2FvBx6wgsQnP/4R3v7WN5HP5wH4dyiXy9x408307tkDwNMRxzG//u3vOf7k0wG4+O8XcuABKwGYVF9fz/e+8w3e8LpX84EPfZS3vP1d7O7tBWBvIyOjAOzt+z/8MYceeSy1jj/pNB548CEAJgVBioMPOoCjjz6SpsZG5syZzfHHHkNLSzMAl195FYceeSz78qrXvpHRsVEA/lsYgCfLGIPv+ezZ04eqAlCruamJN7zuNSxdsoQwDBkbG+erX/8mjz62itvvuJNTz3geM+cu4qDDjuYrX/sGExMTACTGxsb56te/yfU33MR119/IYUcex8y5i/js578EwI033cxXv/5NxsbGAVi1eg2f/fyX2LBxIz/9+S9ZfuChzJy7iDOf93xuv+NOVBWASbt7e/nIxz7J3IXLmD1/Cee99JVs3ryFG2+6ma9+/ZuMjY0D8HT5vkc6ncb3fQAmTUxM8JWvfYODDjuamXMXcdBhR/OVr32DiYkJAGpNTEzwla99g4MOO5qZcxdx0GFH85WvfYOJiQkAEudf+Fc++vFPcdc997J+/QY+/dkv8NnPf4kdO3YC8ESy2QwdHe0k2tvbSKVSAFxw0d+pVqu8+NwX0tHRTq3m5mbECAD/aZlMhuOPO5YzTz+NaVOnkjjz9NNILFywAIBaZ55+Gt/8+lc48/TT+N2vf84xRx/FRef/kWlTpwLwZBSKRV78slcxc+4i9uWrX/8md919D0uWH8TMuYvYl2uvvwGAxJ/+fD533X0PAHtbt34Dl11xFS96wTksXDCfTZs3E8UxAHuL4pjrb7iJxsYGDj/sULLZDEsWL2L69Olcc+0NzJk9m8MOOZiZM6bzyY9/hM986uP86Aff4Rtf/zLTpk5hZGQEgP3tk5/6DCsPPIRPfeazqCpjY+O8/BWvZuWBh/Cr3/wOgFWrV3P4kcew8sBDqHX6mc9joH+Am26+hZUHHsLjuenmWwBIPPDAgxx8yOGsPPAQPvDBDxPFMQBP1q9+8ztWHngIezv9zOcx0D/ATTffwsoDDyFx1VVXA5D45Kc+w+FHHsOq1asB+OSnPsPKAw9hbzfdfAsAe4vimA9/9OMcc9wJbNiwEYD/tD19ezj3xS/jhBNPYd26dQDsL6rKVVdfwymnncnKAw8h8fo3vpliqQTAs2XHzp18+CMf4wtf+goA/07r1q3jhBNP4dwXv4w9fXsA2J9EhOamJjo62pkxfTrPfc4ZPPzIo2SzGTo62tnb6NgYA4NDnHbqyXR0tJPI53IAJB5btZqvfuNbKIoxBoDLLr+KhoYG7r3zVrZsWE3ihc8/m8SWDauZdPvN19PR0Q7As6VSqfDTn/+Sj378UyQ++/kvsWPHTgAScRzzs1/8irvvvY+vffmL1NfXA/CPf1zMm976TjZu2gxAQkRobmqio6OdGdOn89znnMHDjzxKNpuho6OdvY2OjTEwOMRpp55MR0c7iXwuB0DisVWr+eo3voWiGGMAuOzyq2hoaODeO29ly4bVJF74/LNJbNmwmkm333w9HR3tAExKpVK0t7fR0dHOpPb2NlKpFLlcjo6Odmq1trbi+R4Ae7vnnvsYHhpmSk83AIlHH1vF9TfcRBTHAPy3KJfL/ORnv+S4E0+jrq6Oqy6/mCOPOByAxxOGIXfceRc33nwLiX9efCl3330PAInLr7iSj378U+zLqtVrAKi1c+cuPvzRj1Mul/nyV7/BEcecwOP5/Be/AsD+MnfOHM48/TSOPuoI8vk8Rx91BGeefhonnXA8dXV1AExqqK/nxz/4LsccfRS/+/XPOfP00/jm17/CO9/+VgCerGuvv4GZcxexL4ceeSy7du3mDW96GzPnLmJfXvyyV1EoFgE4/rhj+fIXP8ekT3/yY+TzeTra2/nIhz9AGIbceefdTJ06hbe/9c186Quf5ctf/ByTFi9aCMCzLYoiBgYGiWPLV774eaZNnUpfXz/9/QNUq1VKpTJ9ff0k5syezU9++D2CIGBwcJA4jgF4IkHgUywVGRsbB2BvRx1xBK97zatQVQBWrV7DV7/+Tfr6+vnpz3/J8gMPZebcRZx6xvO49PIriOMYgMSq1Wv47Oe/xIaNG/nqN77F3IXLSNx62x2MjY3z1a9/kxtvuhmASqXCT3/+S86/8K+s37CR8176CmbOXcTiZQfyuS98mYmJCQAmxXHMpZdfwYmnnsnMuYs46LCj+fkvf83Q0BBf/fo3ufGmmwF4JjKZDMZ4+J4HQEJVufuee3nRi1/O7PlLSLzoxS/n7nvuRVUBmKSq3H3PvbzoxS9n9vwlJF704pdz9z33oqoA7Nixk89+/kt8/4c/plyu8Nvf/YGPfvxTnH/hXwH4b5DJZDj+uGM58/TTmDZ1KokzTz+NxMIFCwD4V5oaGznl5JM48/TT2Nu0qVNJnHn6aRx/3LFkMhkAni0NDfV86fOfYemSxYyNjfOxT36GRx9bBcC/csrJJ/Ded7+DdDqNqnL3PffyvHNexGc//yVe9pLzOOnEE/jhj3/KRz/+Kfb2yU9/jpGRUd79zrdx2+13cszxp/CTn/2ScrlMOp3mzW98PV/6wmc5YOUKWlta+MiH3s+nP/kxpk6dAsCHP/h+tmxYTa3HHr6Pww49BIBJDQ31fPiD7+ezn/4E8+bN5cwzTufLX/wcixctBOCFzz+bLRtWM+mFzz+bxJYNq0msfuQBli1dAsB/AwPwZLW2tnDySSfwuz/8ic987osMj4wAUOt5zz2T97/3XdTV1VEul/nnJZfxk5/9gg999BO85lWv4KrLL+Ydb3szf/jT+bz5be9kfHwcgHK5zD8vuYwf/OgnvPlt72TJkkW89MXn0t7eBsDqNev45yWXUS6XAdi1eze//8OfeNs73sO9997PFz/3Gb765S8QRRGvft2buOfe+wFI7Ny5i5e94jXccefdfPVLn+eKS//BcccezStf+wb+fP6F/POSyyiXywA8XQ89/AiPPPoYRx91JACJ3b29vOyVr+UPfzqft775Dfzlj7/lrW9+A3/40/m8/NWvp6+vH4DE7t5eXvbK1/KHP53PW9/8Bv7yx9/y1je/gT/86Xxe/urX09fXD8CzbWR4hCuuvIp3v+vtdHd3AVCrXC5TrYYA7G3Xrt0ceuSxzJy7iCfyvHNexMjICAC13v/BjzBz7iIez49/+gsAojimWCoB8ESy2QyNjQ1ksxmam5vJZDK0trbi+T4AY2Pj9PX1U6tYLAIwKZ/Lcf6ffseWDavZ26pH7ueoIw/n7W99M1s2rObxnHziCQA89NDD/OBHP2HZ0iUA1IrimF/9+rfMnTObgw8+iDmzZ7Nhw0bGxsYA2LJ1G5dedgWqCsCkgw8+iJNOOJ66ujoOPvggjj7qCIJUAEBi2tSpnHn6acyfN5ee7m7OPP00pk2dCkBCVRkeGaGvr599GR4exsaW4eFh+vr62ZexsXEAnolHH32MkdFRduzcwcZNmwD4d7j1ttvJ5rLMnDmDBx56iN7eXgD+Hf7wxz8xMTEBwDO16rFVXH/9DRx55JHMnDUTAJfdedfdfPRjn6C/vx+Af5eNGzdx1dXXUCmXAXDZiSccx56+Pm686RYAaqkq//jnJSxdspjFixYCUGt8fJwvfeVrRGFEKpUCYMvWbfz6t7/jRS94Pm1trQD8J8XW8sijj3Hjzbdw1TXXccFFf2N4ZASAYqnEZz73RX72i1/x8Y98iIGBAS6/8ip+94c/8bVvfpu3vOn1zJ83F4B9OfGE49jT18eNN90CQC1V5R//vISlSxazeNFCAGqNj4/zpa98jSiMSKVSAGzZuo1f//Z3vOgFz6etrRWA/aFQLPKHP/2Fl7z4XL759a/w5S9+jsRBBx5AV1cnuWwWgKfi/R/8CEcccwKT3v/Bj7Br126ee84LOeKYE5j0/R/8CICnYv2Gjfz4pz/jM5/6OD/6/ndob28D4In09HRz6T/+yh233EDine94GwCTNm7cxI0330Liuhtu5M/nX8jlV17FjTffwtDQMACTiqUS3/jWd9m8ZSuzZ8/iox/+AJ/8+EfYl2lTpzAyMgLA4/nq17/JzLmL+Ff++vd/AlDrkUcfY9GyA5g5dxH7cuSxJ9LX1w9AuVymWg0BeDxiDM3NTWQyGZqbm8lmMzQ2NpDL5QCIooiBgUH6+vqZNDg4SBzFAEw6+cQT2LJhNfvym1/+lI6Odm6+4Wq2bFjNvpz/p9+Rz+UAmBRFEZdcejknnnomO3ft4re/+jk9Pd0kfvebX+B5Pme94DyOP+l0Lvrr3ymWSgD8u6xes5ZjTjiZQ488llrHn3QaDzz4EJdfeRWHHnkse3ve889lcHAIgCdy7DFH43s+b3rLO7jl1tuJ4xiASR0d7XziYx/mmKOPBGDX7t2cf+Hf+MCHP8aNN93C97/zTf751/M58ICVvPPd7+fnv/wNqgrArt27+fP5F/Le93+Y3//hz5z9vOeQSKVSlMtl/nnJZaxesw6AKI65/oab+N4PfsQb3/w2Tj3lZH70g+9w7otewG9+9wc+/NFPEkURAKrKz3/5G9757vdz6MEH8c+/ns+3vv5lrr/hJt7/oY9y0d/+weo16wB4usrlMv+85FLmzZ3D1KlTAFBVfveHP/GyV7yG5qYmfvaTH5BobmriZa94DX/8018ASKgqv/vDn3jZK15Dc1MTP/vJD0g0NzXxsle8hj/+6S8APBvuuvseliw/iJlzF/GvvOFNbwOg1vs/+BFmzl3E4/nxT38BQBTHFEslAJ5I/8AAV19zLZdfeRX33nsfAJOGhodRVQD+UzKZDMcfdyxdnZ0A/Cuqyq5duymWSsydM4fDDzsU3/OoVCr89Oe/JAgCrrnyUj7y4Q+wfsMGbrz5Fh7PTbfcysEHHcSdt97Ay1/6Yn7569+wbfsOABKDg0Pcdsed9O7Zw/e+/yOiKALAZQbgyRIRPvSB9/Ked72D8y/8KwccfAQnnnomP/nZL9mxYyeqCsDebr7lVn743W/xspe+mAXz5/HaV7+SP/z2l9z/wIP87R8XAzDpwYce5vvf+Sa/+vlP+PIXP8fb3vImAPYlimOWL1/Gj3/4XZ733DN58bkv5Gc/+SHNzU389W9/ByCKY77y9W8C8Kff/5oXvuAcFsyfx9vf+ma+9fWvcv0NNwHwZJTLFb7/wx/z0Y9/ilqve+NbeONb3sFHP/wBzjzjNABUlZ//4tf07tnDpf/8K2943Ws4/LBDecPrXsM//3o+u3fv5ic/+wWqSuLnv/g1vXv2cOk//8obXvcaDj/sUN7wutfwz7+ez+7du/nJz36BqvLic1/Il7/4OQ475GDmzZvLZz/9CT79yY8xdeoUAJ6qpuYm/vDbX3Hcscfwm9/9gfHxcQAmjY6NkU6n6OzoAKBWZ0cHV1zyd+6+/WaeyO9+/XMaGxoBqPXKV7yMH/3gO3zw/e+hoaGej33kg/zoB99h0iknnwBApVJhaGiYuXPnAvCvdHV1AbC3z37+ixx65LHU+v4PfwzAvvz4p79g5txFTFq87EBuu/1OfvjjnzJz7iJqvfhlr6JQLAKQmJiY4LNf+DJnnn4ab3vLmwCodc0113HFVVfz/ve+m3wux9y5swnDkJ07d7Fh40Ze9Zo3cNHf/kGxVALgqbrm2hv4/R/+BECtYqnEW972Lg498lj25VWvfSN7+vp41WvfyKFHHsu+fPbzXwTgqapWKgyPjDBz5gwmJgps2byFVatW09XVSX19HWpjACYddNCB3H7bzTx4/z0krrz8Etra2zju2GN48P57SLzrXe8E4F3veicP3n8PieOOPQaAYqnEgw89xIoVKzj3hS9kcGCQDRs2AvBkve41r+LB++/hT3/8HZlMhoMOOpDbb7uZKy+/hLb2NgASIsKjj63i4YcfBuDxfPc73+LB++9h0nHHHgNALVXlssuvAODlL30JvucB8J/W2dHJhef/iRuuv4b58+cDsL+sXrMWay1vefMbue+eO3nw/nv45c9/Si6bBeB/0fz587nh+mu48Pw/0dnRCcB/k6lTpvCiFzyfX/zqNwyPjAAwad36DVx2xVW8/rWvIpPJAFDrr3//J7t27eYbX/8yuVwOgMHBQWbPmsV5L3o+AP9puWyWH3z3W9xxyw389lc/o6GhHoDE2NgY1994E9VKlY9/6jO85R3v5qMf/xSf+sznOfP003jtq1/J5s1b+NNfLqBcLgNQa+qUKbzoBc/nF7/6DcMjIwBMWrd+A5ddcRWvf+2ryGQyANT669//ya5du/nG179MLpcDYHBwkNmzZnHei54PwP7ypz+fz9p163jJi89FRAAYHR3j/gce5LBDDkZEAHgyMpkMZz/vOZx5+mkcf+wxTFq+bClBEHDE4Ydx/LHHMOnss57LiScch+95ADxZuVyOZUuX4HkeAM/UO9/xNu645QYSl/7jr/T0dPPNr3+FO265gaOPOgKARBRFfP4LX+a6G27grW9+A+1tbZx6ysmcefpp7Mu0qVMBeCLvfPtbufv2m/lXzjz9NABqTZs6le99+xv88Pvf5sADVnLE4Yfxox98h0lf+vxnaGioB2B0bIx0OkVnRwcATySTSdPY2ABArdVr1nLMCSdz6JHHMumM5z2fPX19AOytr6+fI489kZlzFzHpNa9/M319/Rx7wqnMnLuIWtdefwMAtfr6+vnCl77K0pWH8NFPfJqPfPD9/PB736apqRGARHNTE2950+u5546b+fIXP8uvfvM7lq44mC995etUq1UAnm2LFi7glhuu5e7bb+bJeufb3wrAkzF/3lx+/9tf0tTUyCtf83oWLFnJO979Pm66+RYqlQoAexsaGiKOI3724+9z3LHHsGLFcr78xc/xwfe/hx/95KesW78BgES5XGZiYoKrLvsn3/z6V0gceshBAOzL0NAQ3/nW13nD617Dmaefxmc+9XHe/tY3c+PNt7B+/QYAHnjwIb7zvR/w4Q++ny9/8XOsWLGc4449ht//5hfksjn6+wcAeDLuuudePvrxT1HrQx/9BCed9hwGBwf5wXe/RX19PQDrN2zku9/7IW99y5v42U9+wMknnkDiJz/6Hm984+v41ne+z7r1GwBYv2Ej3/3eD3nrW97Ez37yA04+8QQSP/nR93jjG1/Ht77zfdat38DUqVP49Cc/xjvf/lYymTSvftUr+PIXP8eLz30hAE/GAStXcON1V3H37TfzZFzy9wtpbW0BIPHKV7yMH/3gO3zw/e+hoaGej33kg/zoB99h0iknnwBApVJhaGiYuXPnAvB4tmzZyle/9i0+/8Wv8OfzLwQgcc2113HCyafz0MOPAPDfplgqcdFf/87xJ53OkceeyHe/90PiOAYgkclk+MF3v83fLvwz8+bOIZfN8oPvfos7brmBJ3L0UUdQV1fHZz/9CW66/mrmzZ0DQOKOO+9iz54+WlpaWL1mLb/41W9RVQC+/4MfccQxJ1DrpFPO5J577wPgiWzbvp2+vn4A/nnJZRxxzAlM+ucll5E44pgTmPT5L34FgP8GBuCpyGQyvOddb+fRB+/h7xf9hcMPO5Qf/eSnHH38yRx/0ulcevkVxHEMwKRTTzmZ5cuXATBp6dIlHH/csVx+xVUUikUAEs8583ROOeUkAP4VEeGcs56H7/sAJKZOncJBBx7Alq3bKBSL7Nq1izvvupsXvfD5TJnSA8CkAw9cycknnQDAk6Gq3HvfA9x48y3UevSxVVQqFe655z6GhoYB2NPXx1XXXMu5L3wBM2dMB2DSnDmzOfeFL+Cqa65lT18fiauuuZZzX/gCZs6YDsCkOXNmc+4LX8BV11zLnr4+AJ6uv/79n8ycu4jEkuUHcdfd9wDQ0FDP2Ng4v/3dH/jSV75OFEUA/Cue79Ha2kpHRztPpLm5GTECQK2VK5Zz5umn0dzUxMwZM3jxuS/ijNNO5bRTTubM009j7pw5AJSKJXbv7qWxoR6AxJYtWwDY29q165jS0w3A+Pg4/f39xFEEQOKFzz+bLRtWU+v8P/2OfC4HwN4OO/QQHnv4PrZsWM3j+fAH3w9Arbq6Ol732lfxsY98kCAVADBp85atfPmr36Curo6ZM6YD0NnRQVNTE5//4ld4wbkv5dBDD+ZHP/gO+VwOgEmjo2MMDg4SRzGjo2MMDw+j1gLwZOSyWX7yo+9x9+03sy+/+/XP6ezo4He//jl3334z+/LpT34cgKcqspZSqcSCBQtYvmwpDzz0MHfeeRdnnXUW+XwdW7ZsBeDZsmXLFh57bBUHHnggBxy4kkwmw/U33ICqAvBsOvXkk6mry/OXCy6kUi4D8HRt2rSZq6++hkMOPpgF8+cBkIjjmCuvvIoznnMWKw88hEm/+s3vACiWSrz+jW/mta9/I7/81a855rgTWHngIbzy1a9l69ZtACQ++anPcPqZz2PL5i18+CMfY+WBh3DKaWdy9z33ADDQP8DpZz6PlQceQuLwI49h1erVAEz61W9+x+FHHsP5F1zIC899MSsPPITDjjyGCy+8CFUFYNeu3bznve/nwIMPY+WBh1DrpptvAeCJFEslXv/GN7PywEP43ve+D8BPfvpzDjrkcFYeeAg33XwLAAP9A5x+5vNYeeAhTDrjOWdx1dXXoKoAJIZHRvjyV77GEUcew8oDDyHx+je+mWKpxK9+8ztWHngI737P+wC45NLLWHngISQ++anPAJDY07eHD3/4Yxx48GGsPPAQjjnuBH7z299TKZcBGOgf4PQzn8cnP/UZ1q5bx/POej4rDzyEt77tnQwODAKwavVqDj/yGFYeeAiJ0898HgP9AwBMiqKI3/3+Dxxz3AmsPPAQDj70CL7+zW9RKpcBSOzp28OHP/pxDj70CFYeeAiJ0898HgP9AwA8UyLCy156HhOFAn/+ywWoKgBRFPG97/+IlSuWcdihhwCwtyMOP4wf//B7TJs6FYDEQQcewB9+9ytaW1sB+G/S1dnJbTddx6pH7ueOW27g97/5BW1tbRx15OF87CMfBOAb3/ou111/AwB7ExFe9tLzmCgU+PNfLkBVAYiiiO99/0esXLGMww49BIC9HXH4Yfz4h99j2tSpACQOOvAA/vC7X9Ha2grA/nDrbXfwgx/9hPHxCV5w7ku5+JLLiOOYRx59jJ27dnPQQQcC8GQ1NNTz4Q++ny9/8XPUevWrXkF7exsf/8iH+PIXP0etN7/x9aTTaQD+mxVLJT744Y9z/oV/5atf+gIHHXQg69dv4NOf/QIf/fin2Je77rkXgCeSy+Xo6GjnX8lmMwDUampq5JSTT+KIww9jfHycF5/7Qs48/TROO+VkzjjtVI4/7lgymQwAW7ZsJZ/L4Qc+AIODg4yOjgFQa2xsnERdXR0Avbt7KRaLACSampq45B8XsWXDamqdfOIJAOzLL372I7ZsWM3jufv2m+np6QZgb/0DA9x19z188fOf4d47b+Gs5z0Hz/MAWLpkMZ/91MdJpVIAeJ7HkUccziX/uIjf/urnLFgwnyAIAHi2+b5PW1srHR3tPFm5XA6AJ2vJ4kX8828XcO+dt/LFz3+Gbdu28+rXvYlFyw7kQx/9BLt7ewGo9ZpXv5L6+noAEiLCc59zBul0mutvuAmASe97z7uYMqUHgH/l8MMOZdHCBQAkRIRjjzmKSrnMzt27Abju+htpamzk7LOeg4gAkPB9n9e8+hX4ngfAk9Hbu4cbb76FWrfcehvDQ8Ns3bqdBx96GFUF4Lrrb8TzPc590fMREQASnufx0hefi+d7XHf9jQBcd/2NeL7HuS96PiICQMLzPF764nPxfI/rrr8RgGfC2phUKkV7exsdHe08Ga2trXieB0Bi5YrlnHn6aTQ3NTFzxgxefO6LOOO0UzntlJM58/TTmDtnDgClYondu3tpbKgHILFlyxYAah1y8EFcd83l3HHLDXzz618BIHHM0Udx8EEH8s1vf5dCsQjA/qSq7Onr4/wL/8pZzz+XxcsO5CMf/xSHHHIQ11x5KR/50PvxPA+ASdlsBs/zAHg6ctksIgJAoVjkr3//J+ed+wIymTTvf++7ueivf+fhhx8B4JRTTuKTH/8Ir3rFy1GrvOsdb+NTn/woP/jetzjl5BMAqIUq1lq+8a3v8NyzX8iWrdvYsXMXzznzdD758Y8w6cADVpD45Mc/wqTnPfdMAP4bGICnw/d9Dli5gi99/jM8cM8dXHnZP5k/by7vfPf7+fkvf4OqApCYM3s2IgLAJN/zWLpkMdt37KAwUQAgsXjRInzPA+BfyWTSNDY2ADDJ9zxy2SwAidHRMSYmJliwYD4AtXzPY/asWQA8Gdlsht/+6mfcccsN1Lr79pu59qrLeGzVKj7y8U9SLpfp7x9gaGiIZUuXALC3Aw5YwdDQEP39AySGhoZYtnQJAHs74IAVDA0N0d8/AMDTdebpp3H37TeTuPG6qzhg5QoAEjNnTOc73/wal195Fb/41W9RVQD+3aI45pbbbufAA1aSr8vzpa98nXe/94NEUQRAYmR0hHKlzPTp0wFIRFHE1Ck95HM5ABL9A4Pcc+/9HHTQgcycMZ2mpkbe8e73sWt3LwBPxz333sdJp5zJEcecwOP5/g9+BMDennvmGdTX1wMwaefOXbzuDW9m+44dAEyqr6/n+OOO4d777ufjH/0wX/3S58llswAkRIT29ja+8a3v8JJXvJo9fX187gtf4sMf+yT19fV4ngHgXxERmpua6OhoZ1+am5sxnqG5uZmOjnb2paGhHoCnKxUELF6yhBtvvJHe3j2sXL6MXC4LQK377rufI486lpUHHkLi9W98M8VSCYAnY9Wq1VQqFRYvWkh3dzc9Pd08+uhjjIyOAvBsmjd/LkceeSR33HEXa9etB2Bf3v2e97HywENIHH7kMaxavRqAWtdcey0jo6O84uUvIZ3JAJC45977+OjHP8nu3bsBeDwPPPAg3//BjxgfnwDgkUce5ROf/BQTExMAJEZGRvjEpz/DVVdfA0B/fz/f//4PmZiYAODJKJfLfPkrX2Pjxk0AVMplfv7LX7Nr926qlQpf/+Y3ufOuu/nVL37Gfffcydvf9hYAPv2pT3LcsccA8O+ye/duPv2Zz7F6zRoAhoaGeMMb38z5F1xIqVwG4Kna07eHN7/1HVx1zTVYawEYH5/gO9/9Ht/7wY9QVQASDz/8MO969/vYvmMHAHfceScX/vWvAPwrqspPf/YLvvXt7zI+PgFAFEX88Y9/5pvf+g5RHFOtVPj8F77MVVddTRRFAPw7dHd18YH3vpvv//DHXHnVNQBcedU13Hn3PbzvPe8ik8kAsLcF8+excMF8ACbt2LGTL37pq3z045+i1l333Eviox//FLXOv/CvAPwnxXHMPy++lOed8yLmzZ3DD7/3Herr6/n1b3/Prbffzvve8y4ymQwAe+vu6uID73033//hj7nyqmsAuPKqa7jz7nt433veRSaTAWBvC+bPY+GC+QBM2rFjJ1/80lf56Mc/Ra277rmXxEc//ilqnX/hXwGYdM+993HSKWdyxDEnMOmkU87knnvv4/s/+BFHHHMCtZ57zgvZtWs3AAlV5a677+HM009j1cP38f73vosPfPhjvO2d7+GnP/8lSxYvYsb0aQA8GYODg5z7kldw6213APBkff6LXyEB8O/S3z/AF7/yNT768U+RuPyKKwF4sqI45nOf/xKXXHY53//uNzn9tFMA+G+xceMmCsUiS5cuZt36DZx06pncc+/9AEzasWMnU6dOIZ/LARDFMQ0N9XR2dAAw6ZZbb2PmjOk0NzVx2qmn8LNf/Jpf/uo3ADxd7//gRzjimBN4PM8954Xs2rUbgL0tWbyIS/5xES98/tlkMhkAJt155918/otfJYoiACZ5nscxRx/JC59/NiICwP+ytrZWXnzuC7n47xfyyAN38+Uvfo7Lr7iKl73iNezcuQuARDaboauzE4BarS0tzJwxgw0bNgCQyGYzzJw5A4Ano6W5mXQ6DcCkTCZDkAoASPT29jJjxnQaGhoAqNXZ2UFzSzMAT8bZz3sOd9xyA3t75MF7ePWrXs573vdBbr3tDgA2bNjAzBkzaG1pAaBWa2srs2fNYsOGDQBs2LCBmTNm0NrSAkCt1tZWZs+axYYNGwB4JjZt2szUKT1k0mkGBwfp6+vnXxkeGUFVAZgUxTG33HY7Bx6wknxdni995eu8+70fJIoiABIjoyOUK2WmT58OQCKKIqZO6SGfywHwRDKZDO951zu4/4GHuPqaawHYXz792S8wb9FyDjvyOL745a+ydOkS/n7RX1jz6AN846tfYt7cOYgIALWKpRLvePf7OOKYE3g6br3tDgASV19zLQAHrlwJwLx5c3jB88+iUg0BWLhgAWeefhrPP+d51NfXMXfObM48/TTOOO1Udu/uZWRkFIBt27fzjne/jxUHHc49997HKSefyLVXXsaSxQux1nLYIQdz5umnMWna1Kkkzjz9NCatXLEcgP8GBuDJ6t2zh2uuvY6RkVEAJnmex8IF8/nZT37AO972Fn7ys5+zcdMmAJ6IMR4A+1OhUADgmZo5YzrvfufbufOue9i8eQsACT/wAXgy/MAH4N8lm83Q0dFOor29jVQqBcCkFSuW85lPfZwf//RnPPzwIwA8kV27dvPcc17IEcecwBN59evexNjYOAB72717N489tpoTjj8W3/M44/RTuf3Ou7j/gYcASGzeshWA6dOnAvB4qtUqp516MnPmzKa+vp6f/PB7XPqPvzJt2lQAno5DDj6I6665nDtuuYHH8853vA2Af2Xd+g289BWvob29jS9+7tMA1Dr2mKNpampi1syZeJ4HwKRcNssPvvstbr/5el71ipcD8MXPf4Y7brmBC//yB1pbWwH4b1apVBgeHgbggBXLWfXYKpqam5g1exbNzc1EcYyqAvBMVSsVbrzpZrq6upg9ayZNjY0sXbqEzZu3sHbtOgASv/rN71h54CHUuunmWwB4Kozn8/KXvgSAv//jH1TDEICnanBwiCuvvoalSxazfPlyACbFUYiq0trWyic+/lGuu+YqHrz/Hl73mlcBUOuNb3g9d9x+C//8x9+YOmUK6zdsZNv27QAkyuUyW7du5Sc//iFXXXEpXV1d7OrtZWR0lLb2Nq68/BJuv+1mDjroQAAeT2dnJ3/4/W+48YZrWbhgAWNjY4yOjgIQhhFB4BOkAgCeqlw2yy9//lMevP8e3vWudwLwrne9kwfvv4fEccceA0BbextXXn4JD95/D4k7br+FY489mnK5TH//AADX33AjGzdu4sADV3LxP//OA/fdzYP338Mvf/5Tctksr3vNq3jw/nv47ne+BcDznvscHrz/HhKf/9xnALjlltvYsnkLhxx8MNdfexX33XMn3/zG1wiCgJtuupmhoWEAElu3bWfKlG6uu/pKvvH1rwKwYcNGojhm8aJF3Hn7LVx71RV0dXUBUGvX7t388+JLaG5u5g+//w0P3Hc3v/nVL8hkMtx6622MDA0TqxJWqwCcdtqp/P63v+beu+/gyssvoa29DYBny+mnncK73/kOPvLxT/Kjn/yMj3/qM7zlTa9nyeJFADxZE4UCd9x5FzfefAu1env3kLjx5luotW7degD+E4qlEhf99e8cc8IpvP9DH+U973oHP/jut2hqauS++x/gBz/6CR96/3tZsngRAI/n9NNO4d3vfAcf+fgn+dFPfsbHP/UZ3vKm17Nk8SIAnqyJQoE77ryLG2++hVq9vXtI3HjzLdRat249AJOaGhs5+ugjOf7YY5h09NFH0tTYyJw5szn+2GOodcThhxEEAQAJEeE973o7X/rCZ0mn07z21a/kqsv+yfbtO7j1ttt5/WtfRSaTAeDJiGPLzl27KFfKADxZIyMjJAD+XeI45q677uHGm28hMTA4SFNTEwBPhu95vP51r+HCv/yB55xxOiICwLx5c/nspz/Bl7/4OfblsEMOBuCJfP8HP+KIY07gX/nnJZcBsC+33X4Hc+fMYeqUKcyePYtly5by29/9gSiKACgUi6xes5bFixaRTqcB2Be1lmw2y0tfch4iwqmnnMTNN1zNO9/xNgCerm9+/SvcccsNPJ5L//FXenq6Adjb+Rf+lY9+/FPsy/d++GMmJib4yte/yUc//in25cabbgbg3+HW2+7giGNO4Mn6/g9+BMC/EsUxd951Nw8+9DAAterr63nxuS/k0n/+lUKxyM9/+WsAnggiGGMA2F+q1SphGALwTHiex8tf+hIWL17EpZddDkDCGAMiAPwrxhgQAeDfIYpjiqUS9fX1DA4O8bznn8uhRx7Lv/KWt72LYqkEwKTdu3fz2GOrOeH4Y/E9jzNOP5Xb77yL+x94CIDE5i1bAZg+fSoAT8fSJYt58bkv5Mc/+TmDg4MA7A/z5s7l61/9InfdfhMP3XcXX/r8Zzhg5Qp83wfg8XjGsGzpEo4/9hgmLV60kD17+pg/bx7HH3sMT6SlpRmAHTt28oMf/ZSXnPciMtkMAEYMb37j6znk4AMBmNTW1sbChQu47fY7iOOYX//297zpre/glltvA6BYLKFW+ebXvswBK1ewYvlyOjraKRSK7Nq9m66uLoZHRujr6ydRKpVJ9PX1kxgeGUFVAfhvYACerA0bNvHmt72Le+67D4C9iQgrViyjUCgyOjoGQGJiYgKAvW3ZsoV8Locf+AD8O7S3t9HS0sIDDzwEQK1yucymzVsAeDbU1ddRKZeZKBTIZjOk02nWr98IwN7Wr99IXV0djY0NZLMZ0uk069dvBGBv69dvpK6ujsbGBgD+nZ73nDM5/dRTeOiRRwF4Ig0N9bz33e/kkx//CE/kja9/LZlMBoC9PfjgwwAsWDAfgOXLl3HUkYfz+z/+iSiOUVVuueU2Zs2cSWtrKwCPZ8fOnTz88CN88lOf5aMf/xSJL37lawwODgLweO67/wEeefQxVBWAWvfcex8nnXImRxxzAo/n+z/4EQD/yrr165kzZxY//N536OjsAKDW4kULOWDlcn77uz8QRREAe3vo4Uf4ywUXIiK86z0f4Cc/+yVRFAFQa8OGDXR1dQHw3yIOI4rFEr7vMX36dLq6ujjwwANJp9MA9PX1USqXAUgcdNCB3H7bzTx4/z0kfvnzn5LLZgH4V/oGBli9Zg27d+/m1NOfwwEHHcrFF1+KqnLPPfcC8GxbMH8ehxx8MNdedz1r164FYG/f/c63ePD+e0jcefstLF60CIBJ11x7LVs2b+ElLzmPuro6ACYddthhvO+976ZaqfCFL36Zk045jRNOOpWrrr4GVQUgkclkOOGE48hmMrS3t9HZ1QnA3l7y4hdz2KGH0NnZyZWXX8J1V1/J1ClTAHiyXvzi81i6ZAmpVIp8XR6ARCqd5vTTTqVUKvOqV7+Ogw45nN/9/g+85c1v4szTTwXg2VIpl/nzX87njOecxcoDD+GII4/h5ptvBWDSY489BsCLX3we06dNRUQAeCoee+wxAF507gtoaWnB8zxWLFtGa2srURyj1gKQCIKAd7zt7bS2tXLySSfy4P338I2vfxXf8wB4IqOjo4yNjTE8PMwrXvkaDjjoUF7zujdQLpcBSGQzGT720Y9w4IErueqqq3nlq1/LwYcewYc+9FEGBwYBeLaICG943as55eST+No3vs2xxxzNq1/5cgCeioUL5nPlZf/kjltuoNbZz3sOiTtuuYFan/z4RwD4d1NVhoeG+cOf/sJZzz2Te+68hTe/8fX4vs999z/A6974Fp77nDN58XkvAuCJiAhveN2rOeXkk/jaN77Nsccczatf+XIAnoqFC+Zz5WX/5I5bbqDW2c97Dok7brmBWp/8+EcASDTU13HkkYfzuc98ki9/8XNM+uynP8G8eXM584zT+fIXP0etT338I6xcsZxMOgNAwvM8RASARFtbK83NTZx4wnEcdughAPyv27JlK8cdezQ3XX8Vd9xyA5M++fGPUKlUGBoeBuBfmTd3DgesXAHApP6BAa6+5louv/Iq9mX7jh0APJFTTjmJT378I/wrBx6wAoC9jY+Pc+NNt3DE4YeRyWTwPY/XvvqV3HHX3Tz8yKMA7Nixk7Xr1rFy5XIAHk+5XGbL1q389nd/4KMf/xSTLr/iSgAez9jYOFdedQ0TExMA7O39H/wIRxxzAo/nuee8kF27dgOwt3Xr1nPjzbewt8uvvIpNmzYzNDzMP/55CTfefAv7snPnLgD+HebOnc0nP/4RnqxTTjkJgH8ljiJ++vNf8uWvfoNCsQjA3trb25g1cyb9/QNEcQxAWA0pl8sA1CoVS+ze3Ut9fT0A/y5z585l0+bNDA4OAlBr585djI6OAfBM+YFPNptlbHycKI6pr69nx86djI+PA1BrfHycHTt30tXVBUB9fT07du5kfHwcgFrj4+Ps2LmTrq4uAJ6uwkSBnTt3MX/eXAASv/jZj9iyYTWP58MffD8Ae3vwwYcBWLBgPgDLly/jqCMP5/d//BNRHKOq3HLLbcyaOZPW1lYAng4R4SUvPpeenh7K5QoA+8MrXv4Snn/2WXR2dCAiAOxNVQnDEIBJ6XSaN7/x9Xz5i58j8fnPfZq21laWLV3Cd771Nb78xc+R+NhHPoiI8JLzXsSXv/g5Ji1etBCAQrHIAStXcPxxxwAwyfM8RASASb7n8aIXnMPv//gXXvyyV/GNb36H733nmzz3OWcAsHDBfH74/W9z8sknkkqlAEjs7u3FMx6tLc285W3v4tAjjyVx+ZVXkTj0yGNJvOVt76JYKgHw38AAPFkLF8xn1qyZ/OnP51MoFgGopaqsW7eefD5HY2MDAIlrrr2OwcFBACYNDAxy7/0PcMThh9Hc1ATAv0NbWxtHH3kEF/71b2zcuAmASTfceDN33nU3AM+UqnL77XdSV19Hc3MTU6dM4aADD+DKq65meGQEgEnDIyNcedXVHLByBZ0dHUydMoWDDjyAK6+6muGREQAmDY+McOVVV3PAyhV0dnQA8O/k+z5f/MJnedUrXgbAE6mrq+OkE47nzNNP44kcfdQRpFIBALXK5TIX/vXvHH/cMXR2dDA+Ps5VV1/Dxo2buPKqa3j44UfYsXMnV19zHccfdyz5XA6AZ9vd99zHF770VYqlEgC1Djn4IK675nLuuOUGHs873/E2AP6VM884jV/89Ee0t7cBsLdMJsNrXvVKrr/xRm646WYAau3cuYv3f+ijvPbVr6S7u4uPfOj9/O3v/+DVr3sj/f0DACQGBgZ5+JFHWblyOQD/baZNn0FrawuXXvIPXveaVwHwbHv4oYcZHBgEYG933303ExMTALzuNa/iwfvvodZxxx4DwFOVzmR44Qufz8REgS1btgLwVExMTHDZZZczc9ZMDj/scABq+b7Pq175Cm656Qauu+Yq3vLmNzE6OsqXvvwVtmzZAkCtOI554P77WbduHel0imwmA8CkpUuXICIAPNsmJiY4//wLOPLIw7nphmt58P57uOWmG3jLm99IOpMBYNLExARve8e7OfjQI7ju+hsAeCr++JcL+OrXvsGLXvh87r3nTi6/9GIOPuggACbNnj0bgPPPv4Bt23egqgA8nvHxcSrlMgCTZs+eDcBFF/6NoaEh4jjm3vvuo6+vj1wuixf4ACRaW1uZPm0qAE9VNpMhnU7R1dXFH37/G+67504evP8eEldefglt7W0AzJgxnV/94ufce/cd/OZXv2DB/Plcfe21/OJXvwbg2aKq3HDTzVx++ZVMmdLDZZdfyY9/+gvK5TIA/yljY+MUikUAni2qyl//9g8efPhh/vHX8/nIhz5Ac1MTqso1113PK179OjzP58XnvhDf9wF4IqrKDTfdzOWXX8mUKT1cdvmV/Pinv6BcLgPwn/Dyl72EH3z3W+SyWQCejNbWVi78yx84+qgjANhbFEV86Stf55FHH+N973kXmUwGgP9169dvYMb06aTTaQBqRVHExESB7q5OAJ6qLVu28tWvfYvPf/Er7Mv9DzwEwBNZuGABZ55+Gv/KtKlTAdjb/Q88yPYdOznxhOOI45gNGzdy8SWXMTY2xq9/+3uiOOaKK68in8+zbOkSAJ5t5XKZz33xy9x59z0A7O2bX/8Kd9xyA4/n0n/8lZ6ebgD29smPf4Q7brmBWrfccA2nnHwSK5Yv4+Mf/RDNzU18/Stf4o5bbmBvL3/ZSwCYFEURF19yGR/9+Kf4018uoFwuA/B0dHV2cubpp/FkLVywAIB/JZ1Oc/xxx3LPvfdx7733AbC34aFhdu/upb29Dd/zAIjimCuuvBpVBWDSY6tWsWv3bk44/lgA/l2OPuoIJiYm+PP5FxLHMQCJ8fFxfvGr36KqADxTO3fuYv36DXR2dOB7HiedeAJ7evdwx513AVDrjjvvYk/vHo45+kgATjrxBPb07uGOO+8CoNYdd97Fnt49HHP0kQA8Xdu2b2fnrt3MmzcXgKerXC5z4V//zvHHHUNnRwfj4+NcdfU1bNy4iSuvuoaHH36EHTt3cvU113H8cceSz+UAeDzr12/g05/9Ah/9+Kf47e/+AECt+fPm8ptf/pQpU3oAeCKVSoXhkRFUFYD/pLGxcV704pfz17/9A4B9ueHGm7j40sv4wPveQ3NTEwCJuro6pk+fztve9V5WrV4DQK05c2bz2U99nEwmA8C/ctihh7ByxTKGR0a44rJ/cMpJJyIiADyexx5bRVNTIx0dHQB8+IPvZ8uG1dT68AffD8B/EwPwZLW1tfKB976bm26+lTe86W3cfc999PX1k1i7bj0f/fin+No3vs1zzjyDmTNnApAwxvDZL3yZwcFBALbv2MFHP/4phoeGecXLX4qIAPDv4Hse73rH22hqbOQ5Z7+Q93/oo/ziV7/hxS97Fd/89vd44fPPBuDJUIXh4WH6+vqZtHbdev7xz0t41WvfwK9/+3te9ILnM2f2bDKZDO96+1vZvGULH/rwx9m+YwcA23fs4EMf/jibt2zh7W95E+l0mkwmw7ve/lY2b9nChz78cbbv2AHA9h07+NCHP87mLVt4+1veRDqdBiDh+z7bd+xg3br1DI+MoKoAPJG77rmXj378UyQ+/dkvsH79BgD25nseAImJ8QnaWltJp9MAPJtuuPFmbr3tdtasXcvRx5/MsgMO5ZOf/jxHHnE4ixYu4B//vITrrr+RarXKSSceD0AiimOKpRIAtQ475GC+/MXPUevjH/kQra2tADyeiYkJWlqaSafTANS65977OOmUMznimBN4PN//wY8A+FeMGDzPA2BvExMT3Hvf/Rxx+KE858wz+NKXv8bOnbsASIyMjPKBD3+MhfPnc/bzngvA7Nmz+OPvfk0YRlx9zbV88+tfIXHV1dcA0Nbayre/+30++fGP8s2vfwWA/alcrRBGIQBPxn333c+RRx3LygMPIXH6mc9joH8AgCeiqtx5991kMhn+9Mff8eD995C4+cbrWbJ4Mes3bGTb9u0A/Cu/+s3vWHngIbzs5a+iXC5z3333c+RRx3L6mc9joH8AgFqHHXoIS5csBuCpuu2223nk0cc4/dRTaG1tAaDWr37zO1YeeAiJk045jZ/89GdYa0mnM6TSaQAS5XKZl738VRx0yOG8/Z3vYXx8glNOOYVp06cD8K/cdPMtrDzwEI486ljuu+9+yuUyL3v5q1h54CH86je/A+BfCaOIQrHIzTffytHHnsDKAw8hccJJp/KPf1yMqgKQePjhh7n99tuJooiLLvob5XIZgCerMDEBwPd/8CMOPuRwznzuWdx7330ATDruuONoa2/j/vsf5Kyzn88BBx3KygMP4fVvfDPFUgmAhO8ZAG686WYOO/IYVh54CJ/81GcAOPKII2huauKee+/lxJNP46BDDucjH/sE1lrOOfssmpuaAPhXfvWb37HywEM4+bQz6O3tJXHyaWew8sBDuOnmW5g2fTqnnHIKvb29vOKVr+GgQw5n5YGHkPjkpz4DwED/AKef+TxWHngIBx96BK953RtYu24dAI2NDQA8G3b39vKWt7+Lt77tXXzg/e/hpuuv5uc/+SE//+Wvec7ZL2TV6jWoKgD/TqtXr+GYE07mpFPOZPuOHQA8U2qVH/3kZ3zk459ifHwCgMTExASf+dwXefNb38kbXvdaXnzeC3nla17Pffc/AMDj2d3by1ve/i7e+rZ38YH3v4ebrr+an//kh/z8l7/mOWe/kFWr16CqAPwviaKIH/zoJ1x40d/46pe+wJLFiwCYlM/lOP9Pv+Otb34DAP8rRkfHWL1mLStXLAdgb2Pj4+zZ00dbWxsAT9UhBx/Edddczh233MC+nP285wDw7zI+Ps7PfvEr1Fo++enPsmDJSk4+7bls2LiRV73yZdx+x13cccddXHLZFZx2ysl0dnQAkCiXy1SrIQCTsrkc73z7W/nyFz9HrTPPOB2Ax1OulAn8gMaGBgD29v4PfoQjjjmBx/Pcc17Irl27AfhXJiYmeP+HPsrV11zL5z79Cd7wutfwpje8jte8/k38+Cc/p1wuA7AvqsqXvvJ1/v7Pizns0EO45trr+No3vo2qAvDf5AXnnMURhx/KW97+Ln78k5+zc+cu+vr62d3byyWXXs7LX/U6RkZHOPdFLwAg4Xsed919D7/6ze+Ioog4jrnl1tv5yMc/xXHHHs1hhx4CwL/L0iWLed973sVPfvoLnnfOi/jhj3/KZz//JY4/+Qxmz5pJV2cnAE9GqVSmr6+fSbt7e7nl1tv4/g9/zAvOfSme7/GKl78EgCMOP5RzX/QCPvaJT/P3f15MFEUk/v7Pi/nYJz7NuS96AQcfdCAARxx+KOe+6AV87BOf5u//vJgoikj8/Z8X87FPfJpzX/QCDj7oQAASvudhjMd99z/A7t5eKpUKAE/k/gcepKW5iTlzZgPwdN1w483cetvtrFm7lqOPP5llBxzKJz/9eY484nAWLVzAP/55CdddfyPVapWTTjwegEQUxxRLJQD+HYqlEm966zs54OAjuPSyKwD4TxodG6V/YIDOzk4A9rZz5y6+9OWv8c63v5WjjzoCgEkiwhte92qOOPwwPvrxTzE8MgLAJN/zyOfzADwZqvDud76dgYEBLrv8SuI4BuDxRHHMLbfdzsoVy6mvrwPgf4UBeCpOP+0Ufvi9b7N12zbOe+krOPTIY0mcduZZXH3t9Xz205/gs5/6OL7nAZA4+3nP5ZCDD+Kwo45n5txFHHP8Kaxbv4Ff//KnzJ83F4B/pylTevjbhX/m/e99F6tWr+FPf7mAww87hH/89S9MnToF3/MxxgDwRMrlMq967Rs59MhjmXTamWfxnvd/iD17+vj+d7/JRz/8AUQEgBUrlvP73/ySdes3cMzxpzBz7iKOOf4U1q3fwM9/8kNWrFgOQGLFiuX8/je/ZN36DRxz/CnMnLuIY44/hXXrN/Dzn/yQFSuWAzDp1a96Bdlslue/6CW85W3volgqAfBsUlXuf+BB6uvrCFIBALX6+wf44le+xkc//imeyPd/+GOKxSIAtYaHh6mvr6O1tZUPvO/d3Hvnrdx/92184mMf5oPvfy+LFy/ihz/+Keec/TzmzZ0DQKIwUWDnzl3MnTsXgEnbd+zg8iuvotZ1N9xIYaIAQKJYKhHFMQCJcrnMI48+RmdHB77nAVBrxfJl/OVPv+Off72Ax/P6170GgKcqjmIeePAh3v/Bj7D8wMP445/OR0R477veAcCHPvpxxsfHKRQKvP1d76FQKPCJj3+YIAgASLS3t/Gn3/+al7z4XABuve0OvvXdH/Dud76duXNm8+BDj/Cmt76d/v4BAPansbExChMFAGr5xpDNZtm5cxfFiQIAz0R/fz/33HMfc2bPZuqUqQAkGhrqmT9/LuVymYcffgSAZ1tdXR3Pec6ZADwVlXKZf158KR0dHTzvec8F4F8xxnD00Ufxkx/9gCk9PQBMEhEA2tvb+fCHPsAH3/cefM8D4D+hqbGR5z73uQDUGh4e5otf/gqPPPIoAInly5dz5JFH4vs+L3rRC8hkMgA8Weed90IOPuggAIwxHH30UTzvuc8BYNL0aVP55c9+yjHHHIXv+wDsy2GHHcbrX/dafN8HoNacObP58Y9/wLJlSwFIdHd385UvfYGXv+ylADwbfM/j/e97D697zauor68D4Mlob2/nwx/6AK999asAeCZ27+7l81/8Csccfwq9vXu44rJ/8rrXvArf8zjpxOO55spLmDtnNs856wW86S3vYNOmzQD8uzQ1N9HW1kbvnj1s3LgJgGdiYmKCgYEBbrr5Fn78w+/y4nNfSLlc5oIL/8rhR5/A1ddexx9++0ve95538v73vIvXvvqVvO6Nb+Ghhx4GoNbu3b18/otf4ZjjT6G3dw9XXPZPXveaV+F7HiedeDzXXHkJc+fM5jlnvYA3veUdbNq0GYD/BSMjo7zj3e/jez/4MV/50uc5/bRTAHgiqGKtBWBvv/3dH/joxz9Frd/+7g/09w/wxa98jY9+/FPUuuueewH4d9i4aRODQ0MsXboYgL1t3LiZKI6YPn0qAPvD5VdcyUc//in+lbvuuReAWmEUMTIySkdHO4ccfDB/u/DPbFjzCH/47a9477vewXvf9XauufY6hoeGecmLz0VEAEjs3LmLdDpFZ0cHAImwGnLrbXdw+ZVXUWvN2rUAJKrVkHK5DMCkzZu3UCqXaG5uAmBvn/rEx/jnXy/g8fz2lz+js6MDgMdTLJX41W9+x+FHn8Att9zGT374PVasWI6I8IbXvYaf/uj7/PAnP+PEU8/kkksvJ4oiAGoVi0W2bN3K+97zLs45+3l89tOf4NHHHmNwcAiAp6JSqdDX189TUSwWAXgy6uvr+c43v85zzjyDr37jWxx13EkceuSxHHH0CbzzPe9n5swZ/POvF7Bk8SIAEkEq4GMf+RAPPPgQcxcuY86CpbzyNa/nwJUr+ebXvkImkwHg30VEeMPrXsPfL/oLs2fP4g9/+gsbN23mxz/4Dm950xsACAIfgH/l8iuv4tAjj2XSEUefwCtf8wZ+/JOf89wzT+fiv1/I3DlzAPB9n09/8mO88uUv473v/zBzFy4j8d73f5gXn/siPvmJj+L7PgC+7/PpT36MV778Zbz3/R9m7sJlJN77/g/z4nNfxCc/8VF83wcgMW/eXF71ypfx05/9kiOOPoFbbrsdgMczPDLC3/7+T55z5um0NDcDkBgdHaOvr5/HUywWAag1PDxMfX0dra2tfOB97+beO2/l/rtv4xMf+zAffP97Wbx4ET/88U855+znMW/uHAAShYkCO3fuYu7cuQBMmjdvLp/99Cf48hc/x6tf9QoAHo+qEsUxAHtLpVJMnToFgFtvux2AZ8vI8AgAjyeOY/558aWEYcj06VMBqDU+Ps6HPvpxFi1cyCtf/lJEhEKxSF9fP5u3bOXqa67jF7/6LcPDwzz8yKN87evfIooiAJ6sSqXCTTffwqtf9yaOPv5kcrksX/ni5/nWt7/Hl77ydcrlMgD7snv3bh586GGOOeYoxBgAisUifX391CoWiwD8NzEAT4WIcMbpp3L7zdfz8P13c/ftN5N44N47uO+uW3n1K1+O7/sATEKEV778pTx0/13cffvN3HfXrVx/zeWsWL4MgERHRzu333w9b33zGwDY21vf/AZuv/l6OjraATj5xBNY/cgDLFu6BIBa3/z6Vzj/T78jn8uhqgyPjGCt8sbXv5YrLvk71199Oe999zupq6tj06bNdHd3kc1lAXg8J594Als2rObxXH3FJTz3zDPwPA+ASSuWL+PG667kgXvv4O7bb+aBe+/gxuuu5LBDDwGg1orly7jxuit54N47uPv2m3ng3ju48borOezQQwCotXjRQq676jK2bFjN+X/6HflcDoAnctghB/PlL36OxOc+80mOPPJwMukMAJMmJib45re/x0c//ile/6a38vs//pnjjzuWXDYLwLPpZS99MQ/ddxc//sF3ef7ZZ9HW1gpAYuWKZVxy6WU0NDTwxje8lvHxCb769W/y0Y9/ije8+W2sWrWaA1YuB2DS/Q88xOe/+BVqffu732doeBiARYsWcsWVV3PkMSdwxDEnkDjy2JO4/fY7OOnEEwDYsWMnn/38l/joxz/F5Vdcydat2/jBj37Ct7/7fR7PjTfdzPr1G/j0Z7/ARz/+Kc6/8K8APJ5KpcKVV13Dnr4+3vqOdzM0PMyFf/kD3/jal/A8jylTevjaV77Io4+t4q577iWfz/Oxj3yIX/7sx3R3dQFQy/d9wjDkxz/5Oa953Rt55ctfwumnnUJ9fT0/+O43CYKA97z/g4yPjwNQq1Kp8NOf/5KPfvxTJD71mc9TKpXIZjMAPJsWL1rEnbffwute8yoAJqXSaX7wve9w5eWX0NbexuJFi7jz9lt48P57qHXl5ZfQ1t4GwKTXveZVPHj/PbzuNa8CINHR0cEVl13MH//wWxoa6gGY9OlPfZIH77+Hl7z4PAD+lde95lU8eP897O3Kyy+hrb2N4449hgfvv4fXveZVACRe8uLzePD+e7jz9ltYvGgRAJ//3Gd48P57OO7YYwDY2/0PPsSdd93FCccfR093NwB7e91rXsWD99/DpPvvvYsffO87zJ49C4BJmUyGP/7htzx4/z1cc9XlvPQlLyadyQCQ+PznPsOD99/DccceA8Dejjv2GB68/x725XWveRUAr3vNq3jw/nt43WteBUAum+WXP/8pd95+C4sXLeK+++/nBz/4IQceuJJbb76BB++/hztuv4Vjjz2aMAwZHx8DIFFXV8ePfvBd7r37Dk468QQA9va617yKB++/h9e95lUA1Ors6OQXP/8JD95/D/ffexc/+N53+PznPsOD99/DccceA0BixozpfP+73+Heu+/gwfvvIfHLn/+UXDYLQML3fd75jrdx79138OD995D4/Oc+A0Bi4YIF/P63v+bB++8hccVlF3P66afheR4Abe1tXHn5JSTa2tsA2NvrXvMqHrz/HvbluGOPASCbyfCud72TW266gQfvv4dJn//cZwBoa2/jyssv4cH772HSNVddzktf8mLSmQwAT1WxVOKCC//Kmc97PkcccwJXXHU13/nW1/jbhX9m3tw5AEzq7uriJz/8Hn+/6C8MDA5y0mnP4ewXnMf1N9xEHMcAPJu6u7r42wV/5uijjqC1tRWAZ6JarbJk6RIuv/jvHHzQgXzuC19m5cFH8LFPfoY3vv61XHPFJRx5xOGICL7v8463vYUzTz+Nt7zj3axZu45iqcQFF/6VM5/3fI445gSuuOpqvvOtr/G3C//MvLlzAJjU3dXFT374Pf5+0V8YGBzkpNOew9kvOI/rb7iJOI4B+G901933cOyJp/DQw4/w5z/8hhe98PmICAB727RpM5/89Of46Mc/xQc+/DEeeOBBpk7pAeBfmTplCi96wTnkslkAnopiqcT3f/hjPvrxT5H4xre+S6FQwPc8AB5PFMecf8FFHHjASmbOnAlALVXl6muuZdrUqbS2tgLwbOjds4fLr7yKSy69nPUbNuL7PgD/Di3NzVx28d+48rJ/8sH3v4fly5bi+z4A9fX1tLa28qc/n89b3/JG5s+by4033cxHP/4p3v/Bj/CJT3+OpUsW09jYAECiVC7x81/+ms9/8SvUuuaa6wDo7uoin8vx6te+kSOOOYFJr3/T21i2dAlTp0wB4PwL/8pHP/4pvviVr9HfP8A//nkx3/7u93k8P/n5LxkaHua3v/sDH/34p/js57/Ejh07ieKYCy78K2c9/1wWLzuQr33j27z5ja/j5huu5sgjDgcgISKcdOLx3HnrDTz3zDN47wc+zPzFK3jHu97Hffc/AEDC930SmzdvIY5jHnzwYerr66mrywPwVNxy2+0ceuSxPBXf/+GPAXiy2tvb+MZXv8SGNY9w7523cvftN5NY+9iD/PZXP2PWrJkA1GpoqOf73/kmD9x7B3fffjMP3383P/z+t2lqagQgcfKJJ7D6kQdYtnQJALU6Otq5/ebreeub3wBAPpfj/D/9jm9+/SsA1Fq2dAmrH3mAk088AYBKpcLg4BBLlyzmB9/9FnfccgO/+/XPOfSQgxkYHGR0bJSZM2cA8HjyuRzn/+l3bNmwmn1Z9cj9fOVLn6e7qwuASZlMho995IOsfexB7r79ZhJrH3uQz3zq4+SyWQAmZTIZPvaRD7L2sQe5+/abSax97EE+86mPk8tmAZjk+z4f/sD72LTuMbZsWM3JJ54AwOO56K9/Z8fOXZx5xukATHr/Bz/CoUcey+P5/g9/DECtl730xTx03138+Aff5flnn0VbWysAiZUrlnHJpZfR0NDAG9/wWsbHJ/jq17/JRz/+Kd7w5rexatVqDli5HIDEKSefwHvf/Q7S6TQAJ594ArfffD0dHe0AJP76t3/w0Y9/isT7P/gRrr7mWurr6wGo5XseX/zcp3n7W9/MzJkzAXimGhrqWbRwAR/48MeYOXcRj2fOgqV889vf4+znPZdpU6cCMCkMQz700U9w2+13cv2NN7HsgEOZOXcRS5YfxKFHHssLz3sZ3/7eD9i0eTOHHHwwH/3wB/j7Py/h/AsuAuBf2bRpMzfefCvf+d4PePPb3sWUKT385Y+/Zc7s2Zxx+qn87Cc/5E9/OZ83vuXtTExMUCyV+NNfLuBPfz6fhx95hMaGei697EpyuRwHrFgBQOL7P/wxhx55LLW+/8MfA/DfxAA8XQ0N9XR0tJNobmpCRAB4PPlcjo6OdlpbW/E8D4B/NxHhu9/7IS99xasZHhkBYNKOHTu55977WbRwAflcDoB/BxGhuamJjo52mpuaEBEA9kVEaG5qoqOjneamJkQEgGfq05/8OAmARC6b5Qff/RZHH3UEAJMy2SwtLc0AdHZ08N1vfZ3XvvqVANRqqK9j5YrlfOrjH+HLX/wcT+R973kX8+fNIwgCAJ6MOLZMmzqVb33ty3R3dZFOp2hqagJgwYL5/OkPv+GwQw8BINFQX8erX/ly7rjlBmpdccnfOfigAwmCgJe99MV87ctf4KQTjuf4Y48h8aY3vI5L/nERRx91BAB1dXUcecRhHHPMUbz1LW/kC5//NCeecBzHHHMUj+etb3kjX/j8pznxhOM45pijWDB/HgCTMukMU3p68DwDQDqd5ugjj+C3v/oZqx+5n1//4qccdOABeJ4HQOKQgw/iH3+9gKOPPAKAJYsX0d7eBoDnGab09JBJZwBIrF23nksvv4LvfOvrvPudb8f3fQDq6+v54fe+w5FHHE65XAGgVjqdpqmpCYDEwgXz+dqXv8ic2bMBeDqMCAAueyqiOOYf/7yYfD7HuS96ISICwP+yKIpRVdKpNFEcA7Cndw9bt2xlzpzZLFq0CACX7Q9GBIB9SQUBjzz6GIsXL+Iffz2fW264hueeeQae5wGwNxFh5Yrl/O3CP3P1FZcwd85sNm7ahDEGgEQQBEydMoUgCADYl6amJhIAj0dVuenmWxARZs+eBcAzcewxR/O3C/7ErFkzaWpspKO9nS989lM8/MDdvPudb6Ourg6ASb7v87GPfJD3vOsdzJ0zm1QQ8Mijj7F48SL+8dfzueWGa3jumWfgeR4AexMRVq5Yzt8u/DNXX3EJc+fMZuOmTRhjAEgEQcDUKVMIggCAfWlqaiIB8O+2eNFCvvi5z3DNFZdw2KGHAPB46urqeGzVam68+RZ27+7lIx/+AKecfCIACc8zTOnp4c1vfANf/uLneLJOO+VkmpqaANiXXDZLR0cH4+MT3Hb7nfT19/PpT36chQsXAPB4fM/jBc8/m9e95lX4ngdArTAMmTljBi998bnkczkAEp5nmNLTQyadAeDxZNIZ2tvbEBEAJg0PDfPt73yfL33166TTaV776lcCsDfPM0zp6eEl572IL3/xc/wrp51yMk1NTQA8GaqKH/i85tWv5LWvfiUAHR0dAKRSKd765jfwra9/hXQ6DYDnGebNncuffv9r7rjlBmp9/KMfoqmpiba2Vn7yo+/xyle8jOOPPYbEaaeczHe//XW++62vk8lkAFgwfx7HHHMUp516Mt/99td56UvO45hjjuLxnHbqyXz321/npS85j2OOOYojjziMuro6fM9jZHSUpUuX8PeL/sKjD97DO9/+Vurq6gDYW11dHR/7yAd5+IG7+f53v8n4xARBEACQSKfTfOgD7+VHP/kZcxYs5bs/+BHvf++7yWQyADwVJ594Als2rOap+OLnPs2Unh48zwDwZPm+T1tbKx0d7STS6TQAj0dEaG5qoqOjnYaGegD+E7bv2MHJpz+Hf/zzEgAmqSq33Hob6XSamTOmA/Dvkk6n6ehoJ5FOpwF4POl0mo6OdhLpdBqAZ0JVOWDlCj7wvnczb+4cACb94mc/YsuG1TyeD3/w/QA8WXFsmTZ1Kt/62pfp7uoinU7R1NQEwIIF8/nTH37DYYceAkBi7pw5HH7YofieB8C+TJs2FYBEOp3mda95NW9/65sB2NvmLVu5+ZZbOfqoIwB4pjKZDD/90fe54M+/50c/+A6P5xc/+xF33X4TH//ohxARACYFQcD73/sufvSD73D+H3/L3bffzH133crGtY+yZcNq7r/7Nq645O987ctf4C1vej1vfP1r+cRHP8SsWTNRVQBqZdIZpvT04HkGgLa2Nj7ywfdx0/VX8dhD9/Klz3+GeXPnICIAnHjCcVzyj4t49ateQV1dHalUikcfW8Xv//BnXvri83jec8/kuGOP5p1vewttba2ICO3tbXzxc59my4bV1Pri5z5Ne3sbIgLAfwMD8P/duS96Adt37OBt73gPN918C7t7e7nsiit53RvfgucZ3vj61wLw/1lDQz0JgCfiex6vffUr+fIXP0firOc9B9/3Aaj18pe9hAv/8gdaW1sBeCILF8znwr/8gYUL5gPwZDQ1NfKVL32eFSuWA5BOp3nzG1/Pl7/4Ob7w2U9x6CEHIyIAJF7+spfwyY9/BIBara2t/OaXP2XhgvnkslnOO/eFfPmLn2PSW970ehYtWoiIANDU1MgpJ5/EmaefxtO1csVyACYdfdQRXPiXP9Da2gpA4pyzn8dxxx5DOp0GYF9mzZxBJpMBoFZraysX/uUPHH3UEQAkVixfxmUX/43nPucMRASASU1Njbz9rW+mvb0NgL29+NwX8uUvfo5Jp55yEiICwNNhPAOAy54K3/P46pe/yC033cDcuXMA+F93yMEH8YlPfIwtW7dx/Akns/LAQ3jpy17BQQcdyM9+/CNaWloAcNn+YDwDwL74vs/nP/spvvHVL7FyxXI8zwPgXxER5s2dwze//hXe+PrXIiIAJBYumM+Ff/kDCxfMB2BfPvnxj5AAeDyPPPoYP/rJz/johz9IPpcD4JkQETzPA0BEeOtb3siLXvh8ctksAPtSX1/Pi899Ib7vk/j8Zz/FN776JVauWI7neQD8KyLCvLlz+ObXv8IbX/9aRASAxMIF87nwL39g4YL5AOzLJz/+ERIAT1U+l+P8P/2Ot775DQD8K/X19TzvuWdSV1cHwBPp6Gjnbxf+mTtuuYF//PV83vC615DJZABItLa2cuFf/sDRRx0BwJP1yY9/hATA43nxuS/kB9/7FjffcDVXXPJ3Xvj8sxERAJ7IYYcewgErVwCwt1Qqxete+yrOOft5AExqbW3lwr/8gaOPOgKAx3P0UUfwg+9+i1w2C8CkRYsWcs2Vl3LHLTdw4V/+wMKFCwDYW2trKxf+5Q+8/GUvAeBf+eTHP0IC4MkQEU456UQ+8bEP4/s+AIsXLeTLX/wcibe/9c3U1dUBkGhtbeU3v/wpCxfMB6DWy1/2Ej758Y8AsHjRQj764Q/w5S9+jsRnPvVxnnPG6dTV1QGQWLliOWeefhpP1yknn0RTUyMAb3rD6/jS5z/DAStX4Ps+AP9KLpvlOWeczm9/9TOWL1sKwKS5c+Zw5WX/ZMuG1Vx31WUsXrQQgP+El7/sJVz4lz/Q2toKwP83M2fO5DlnnsEnP/M5fvjjn7J5y1bWrlvPZz73Rb717e/xlje9kTmzZwPw/5GIcPBBB/LSF5+LiADQ0dHO7Tdfz8knngDA43nrm9/A+X/6HflcDoB/pampka986fOsWLEcgHQ6zZvf+Hq+/MXP8YXPfopDDzkYEQHgyTr0kIP58hc/x6QPvv89tLe3AVCrUCjwqc98jhe98PksXbIYgGeD7/scesjBnHn6aTyek088gc6ODkQEgL3NnTOHM08/jRUrltPR0U5rayue5wGwNxHhFS9/KUcecTgiAkCto486ggv/8gdaW1sBaGio59wXvYAZ06fjeR4Ae5s7Zw4nn3gCAL7n8aXPf4abb7iaT33io9TX17N40ULOOft5AOSyWX7w3W/x8pe9BIBaL3/ZS/jBd79FLpsF4L+BAfh38TzDlJ4eGurrANhflixexF8v+DPZbIbXv+ltHHH0CXzwQx/jwANW8qc//IYpU3oAcJnLXPbvEPg+AC7bH3LZLL/8+U+58/ZbWLxoEQD7i+d5vPD553DFZRfz4P33kLjj9lv41Cc/QWtbKwAu218C3wfgf82ypUu47OK/sXjRQgBc5jKXucxlz4ZMOsOM6dMJggCA/cH3PD75sQ/z4Q++nz/95QJOOPl0TjvzLO648y6+8+2v88bXvwYRAcBl/+vy+Ty//uXPePUrX46IAOAyVxiAf5fW1lYu/MsfePnLXgLA/jRv7hx+9fOfsGHNI2zZsJpVj9zPV770ebq7ugBwmctc9u+STgX4ngeAy1zmsv9WvueRTgUA/K8RETzPA8BlLnOZy1z2bDn6qCO48rJ/snDBfAD2l0wmw2te9Qpuu+k6tmxYTeLqKy7huWeeged5ALjs/wvf8wBwmWsMgMtc5jKX/SdkMymMCAAuc5nL/tsYEbKZFAAuc5nLXOYyl7nMZS5z2f5mAFzmMpe57D/B8zzyuQy+5wHgMpe57L+F73nkcxk8zwPAZS5zmctc5jKXucxlLtvfDIDLXOYyl/2neJ5HXT5LNpPG9z2MCAAuc5nL/tOMCL7vkc2kqctn8TwPAJe5zGUuc5nLXOYyl7nsv4EBcJnLXOay/7R0KqAul6WhPk9TQx0uc5nL/tMa6vPU5bKkUwEALnOZy1zmMpe5zGUuc9l/EwPgMpe5zGUuc5nLXOYyl7nMZS5zmctc5jKX/bcxAC5zmctc5jKXucxlLnOZy1zmMpe5zGUuc9l/GwPgMpe5zGUuc5nLXOYyl7nMZS5zmctc5jKX/bcxAC5zmctc5jKXucxlLnOZy1zmMpe5zGUuc9l/GwPgMpe5zGUuc5nLXOYyl7nMZS5zmctc5jKX/bcxAC5zmctc5jKXucxlLnOZy1zmMpe5zGUuc9l/GwPwdFWqIRPFEmPjBUbGJnCZy56qsfECE8USlWoIgMtc5jKXucxlLnOZy1zmMpe5zGUuc9kkA/BUxXHMRKFEqVwhimKsKgAuc9lTZVWJophSucJEoUQcxwC4zGUuc5nLXOYyl7nMZS5zmctc5jKXGYCnIo5jCsUyURwD4DKXPVuiOKZQLBPHMQBPRxRFrF69hiiKAHiqJiYm6OvrB2BvhWKR4ZERVBWAp2rDxo3cedfdRHEMwJOhqgyPjFAoFgFIRFHE0PAwcRwD8EysWbuOO++6myiOAXiyoihid28vhWIRgFojI6Ns37GDKIoA+P+iXC5z400307tnDwBPVhzHDA4OUigWAXg2bNi4kTvvupsojgGY9OBDD5MAiOIYgH1RVYZHRigUiwA824qlErfcehu9e/YA8GRFUcTu3l4KxSIAtUZGRtm+YwdRFAHwVI2MjLJ58xaiKALg2VQoFhkeGUFVAXCZy1zmMpe5zGUuc5nLXPZUGICnolSuYlUBcJnLnm1WlVK5CsDT8dhjq3jJK17N+RdcBMBTde11N/Dcc17Izp27iOOY0dExVBWA3/3+T7zlbe+iWCoB8FRdc+0NfPu7P6BSqQDwZBRLJd7ytnfxu9//CYDE6jVrefmrXsfg4BAAk4qlEn//58W8/Z3vZXdvLwD/yp49e3j7u97Hxo2bAHiydu3ezQvPexkPPPAQALVuvOlmXveGtzA2Pg7AvuzYsZPPfv5LfPTjn+Lx3HHnXXz169/kox//FHs7/8K/AjCpUqnw05//ko9+/FM8Fedf+FcA9jY0NMTb3vEe/nz+hQAkxsbG+dgnP8Ojj60CILF9xw6OP+k0rrv+RgD2ZXBwiOc9/1x+9/s/AfBsuObaG/j2d39ApVIBYNLv//AnEjffcivHnnAKDz30MAB7K5ZKvOVt7+J3v/8TAIkoihgYGKSvr5/HMzY2DsC/oqr84Ec/5fNf+ApRFAHwZOzavZsXnvcyHnjgIQBq3XjTzbzuDW9hbHwcgKfq8iuu5A1veTsjI6MAPJt+9/s/8Za3vYtiqQTA3s6/8K989OOf4vH89Oe/5MqrruGjH/8Ue/vs57/Ejh07AZi0avUaPvrxT/FUfPbzX2LHjp0AuMxlLnOZy1zmMpe5zGX/LQzAk1WphkRxDIDLXPbvEsUxlWoIwFO1fPky3vrmN/H9H/6ELVu3AfBklctl/vaPizns0EPo7Opk565dnHLGc7np5lsA+G9j1bKnr4/zL/wrZz3/XBYvO5DPf/GrzJo1E7UKQKJcLnPjTTdz+ZVXsbe+vn58z+Nnv/gVl195FfvSu2cPALW2bdsBwPTpUwGYpKrcevsdzJ07h4aGBgD2ZaJQ4I477+LGm2/hwr/+nX9efCmXX3kV51/4V2648WZuvPkWevfs4d77HuDGm2+h1oV//Tt3330PAJOiOOb6G26isbGBY445ikMPPZi77rmXxsYGjjnmKBIbN20iccwxR5HYuGkTd999DwB7a2lp4cwzTuM73/0B69ZvAGBvqsoFF/6NxsZGDjxwJQD/LoODg5z7kldwxDEnkPj+D37EPffex0mnnMkRx5xA4tbb7gAgceQRh3PcMUfzvg99lN29vQD8K6vXrOWYE07m0COP5fF89vNfBGDSjh07+eznv8RHP/4pan3hi18B4Iqrruad73k/H/34p9jbV7/+TcbGxgGYtG3bDgCmT58KwCRV5dbb72Du3Dk0NDQA8FSMj49zwUV/43nPOYO2tlYA/pVCsciLX/YqZs5dxN6OPPZE+vr6AXgy1q1bz40338JV11zHXy64iGuvv4HzL/wrl195FTfefAuPPPoYW7dt48abb6HWVddcxwUX/Y3hkREAJu3avZu77rmXQw89mGOOOYrGxgbuuudeDj30YI455iimT5/OZVdcyfTp0znmmKOYPn06F196OcMjIwC4zGUuc5nLXOYyl7nMZf8tDMCTFUYRAC5z2b9bGEUAPJ5CsUhfXz976+8f4ITjj6W+vo4//+UC+vr62ZfhkRFUFYBJq1av4b77H+BFLzgH3/PYtm0HAFOnTgHgv8n27Ts48pgTOezI4/jlr37DmWeczq03Xst9d93KB973bnp6ugFIjI2N87FPfoaPfvxTfP6LX6HWt777fYxnuP2OO/n8F79Crc987ou87R3v4dHHVgFQ64477+KgAw+gp6cHgEmDg0M88OBDHHPUkfieB8C+LFwwnysv+yd33HIDZz/vObzzHW/jm1//CoccfBDXXXM5d9xyA88/+ywu/MsfuOOWG6h19vOeA8C+HHzwQZx5+mmcesrJtLe1cfDBB3Hm6aeRmDZ1KokzTz+NxLSpUwF4PKefdgonnXQCDz74EAB7GxwcYvPmLbz7nW+nuakJgKeqr6+fI489kZlzF1HryGNPpK+vH4BEPp/n7W99E5/8+EdInHLKScycOYMPf+h9fPLjHyExd+5sABK+7/Oxj3yQrs4O/v6PiwF4MpqamrjkHxexZcNq9vbC558NQK3hkREuuOhvXHXNddx48y3U2rZ9O52dHTz40MPcePMt7O3e+x4gDKsATLrjzrs46MAD6OnpAWDS4OAQDzz4EMccdSS+5wHwRB559DEWLTuAmXMXkVh2wKE8+NDDfOd7P2Tm3EXsy49/+gsAJuWyWX7yo+9x9+03s7dL/n4hra0tADwZn/z4R7jjlhv47a9+xsKFC7jgz3/gkIMP4ptf/wp33HIDP/jut3jzG1/PHbfcQK3f/upnNDTUA7C39rY2Tj3lZM48/TQOPvgg2tvaOPWUkznz9NM4+qgjyOfzHH3UEZx5+mkcfdQRpFIBAC5zmctc5jKXucxlLnPZfxMD8GTZ2ALgMpf9u9nYAvB4fvf7P3HokceyL6edeRbrN2zkpz//JYceeSz78pa3vYtiqQRAIooifvmr33LQgQdw2KGHAHDHnXeRzWR5+JHHuPzKq1izdi39AwNcfc21XH7lVSSuufY6RkZGAUg88uhjLFp2ADPnLmJvX/36N7nr7ntYsvwgZs5dxN7e/8GPAJC49bY7OOKYEzjplDO55977+P4PfsQRx5zAH//0FwBamps5/0+/Y+1jD3L1FZfwlje9nqlTpyAiPPzIo7z2DW9meGQEgEnf/PpXuOOWG3iyLv3HX+np6QZg0o9/+gtmzl3ED3/8Uy659HLmLljKzLmL+PFPfwHAY6tWsWnTZj72yc8wc+4i9nbt9TcA8O/yhje9jZlzF7Fk+UHcdfc9vOFNb2Pm3EUk/vr3f5KYOXcRib/+/Z8A1NqxYyef/fyX+OjHP8UnP/051FoeePAhPvrxT/HFr3yN/v4Bfvu7P/DRj3+Kb377u9TX13HNtdfx0Y9/isT5F/4VgL6+fo489kRmzl3EoUcey65du/nq17/JzLmLmHTt9TcAkHjLm17Pj37wHRJvedPrAaiVyWQ4/rhjOfP000gsXLCA9rY2Tj3lZM48/TQSXZ2dAEyqr6/nFz/9MW9+4+sBSNx408189OOf4tOf/QLr12/g8iuu5KMf/xRf/fo3GR0dA+Cpamio57e/+hl33HIDT8WFf/kDra2tAPz4p79g5txF/PDHP+WSSy9n7oKlzJy7iB//9BcAPLZqFZs2beZjn/wMM+cuYm/XXn8DAHv75te/wt2338wTufG6qzhg5QoAaokIzU1NdHS0s7fW1lYq1SrvePf7OOKYE/j+D37EPffex0mnnMkRx5xA4tyXvILBwUEA/h3uuvseliw/iJlzF/GGN72Nu+6+hyXLD2Lm3EU875wXsXt3L88750XMnLuI553zIkZGRgBwmctc5jKXucxlLnOZy/6bGIAny6oC8N/ik5/6DCsPPISbbr4FgP2pWCrx+je+mZUHHkLi8COPYdXq1QD8L1q1ejWHH3kMr3/jmymWSgD8u1lVAB7Pq175Mu6+/WYS73nXO5g/by7XXXUZd99+M/vyqle8jOXLlnLDtVdy9+0385MffY9cNgtA4o477+aKq67mZS85j0wmw+joGLfcehtbt23jfR/4MG97x3v458WXsmnTZt77/g/ztne8h8S73vsBtu/YAcCkxoZGfvfrn3P37TdT651vfysHrFzBjdddxd2330ytM08/DYBJLS3NHH/sMRx99JE0NTYyZ85sjj/2GKZM6QEgl8sydeoU0uk0ALU2bdrMjh07UVUAnm0HrFzBjdddxd2330zizNNPA6BcLvO7P/yJ55/9PO649Qbuvv1mJl1xyd/p7OgAYNL7P/gRZs5dxF///k+++vVv8oY3vY277r6HJcsP4shjT6Svrx+AJyOfy3H+n37Hlg2rqfXYw/dx2KGH8OEPvp8tG1azt29+/SsA/CubNm/hssuvJIoiAP6VhoZ6vvT5z/CjH3yHL3/xczQ01HP2Wc/lRz/4Dl/+4udoaKgHYNLBBx/EmaefRuLggw8CYNLg4CDnvuQVHHHMCUz6/g9+xD333sdJp5zJEcecwKR/XnIZiSOOOYHEiaeewdHHn8wf//QXAP5T4jjmkUcfY3dvLwC1ojgGYG8HrFzBjdddxd2330zizNNPA6BcLvO7P/yJ55/9PO649Qbuvv1mJl1xyd/p7OgAYF8aGxvo6GjnibS3t5FKpQB4KlKpFK942Uv45Mc/wimnnMTMmTP48Ifexyc//hHOft5z2LlrF3FsAXjk0cdYtOwAnnfOi1i9eg0nnHw6d919D29409uYOXcRP/7pLwB4sk4+8QS2bFjN3n7xsx/R09PN3bffzJYNq6m1+pEHWLZ0CQAuc5nLXOYyl7nMZS5z2X8LA+CyZ8uXv/xVAG6/7WYevP8e7rz9FhYvWgTAs+Wmm2/h9DOfx0D/AACuyedydHS0kzjj9FOZKBQYHRujo6OdvWWzGR5+5FFOPOE4Zs2cQUdHO81NTYgIALt7e/nM57+ItRY/8AG448672LlrN1ddfjFbNqwm8eEPvp/DDj2Exx6+jy0bVpNY/cgDLFu6BIBJYoTm5mY6OtqplcvlSKVStLe30dHRTq1sNgPApMWLFvLlL36Oz376E8ybN5czzzidL3/xcxx/3LH4nseu3bv5yMc+xUc//ilqfeijn+CLX/kaCxcuoKGhAYBMJsPZz3sOjQ0NvOPd7+OIY07gXzn9OWezZes2zn7ec+jp7gZgUiqVor29jY6OdhLZbAaAG2+6hXvvu5/XvuZVdHd10dHRzqTW1lY83wOg1jvf/lYmffPrX+HM00/jd7/+OQ319QA8GY88+hiLlh3AzLmL2NuS5Qdx19338NWvf5OZcxexL0ceeyJ9ff0ATJ06hU9/8mN8+YufI/GlL3yWE088nq1bt/G5z3yS7u4u7rjzbsIo4rxzX8jnP/spvvzFzzHpxee+EIBMJsPxxx3LmaefxkknHE9dXR3Pe+6ZnHn6aZx0wvHU1dUB8GTk83ne/tY38cmPf4TEhz7wXr74hc/wg+99i0998qN88uMfYdJzzjyd6dOn8aEPvJdPfvwjTDrssEMAOP64Y/nyFz/Hu97xVjzf46gjD+dLX/gsH/7g+2lsbGBsbJxXv+5NHHHMCeztn5dcBsDjUVWKpRIA5UqFL3zpq/zjn5cCMKlSqfDmt76Dz33xywDUSqVStLe30dHRTiKbzQBw4023cO999/Pa17yK7q4uOjramdTa2ornewD8p/mex+GHHcqZp5/GwgULaG9r49RTTubM00/j4IMPAqDWtKlT+d2vf84BK1dw0fl/5Jijj+J3v/45Z55+GgBP1vs/+BFmzl3EvrzhTW9j167dHHrkscycu4h9+fFPfwGAy1zmMpe5zGUuc5nLXPbfwAD8r/r85z7Dg/ffw3HHHgPA/jLQP8A9997Hq175CnLZLAD/6xYvWsSdt9/CL3/+U3LZLAD/TebMmc1BBx7Ar3/7e6I4BqDW/Q88yPYdOznj9NMAqBVFEd/7/o/YtWsXxhgAhkdG+PFPf87JJx7PnDmzAfhvMm/eXD764Q/S090FQC3PGM570Qv52Ec+iO95ADQ01PPhD76f5cuWsmzpEo4/9hgmHXXkEVTKFdpaWzn+2GOYdMThh9HT3cWHP/h+Fi9aCMATCcOQf15yKa96xctZumQxALXKlTJhGAJQK5fLMamxsYFsNkNzczNiDFYtwyMj9PX1U6tUKgMwadnSJax+5AG2bFjN3q645O90dLRz4V/+wJYNq9mX22++no6OdgAmqSpr1qzlVa99A5/53Bf56Y+/z8knngDA97/zTU4/7RQ+87kvsvyAQ/nCl77K7t29ADwZ5UqZMAwBeDIymQzHH3csZ55+GmecdioPPPAQf//HJZx4/HGcefpp1DrskINpb2vj1FNO5qQTjsfGliMOP4y5c+YAMOn++x+kv3+An/3i11x51TUAJHzf4+CDDuD4Y49hb11dnQA8np/89Be85W3volwuk8/lOPigA7n7nnuoVCoAJIZHRlizdh3Lly4F4F8Jw5B/XnIpr3rFy1m6ZDEAtcqVMmEYArAvb3jT25g5dxFPZMnyg7jr7nsAqPXjn/6CmXMX8Xje/8GPAJCYmJgA4Il4vk9LSwupVIrW1lYymQzNzc1ksxkAKpUKfX391BoeHkatAjDpm1//Cls2rGZfXnzuCznj9FPZsPZRtmxYzb689c1vAMBlLnOZy1zmMpe5zGUu+29gAFzmsv9lvufxype/jNtuv5P7738QgEnlcplf/vp3POeM05g/by4AtW67/Q6uuvpavvutb9DV1QnA2NgYqVSK17/uNfieB8B/g2KpxC233kYcx7z0xefy5S9+jn354PvfQ3dXFwC10uk0b37j6/nyFz/HpM9++hPMmzeXM884nS9/8XNM+vQnP8bUqVMAeDKCIOAbX/0Sb3jda7jwor+xc+cuACaNjo7h+z6dHR0A7K27qxOAWqVSmbe87V0ceuSx1Lr8yqsA2FuhWOTFL3sVM+cuYtIZz3s+fX39nPuSVzBz7iJq/finvwCgVrlc5q9//yfHn3Q6pz/3HGbPmsVVl/2TFcuXAZAIUgEnn3gC//zbBVx1xcWMjI5y5LEn8qIXv5ydO3cBUGtwcJCJiQl8zwNgdHQM3/fp7OgA4Mn445/+whHHnMARR5/AH/70F+699z5OOOUMjjjmBCbdetsddHR2sH3HDgoTBfb09fGlr36dxx5bDcCkcrnMPy6+FBHh+OOO4Wvf+BYPPfQwALlcjne+/a18+YufY2+HHXIwALWstahVAI4++kjWb9jA+g0bATji8MPYsmUrwyMjACQ2bNjExMQEc+bMBuBfCYKAb3z1S7zhda/hwov+xs6duwCYNDo6hu/7dHZ0ALC3b379K9x9+808kRuvu4oDVq4AoNYpJ5/Aj37wHb74uU/T2NjA29/6Zn70g+8w6ZWveBkAid7eXqZO6SGfywHwRFpamsmk0wDUuuW22zn0yGOp9arXvpHRsVEA9nbt9Tcwc+4iap1/4V+54sqrmbtgKTPnLmLSkceeSF9fPwAuc5nLXOYyl7nMZS5z2X8TA/BsGegf4PQzn8fKAw9h0q9+8zsAEr/6ze94/RvfzBVXXMnKAw8hcfiRx7Bq9WoAEr/6ze94/RvfzNZt2zn9zOex8sBDOPzIY1i1ejUAiV/95nesPPAQEocfeQyrVq8GYNJNN9/C6Wc+j5tuvoXDjzyGlQceQuKmm28BYNJNN9/CygMPYW+/+s3vAPhXfvWb37HywEM4+bQz6O3t5d3veR8rDzyExCc/9RkAEgP9A5x+5vNYeeAhJA4/8hhWrV4NQK1PfuozrDzwECZ98lOfAeBXv/kdKw88hHe/53309vZy8mlnsPLAQ0j86je/AyBRLJV4/RvfzMoDD2HSr37zOwASA/0DnH7m87jp5lv41W9+x8oDDyHxyU99BoDEQP8Ap5/5PFYeeAiJT37qMwDs7Ve/+R0rDzyESb/6ze8AqPXJT32GlQcewqTXv/HNFEslAJ4NBx64kjNOP5VvfOvbjI+PA5C44qqreWzVal7x8pciIgDUmj9/Hj/50fdZuWI5AIkZ06fz5z/+lvnz5gLw3+BXv/ktS1cczC9+9VseevgRFi07gJlzF/F4fvzTXwCwt+tvuIkXnPtSBgcHAXg67rr7HpYsP4iZcxeR+Ovf/wlAPp9HVfn7Py/hQx/9OOPj4wA8EVTZuGkTbW1tAIyMjjIwMIhaC0Diwx98P1s2rKbWN7/+FQD25cMffD9bNqzm8Tz28H0cdughAOwttparrr6Gk086gbtvv5nPfvoT1NXVAdDQUM+XPv8ZZs6YDkBi2tSpfOOrX+LmG67mxBOOo6GhHoBaE4UCQZCitbUVgKfjsMMO4ZMf/wgHHXgAc+fM5stf/Byf/PhHqDV37mw6OzpIBQFj42M89NAj1OXzLF68EIBJ99x7P6VSiaVLFnPIwQfzhte9hg9+5OPs6esD4KnoHxhgdGwUgNmzZzF92jTuf+BBAKZPn0qlWmXDhk0AJB559DFmTJ/O9GnTAKh11933sGT5Qcycu4jEX//+TwDy+Tyqyt//eQkf+ujHGR8fB+DJaGxsoKOjnSfS3t5GKpUCoNbcOXM48/TTmDFjBvl8nhef90LOPP00Tj3lZM48/TRWrlgOQLFUonfPHurr6wFIbNmyFYC97dq1G9/3SWfShGHInr4+SqUyAImenm7uvv1mtmxYzaTVjzzAsqVLANhbT083d99+M1s2rObx/OJnPwLAZS5zmctc5jKXucxlLvtvZACeDcVSiQ9/7OOcd965PHj/PUx63WteBcCk++67n+9+/4dce9UVPHj/PZxy8kl881vfoVgqAZC47777efFLXsa3vvk1Hrz/Hk45+SS++a3vUCyVAHjda17Fg/ffw5/++DsaGxsB2Ftvby9f/srXuPSff+fB++/hXe96J1/+ytcY6B8AYNXq1Xz4Ix/ju9/5Fg/efw/XXnUFXV1dvOtd7+R1r3kVAP/K617zKh68/x6uveoKurq6+O53vsWD999D4vOf+wwAxVKJ737/B/zht7/mwfvvIXHKySfxvvd/iIH+AQCKpRKvf+Obuefe+7j2qit48P57SHz+c58B4HWveRUP3n8P3/3Ot+jq6uLaq67gwfvvIfG617wKgGKpxDvf9R56urt58P57SPzpj7/jZz/7Ob/6ze8AmPTu97yPzZs28eD99/CnP/6Oa669jptuvgWAtvY2rrz8Eh68/x6e99znALC3X/3md1xwwYVce9UVPHj/PVx71RVccMGF/Oo3vwMg8avf/I5du3dz+2038+D995D45c9/Si6bBeDZ4Hseb3vzG+nvH+BLX/k6URSxY8dOvvu9H/KWN72e+fPmArC37q4uDj3kIAAmjY2N881vfYePfvxT1Lr8iitZv34Dn/7sF/joxz/FpJ/+/JdUKhUAEmNj47z6dW/iiGNOoNb3f/Aj7rn3Pk465UyOOOYEav3zkssAmHT3Pffy/g99lCOOPp677r6HmTNmcOFf/sCvfv5jstksjQ2N/O7XP+fu22+m1o3XXcUBK1cAsC/33f8AjY0N1NXVATCpWCzS19dPrcHBQeI4BqDWAStXcON1V3H37TeTOPP00wBINDU18o2vfoldu3bzpa98nSiKAHg8GzdvZs+ePSxcMJ9FCxYwNjbO+z/0UcYnJgB4Or7/gx9xxDEn8HhOOuVM7rn3PgD2ls/l+NmPf8AnP/4ROjraAZjU19/Phz76CXbs2AlArWlTp/K2t7yJ+vp6AGrt3LmLwPdpa2sF4OmYO2cOy5cu5bFVq3jrW97I0Ucdwa9/83sa6hs48/TTSHR1dtLZ0QHAzp27uPzKqzj8sENpbmoCIFEoFvnZL37JeS96AblcDoAXvuAcPvnxj9DR3o5aZXh4mL6+fvZWKpUB2FtzczOdHR3kczkOPuhAbrzpZiqVCm1tbcyaOYM1a9cCUC6XuePOuzjwgJU0NjYAUOuAlSu48bqruPv2m0mcefppACSamhr5xle/xK5du/nSV75OFEUA/CfcceddLJg/j86ODv74p79w7otfzvDICACJcrlMX18/8+fNBSARhhHTpk4lX5cHIKHWctU113LwQQfS3NTEsUcfxSc//TmuvvY6AJ6OXbt289xzXsgRx5zA43n/Bz8CgMtc5jKXucxlLnOZy1z238gAPJtuu+02iqUSAPvS1dXFH377a9ra2wB46UtfzI4dO9myZQsAiUwmw69++TMWL1oEwMknn8TOnbsoThQAeDIymQzf+ubXaGtvA2DO7FkATOrvH6CpqYklixYB0NbexiEHH8TmTZsAeLbkslk+/7nP0NbeBkDi5JNPAmDSPffcy2OPreJb3/wabe1tADxV99xzL489toqXvvTFACQWL1rEm970Rm677TaKpRIAiec99zl8/nOfAWDmzJksWbKYjZs2A/CvDPQPcMEFF/LRj3yItvY2ANra2zjvvHO57bbbKJZKACQee2wVW7ZsAeDfZcqUHr7zza9x+ZVX8aWvfp33ffDDTJs2lZe99MUAPFlhWOXe+x7gxptvodbGjZsYGR3l1ltv58abb2HSI48+RmwtAAnf9zj4oAM4/thjqDVnzmyaGhs5+ugjOf7YY6jV1dUJwKT77nuA9es38J53voPFixZy4gnHc9CBB+B5HgBihObmZjo62qnV3t5GKpUCYG/j4+PcdvsdrFi+jHQ6DcCk7//wxxx65LHUet7zz2VwcAiAWqlUivb2Njo62klksxkAJk2Z0sNXv/xFLrviSq659noAHk+1WuW8F72QtrZWpkzp4cK//IHf/upnNDQ0APB0vPMdb+OOW27g8Vx3zeUccvBBAOxt1eo1fPTjn2JfPvnpzzMwMMif/nIBH/34p9iXn/78l1QqFQAmPfjQw8yZM4vGxkYAno4ojvnxz35BR0c7Bx14AH19/Wzbtp09fX309fUzMDBIFEU0NjYwa9ZMzr/gr9x3/wOcc/bzEBEAVJXf/+HPhGHEMUcfBUAik8lwzNFHISKMjo3yqte+kUOPPJa9XX7lVQDU2rJlK77nY4wB4IjDD2PtuvXs6esjl80yb+5cHnn0MVSVHTt38uijj3HUUUcAsLdUKkV7exsdHe0kstkMAJOmTOnhq1/+IpddcSXXXHs9AP/K+z/4EY445gSeyEmnnMk9994HwN7Gx8e57fY7OP64Y0mn0xx77NH07tnDjTfdDEBi585dDA2PMG/eXAAeTzUMmTVzBqeechIiwute+yruuOUGzn7ecwB4Onp6urn0H3/ljltu4PF88+tfAcBlLnOZy1zmMpe5zGUu+29kAJ4NuWyW73/vOwAcedSxrDzwEF7/xjdTLJUAeCKjo6P09w8AkGhqaqKjrR2AxHHHHsOVl19CW3sbAM+G9vY2RkZGeGz1agAG+ge45977mDV7NgDPpl/95nesPPAQJr37Pe8DoFZTUxMdbe0APF1NTU10tLUDUGvnzl0UJwoAJGbNng1AIpfN8suf/5TXveZVADxZ737P+1h54CFM+t73vg/ApNe95lW86U1v5GUvfxUrDzyEw488hlWrVwPwbFuxYjlf/Nxn+PVvfs/2HTv53Gc+RT6XA+DJam1t5cK//IE7brmBWu98x9s45OCDuO6ay7njlhuY9IPvfotcNgtAEATMnzeP973nXXz5i5+j1plnnM68eXP57Kc/wZe/+DlqnXbKyTQ1NQGQeOtb3sjFf7+QF7/4RdTX1wNQq1gs8v0f/piPfvxT1Pr0Z7/A+vUbANjb+g0bWbduPSuWLweg1oc/+H62bFhNrdtvvp6OjnYAnqpDDj6Qt77pjdx9z73EcQzAvmzevIXb77iTj378U0z6/g9/TKlYBODxXHv9DWzZug2AvX3/Bz/iiGNO4PGcdMqZ3HPvfQDsbWhomBtvvoW9XXfDjdx08y1Ya7n6muu47oYbufHmW9jbI48+RmwtAInR0THuf+BB5s2dSy6bBeDpUlW279jJi1/2Kl79+jexp6+Pz33hS5z9wvN4xatfx4aNm0in0xx6yCFcfuVVLFywgMWLFgKQEBEA3veed5GvywOwt8aGRn73659z9+03s7czTz8NgFrDwyNMmzaFXD4HwPTpUwHYtm0HAMuXL6O5qYlSuczdd99LNpdl2dIlADwdhxx8IG990xu5+557ieMYgCfy0hefyyc//hGeyIc/9D5mzpwBwN7Wb9jIrt27OfCAlQBMmzqVF5/7Qn77uz8yPj4OwP0PPEgmk2batKkAPJ6JiQnWb9jI977/Iz768U8x6a577gXg8ezu7eWGG2+mXC4DUGvXrt0895wXcsQxJ/B43v/BjwDgMpe5zGUuc5nLXOYyl/03MgDPllw2yy9//lMevP8ebr/tZgDe+a73UCyVAHg8jY2NtLe3AfCf9u73vI+VBx7CyaedwXnnncvrXvMqAJ4tN918Cz/72c/50x9/x4P330Piu9/5FgD/KVOm9JCrywPwbPnud77Fg/ffQ61f/vyn5LJZABKve82rePD+e0i86U1v5HWvfxOrVq8G4Nm0Y8dOfvaLX9Hc3Mzw8Aif+NRn2N3bC8B/wsIF87nwL39g4YL5ADxZn/z4R0gA/DtEccz5F1xEqVzml7/+DePj4wD8u4gIb3rj6/jUJz6K53kAPJuuuOIqvv+DHwGwt3e+423cccsNPJ7rrrmcQw4+CIC9HX3UEdxxyw3s7VMf/yj5fJ4vfeGzzJg+nZe95DxuueEa7rjlBmr94LvfIpfNApDYuGkTGzdt5oTjjwXg6fI9jy99/jPcccsNJC79x1/p6enmm1//CnfccgNXXvZPFi6YD8CsmTMQEV7/2leRyWS47vobWb9hIwBvfP1rOOTgAwHYFzFCc3MzHR3t7C2bzQAwqVKpsGr1aqZOmUIumwWgra2NJYsWsXrNGgBecM5ZfOZTH8eIcOXV13LE4YfR2dEBwNMhIrzpja/jU5/4KJ7nAfBEDj74IM48/TSeyKmnnEx7WxsAtVSVf/zzEhYuWMC8uXOoVCrcdPMt3Hf/Azz08CPceNMtjI+P8/d/XMwRhx9GZ0cHAM+2gYFBPvbJT7N+w0YAavX0dHPpP/7KHbfcwOP55te/AsDjiaKIiy+5jI9+/FP86S8XUC6XAXCZy1zmMpe5zGUuc5nL/hMMwL9DLpvlqKOOAuDxFEslvvmt73DoIQezeNEiAP5T/vzn8znl5JN48P57mPS617wKgFrFUonXv/HNrDzwEH71m98B8EwM9A/w5a98DYBJSxYtAuDDH/s4xVIJgH1pb29jZGSEx1avBqDWkkWLAPju938AQGLV6tX87Gc/51WvfAW5bBaAZ6qtvY1DDj6IL3/lawz0DwDwZBx+2CE0NjYC8Gwpl8v85Ge/5PiTT6enp5vrr76ca6+8lFKpzDHHn8L5F/6VKIoA+P8gl8vxzre/lS9/8XPU+uynP8G8eXMBqHX//Q9y6eVX8tUvfR5V5YMf+TgjI6MAPFXr12/g05/9Ah/9+KdI3HXPvQDszfM8RASAcrlMKkjR2NgAwKQzzzidL3/xc9R659vfSjaXA2BfojimWCrR1dUFwN6+/4MfccQxJ/B4TjrlTO659z4A/pU4jjn/wr/ynvd9kHe+/a289MXn8v3vfpPf/f5PvPXt72Z3by8A+6Kq/OOflzBt2lSWL18GQGJwcBARoa2tFYAno1Kp0NfXz9p167n8yqu47oYbmZiY4Be//A1nPO/5HHjoUVx/w03s3LmLr379m6gqO3bsBOD+Bx7kF7/8NQCe5yEiADxTwyMjrFu/gRXLlwGQyGWz/PynP+SNr38tAJO2btvOY6tW87znnIGIALC39es38OnPfoGPfvxTJO66514A9uZ5HiICQLlcJhWkaGxsAODZ9PDDj/CPiy+hf2CAs55/LguWrOTNb3sX06ZN47hjj+HCv/6d226/k1Wr13D2856LiACQmJiYAKBWa2srH//Ih/jyFz9HrcMOORiAx1Mul0kFKRobGwCotWvXbp57zgs54pgTeDzv/+BHANgXVeVLX/k6f//nxRx26CFcc+11fO0b30ZVAXCZy1zmMpe5zGUuc5nL/t0MwLNhoH+A0898HisPPIRJF1xwIV/90hfJZbMAJHp7ezn5tDNYeeAhHHnUsRx11FF8/nOfAeDJKJZKvP6Nb2blgYfwspe/ij179vCyl7+KlQcewq9+8zsAnox3v/Md3HPvfaw88BBqvf6Nb6ZYKgHwbDjkkINZsmQxL3v5q1h54CE89+zn84bXvYaGhgYAEm3tbfztrxcAcORRx7LywENIfPJTnwFg0uJFi3jTm97Iu9/zPlYeeAiJX/3mdwC0tbfxh9/+mnvuvY+VBx5C4mUvfxVf/cqXOO7YYwB4Mm66+RZWHngIiUsuvYzEygMP4fQzn8dA/wAAn//cZzjk4IM4+bQzWHngIUz61W9+B0Dik5/6DCsPPIRJL3v5q/jYRz/M4kWLAHgmiqUSF/3175x46pn84Ec/4Vtf/wo//N63aWpqZOrUKfzp97/mA+97Dx//5Gc46dTncM211xHHMQD/y9Qqw8PD9PX1U6u/f4BqtQrApPHxcb77/R9w+GGHcNbznsMPv/cdCoUiRx9/Mj/68c/oHxgA4N9p1eo1qCq5bA6ASWvWruXyK6+i1q233UFYDQFITExMADBpZHiEdes3MKWnG4C9vf51r+Gff72Ax/OXP/2OFcuXAfB44jjm9jvu5HnnvIgPf/QTvPtdb+cNr3s1IsLyZUu5+O8XMjg0xDHHn8KXvvJ1hkdGAKj10MOP8Ne//5NXvuwlNDc1AZDYum07vucT+AEAiTe86W3MnLuIxBve9DYAat1y2+0ceuSxnHbmWXziU5/j29/9PmNj42QyGV7zqlfw3W99jSlTenjrO95NT083X/jsp/jN7/7Alq3bWLV6NUccfhgA/0qxWOT7P/wxH/34p9jbXffcC8CktWvXMTExwbJlSykUi/T19fN4/vb3f9La0szUKVPo6+snMTwygqoC8HStWr0GVSWXzQGwt9/+7g989OOf4ol8+rNfYP36DQDUGp8oYIyhpbmJ17zqFdx647WsfuR+vvT5z/DhD7yX0087he//8Mccc/SRHHLwgQAkojhm0+bNTJ3SQz6XAyBRmChw3Q03cvmVV1Fr+44dACTCMKRcKQMwadXqNaRSAXV1dQDU6uzo4Le//Bn//OsFPJ5PfeJjAOxLsVhky9atvO897+Kcs5/HZz/9CR597DEGB4cAcJnLXOYyl7nMZS5zmcv+3QzAk2VEANiXtvY2rrz8Eh68/x4mXXn5JbS1twEwqauri2uvuoIH77+HxOte8yoAJr3uNa/iyssvoa29DYC95bJZfvnzn/Lg/fewt9e95lUAHHfsMdx5+y0sXrQIgMRxxx7DlZdfQlt7G8VSiQ9/7OMccvBBPHj/PUy69qor2LlzF385/0IAErlsll/+/Kc8eP89vO41rwJgb23tbVx5+SUcd+wxANTKZbP88uc/5cH77yFx5+238KIXvZAL/vJH2trbAEjksll++fOf8uD99zDp85/7DAC1XveaV/Hg/fcw6XWveRUAibb2Nq68/BIevP8eJh137DEAJNra27jy8kt43WteBcC+HHfsMTx4/z3s7crLL6GtvQ2AxOc/9xkevP8ear3uNa8CIPH5z32GB++/h1rHHXsMAI/HiACwL6rKHXfexTve9T6WrjiYj3z8Uzz3zDO489YbOOt5z8HzPAASmUyGt7zp9dx+8/Uce8xRvPlt7+KQI47lJz/7JRMTEwD8N1q1eg0f/fin+OSnPsvDjzxCd1cnAJNGx0Z51WvfyKFHHkut4086jQcefAiARBTHfOXr3+KRRx/jfe95F5lMhqamRn7zy5/y9a98kVtuvY1Nmzbz1a9/kxUHHcYRx5zA3s543vNZv2EjAIl58+by2U9/gi9/8XMkTjvlZBrq6wCYFIYhv/jVb/joxz/F297xHj7/xa9wzDFH0dTcBMCka665js9/8SvU+vkvf02pXCKfyzFzxnR+/NOfc/hRx3PEMSeQOOm0MxkeGubggw8C4MabbuajH/8Un/7sF1i/fgM33nQz3/7u93k8P/jRT9i6dRuXX3ElH/34p0isWr0GgAcfepi3vuPdLFiykpe98rVMmzaV66++nHe+/a34vg9AYurUKVz4lz/wnW99jUsvv4IDDj6CM5/3fP72j4upVquMj4/zpa98jblzZnPmmadz400389GPf4q3veM9fP6LX+Hkk06gtbUFgMRb3vR6fvSD75B4y5teD0Ctk088gS0bVpO4/+7buPQff6Wnp5tXvPwlvPjcFzI+McELz3sZmUya73zz67zkxedy8EEHcsrpz2Xd+g0cdNABAPwrURRz730PcOPNt7C33t49ACSiOOaiv/2DFcuXM2/uHH73+z9x6JHH8nh++vNfsm79Bk467TkceuSxJN7ytndRLJUASMybN5fPfvoTfPmLnyNx2ikn01BfB8CkMAz5xa9+w0c//ine9o738PkvfoVjjjmKpuYmAJ5NRx91BA/eeyd//N2vedlLX8zUqVMQEQDmzZvLI488yvYdO3jfe96FiPDTn/+Sj378U7zpLW/nyquu4dBDDwFg0tDwMN/+7vf5/Be/Qq37H3gIgCnd3RSLJZ53zos44pgTSBx+1PF89vNf4pijj6K5qYmxsXG++vVv8tGPf4rf/u4PDA0P85Of/5Jvf/f7PJ5//PNi+vsH+OJXvsZHP/4pfvrzX1KpVADwfZ/E5s1biOOYBx98mPr6eurq8gC4zGUuc5nLXOYyl7nMZf9uBuDJMp4B4P+rx1avpre3lzmzZwHgsv3BeAaAfRERRkZG6evv5/vf/SYPP3A3H/vIB6mrqwNgXzo62vn8Zz/FfXffxpve8DoeeeRRVBWAhOcZpvT0kElnANiXhvo62tvbEBEA/p2MMTzw4EM8+PAjvOZVr+CkE48HIBEEAUuXLOHKy/7Jlg2rqbXqkft57nPOoKG+DgDf8zjh+GP51je+ypLFiwBIeJ7HGaefysV/v5ANax7hzttu5Aff/Raf/PhHeM+73sFJJ57A8cceQ+L4Y4+ms6MDgFe98mX85EffI5fNApD45Mc/wstf9hIAJgVBQGdHBwCNjQ18/KMfIuF7HgCJpqYmPv7RD3HHLTdQ60+//zXz5s7F8wwf/tD7+eiHP8AJxx/L8cceQ+ID73sPf7voL8yfNxeAqVOncMwxR3HiCcfxhc9/mre+5Y0cc8xRPJ4TTziOL3z+07z1LW/kmGOOItHS0gyAAHEc891vf51HHribn/7o+8yePQuAvXmex3PPPINbbriGf/z1fBYvXsTI8AhBEBDHltmzZvG5T3+C5qYmOjo6iK1FUT73mU/yoQ+8FxEhk8lw9vOew1nPey5nnn4aibOe91zOft5zyGQyAOyL5xmm9PSQSWcAmDplCm950+v53a9/QXt7G77v88lPfJT3vvsdfPoTH2PqlCkATBIR2tvbaKivAyARBAGLFy3kT7//NXfccgN7e/UrX05TUxMAvufx2le/kte/9lVkMhne+uY3sGXDap6K8//0O/K5HACveuXL+MmPvkcumwUg8cmPf4SXv+wlAEwKgoDOjg4AGhsb+PhHP0TC9zwAJgVBwIzp03nzG9/Al7/4OZ7I5z7zSY488nAa6usAeDKiKKKpuYmvffmLLFm8iHQ6TVNTEwCdHR386Pvf4UUvOAeARBAEHHzQgVxxyd+545YbqPXqV76chvo6Fi5cwC9++kOef/ZZHH/sMSTOPuu5/PoXP+FDH3gvIkIqFXDYoYdwzDFH8dKXnMd3v/11Tjv1ZI455igez0tfch7f/fbXOe3UkznmmKNYsXwZnu8DkE6n+dAH3suPfvIz5ixYynd/8CPe/953k8lkAHCZy1zmMpe5zGUuc5nL/t0MwJMV+D4A/+ty2Szvf997uOba61h54CFM+vBHPsaf/vg7jjv2GABctj8Evg/A4znj9FO54M+/5zlnnE4umwXgyWhuauItb3o9P/z+t6mvrwcg0drayoV/+QNHH3UEAPvy8pe9hB9891vkslkAnqq3vvkNnP+n35HP5QB4IgsXzOfKy/7J9Vdfzoc/+H7q6+sBSCxcMJ8L//IHFi6YD0CtXDbLD777LV7+spcAkDj5xBNIAOyL7/t0dXZyzNFHcebpp/Hic1/IFz77Kb78xc+R+PAH309DQz0A+VyO5qYmRASAJ/K8557Jl7/4ORKvffUryWWzAEz65Mc/wstf9hIAai1cMJ/f/PKntLa20tLczBtf/1q+/MXPMemVL38pM2dMByAxd84czjz9NJ6Jrs5OAFasWM7PfvwDnnPG6dTX1wPwr3iex8oVy/nGV7/E6177KkSEpqZGvvKlz7NixXIAFi9ayNe+/AV+/IPv8rKXnEcmkwGgoaGeD3/w/SxetBCAxOJFC/nwB99PQ0M9APvS2trKhX/5A0cfdQQAy5ct5R1vewuZTAaARC6b5W1veROnnnISIgLApFw2yw+++y1e/rKXAJBYuGA+F/7lDyxcMB+AvX3y4x8hAZA48ICVHHfsMQA8U/lcjuamJkQEgCfyvOeeyZe/+DkSr331K8llswDUWrhgPlde9k+OPuoIAJ5ILpvlB9/9Fi9/2UsAeDIymQwf/sD7OP20UwBIvPjcF/LlL36OxBmnn4rneQAkFi6Yz29++VNaW1sBqPXJj3+El7/sJYgIRxx+GJ/51Mf58hc/R+KjH/4Axx17DJlMBoBMJsPxxx3LmaefxtN1+GGH4nseAIm5c+Zw5WX/ZMuG1Vx31WUsXrQQAJe5zGUuc5nLXOYyl7nsP8EAPFnpVIDveQA8Ha97zau48vJLaGtvA2B/WrxoEXfefgsP3n8Pk+68/RYWL1oEgMv2B9/zSKcCAFzmMpe5zGUuc5nLXOYyl7nMZS5zmYsMwFORzaQwIgC4zGXPNiNCNpMCwGUuc5nLXOYyl7nMZS5zmctc5jKXucoAPBWe55HPZfA9DwCXuezZ4nse+VwGz/MAcJnLXOYyl7nMZS5zmctc5jKXucxlrjIAT5XnedTls2QzaXzfw4gA4DKXPVVGBN/3yGbS1OWzeJ4HgMtc5jKXucxlLnOZy1zmMpe5zGUuc5kBeLrSqYC6XJaG+jxNDXW4zGVPVUN9nrpclnQqAMBlLnOZy1zmMpe5zGUuc5nLXOYyl7lskgFwmctc5jKXucxlLnOZy1zmMpe5zGUuc5nL/tsYAJe5zGUuc5nLXOYyl7nMZS5zmctc5jKXuey/jQFwmctc5jKXucxlLnOZy1zmMpe5zGUuc5nL/tsYAJe5zGUuc5nLXOYyl7nMZS5zmctc5jKXuey/jQFwmctc5jKXucxlLnOZy1zmMpe5zGUuc5nL/tsYAJe5zGUuc5nLXOYyl7nMZS5zmctc5jKXuey/jQFwmctc5jKXucxlLnOZy1zmMpe5zGUuc5nL/tsYAJe5zGUuc5nLXOYyl7nMZS5zmctc5jKXuey/jQFwmctc5jKXucxlLnOZy1zmMpe5zGUuc5nL/tsYAJe5zGUuc5nLXOYyl7nMZS5zmctc5jKXuey/jQFwmctc5jKXucxlLnOZy1zmMpe5zGUuc5nL/tsYAJe5zGUuc5nLXOYyl7nMZS5zmctc5jKXuey/jQFwmctc5jKXucxlLnOZy1zmMpe5zGUuc5nL/tsYAJe5zGUuc5nLXOYyl7nMZS5zmctc5jKXuey/jQFwmctc5jKXucxlLnOZy1zmMpe5zGUuc5nL/tsYAJe5zGUuc5nLXOYyl7nMZS5zmctc5jKXuey/jQFw2ROpVEMmiiXGxguMjE3gMpc9VWPjBSaKJSrVEACXucxlLnOZy1zmMpe5zGUuc5nLXPZkGACX7Uscx0wUSpTKFaIoxqoC4DKXPVVWlSiKKZUrTBRKxHEMgMtc5jKXucxlLnOZy1zmMpe5zGUueyIGYH+y1nLpZVfwuS9+mc1btqKqADyearXKZVdcyU9+9ks2bNwIwNOlqvzjn5fwp79cQBTHAMRxTKFYJopjAFzmsmdLFMcUimXiOAbg6YjjmHXrN1AslQB4qqI4ZseOncRxDECtKIoYHBwkiiIAnq4ojrnzrrvZsHEjAE9VsVRCVQF4MoqlEt//4Y+5+557AXCZy1zmMpe5zGUuc5nLXOYyl/2vMgBP1QMPPsRrXv9mnv+il/Bkveu9H2Db9u0A1CpXKtx0y6386te/463veDff/u73+e73f0StX/76t+zYsROAcrnCRX/9O1/7xrdYu249qgrA0/HQw4/w1W98i2VLl+B7HgClchWrCoDLXPZss6qUylUAno7e3j28+a3v4Bvf/A6qCsBTsWvXLp5/7ku4/IqrABgfHyeKIgBWr1nLc895EavXrAXgiTzy6GMcccwJPPLoYwDUqlQqfPu7P+Caa28A4F+J45jdvb2cf+FfOfN5z+eQw4/hoYcfoVKp8NOf/5KPfvxT1Fq1eg0Ak3LZLC3NzXzqs19gcHAQAJe5zGUuc5nLXOYyl7nMZS5z2f8iA/BUDQ+PcOutt/HAgw/xZN19970UC0UAau3Z08f9DzwIwNq16/jeD37Mt7/7fWp9/otf4ZgTTmHeouXceNPNqALAMxFFET//xa85+KADWbRoIQCVakgUxwC4zGX/LlEcU6mGADxVU6b08KEPvI+L/vZ37rn3fgCeihtuvBnPeKxcuZwojvnQRz/Bxz/5GQD+04qlEm97x3uYs2ApRxx9At/7wY849pijuPQfF7Fi+TKiOOb6G27i0cdWAVAslbjob/9g1+7dANQ67dRTCMOQSy+/EgCXucxlLnOZy1zmMpe5zGUuc9n/IgPwVM2aNZMPfuC9vPfd7+TJettb30R7exsAk6y13H//A2zevIUDVq7gc5/5JCedeDwAM2dM5x1vewvvffc7efc738ac2bMBeLY8/Mij3HjzLbzoBefgex4AYRQB4DKX/buFUQTA46lUKvT19bMvK5YvI/Gr3/yW3b299PX1s7fBwUHiOAZg0vj4OH//x8WcespJTJ0yhbGxMTZs2MiK5csA+E9TVQaHhnjXO97KhjWPcNtN1/GRD32AWbNmIiIAJM4843S+/MXP8fGPfIj29jYA9tbW1srznnMGfz7/QoZHRgBwmctc5jKXucxlLnOZy1zmMpf9rzEAT9WsmTN48xtfz7vf+TaerFe94mW0trYCMGlkZIR/XHwJqsoLnn82Lz73hRx+2KEAnHji8bzz7W/h3e98G296w+uYO3c2AM+Wm2+5lZ7uLpYtWwpAwsYWAJe57N/NxhaAx3PLbbdz6JHHsi9HHnsit9x6O1dedQ1HHH0Chx55LHt73vPPZXBwCIBJ115/A1u2buXlL3sJIsLGjZvY3buH4ZERLr/yKm697Q4KhQK33nYHl195FZM2bNwIwL9LNpvD930AalUqFYaGhuju6gTgXznpxBPYvXs3Dz/8CADPhKqyefMWVq9eg6oC4DKXucxlLnOZy1zmMpe5zGUu+3czAPuDqnLHXXdzxx130dHezsEHHkAUx2zcuAmAv/7tH7z4Za/iBee+lM9/8SsMDQ0D8GwoFIvccefdHHXkEbQ0NwOQsKoA/Lf41W9+x8oDD+FXv/kdAPvbJz/1GVYeeAiTbrr5FgD+Fw30D3D6mc8jMdA/AMC/m1UF4PEcc9SR3H37zSS+882v0dLSwt8u/DN3334z+/LpT36Mjo52/vm3C7j79pu55O8X0traAkBicHCQH//k5xx37DHMnzcXgBtvuoWJiQm+/s3v8LZ3vIevfv2bjI2N89Wvf5O3veM9TLrm2hsA2NvY2Divft2bOOKYE6h10ilncs+99/H9H/yII445gVqf/+JXAKh1+RVX8tGPf4pJ51/4VwAeeeRR+vr7mTNnNgCTJsYnANjb9GnTmDF9OjfceDMAz8TGTZt4/rkv4UUveQVr1qwFwGUuc5nLXOYyl7nMZS5zmctc9u9mAJ6sLVu3ceKpZzJz7iKerre94z0UCgUGB4f4y/kXEcUxnu8RpAJGR0dZtXoNAKOjYzz40MPc/8CDPPjQw1SqVQCeDYODg2zavJmVK5YD4LIn61e/+R333Hsf1151BQ/efw+J4449BoBny0D/AKef+TxuuvkWAFyTTqfp6GgncfRRR9La0szOnbvo6Ghnby2tLdz/wIMcdughLFmymI6OdlpbW/E8D4AojvnWd3/AuvUb8D0PEWH37l4uu/wKPvvpT7Blw2oSl/zjIrq7u7jkHxexZcNqJr31zW8AYG++73HwQQdw/LHHUOuE44/lxee+kLPPei7HH3sMtebPnwfAv/LQw4/wkY9/iuc+50wWLVoIQGNjA0uXLOZ9H/wIhx91PJ//4lcAmNTY2MC8uXNYv2EDxVIJgKeru7ubk086kWOOPpKpU6cA4DKXucxlLnOZy1zmMpe5zGUu+3czAP9plUqF3/3hj9xy620AJKxVNmzYxLr1G5g1cwY//sF3+eD734MxhoaGBjLpNADPhuHhEeLYMmVKDwD/rV73mlfx4P338LrXvAqA/aVYKnHbbbdx3nnn0tbeBsD/urb2Nq68/BISbe1tAPw3aWtr5Tlnns4vf/1bxsfHAai1ceMmbr/jLl70gnPwPQ+AWtdccx1/+/s/yGYzAKgqf/rLBQCcevJJADwduVyOd779rXz5i5/jyXrxuS8EoNaZZ5zOl7/4OSad96IXsGPnTk447lg+/tEP4XseAOl0mu986+v89lc/41Of/CjPe+6ZANSaO3cu27fvpFgoAvB05XM5vvHVL/GTH36P+vp6AFzmMpe5zGUuc5nLXOYyl7nMZf9uBuDJ6u7q5Pvf+SYX/uUPXPDnP1DrD7/9FaecfBIA5537Qv7yx99ywZ//QK0L//IHPvC+d1Mslrju+hsBmFStVrnp5lsol8uccMJxHHfcMWQzWay1zJgxnUwmA8CzoX9ggFKpSCaTAcBlLvtvd87ZZ9Hbu4drr78BgEmqyh//9BeWLF7EYYceAkCtwcFBvv6t7/Dud76DM047FYAwDOnr6+ONr38t3d1dAPw3ERFOPvEE3vOudzAxPkFfXz+TJsYnWDB/PscdewwrVywHoFZ3VydRHGGtBcBlLnOZy1zmMpe5zGUuc5nLXPa/xAA8Wel0miWLF3HIwQcxd84sCoUCnZ3tHHTgSg45+ECm9HQDMHPGdA4++CBmz5rJxk2b6Ovr48ADVnDIwQcxe/Ys2tpaOeLww3jOGafT1NQIwObNW7jm2usBWL9+I2vXruOhRx5BRJg3dw6pVAqA/e2Tn/oMKw88hEmvf+ObKZZKANx08y2cfubzuOnmWzj8yGNYeeAhJG66+RYAEqtWr+a0M57LqtWr+eSnPsPKAw8h8avf/A6AxE0338LKAw9h0k033wLApIH+AU4/83lcccWVvP6Nb2blgYeQ+OSnPgPApFWrV3P4kcew8sBDqPXJT30GgH/lpptvYeWBh3DkUcdy3333873vfZ+VBx5C4vVvfDPFUgmAxCc/9RlWHngIk371m98BUOtXv/kdKw88hEmvf+ObKZZKrFq9msOPPIaTTzuD3t5e3v2e97HywENIvP6Nb6ZYKgGQ+OSnPsPKAw9h0ic/9RkAJn3yU58hsWr1ag4/8hhWHngIp5/5PAb6BwAolkq8/o1vZuWBh5B4/RvfTLFUAqDWqtWrOfzIY1h54CEkXv/GN1MslQCY9Kvf/I6VBx7CpNPPfB4D/QMAPBtmzpjO61/3ar77vR+yY8dOABL33Hs//7j4Et74+teSyWQAqNXY1MRHPvh+3vC6VyMiAKRSKb70hc/yspe+GICnS60yPDxMX18/j2dsbByAJ/LVr3+TmXMXMen9H/wIt9x2O4ceeSyP53e//xMAe6urrwPAZS5zmctc5jKXucxlLnOZy1z2v8gAPFWqym2338kb3vw23vO+DzEwOAhALVR59LHH+Oznv8SXvvp11q3fAEAinU7z1je/gTe98XVks1lGhkf48U9/ztZt2wC45dbbeOF5L+PiSy6joaGeBfPn4XkGgGdDJp0hlUoB8FT86je/Y9fu3dx+2808eP89JH7585+Sy2YBSPT29vLhj3yMX/3yZzx4/z28613v5Mtf+RoD/QMAJEZHR3nZy1/FrNmzefD+e/jud77Fz372c1atXg3Acccew4P338O1V11BV1cXAPvy0Y9/kle98hU8eP89/OmPv+Oaa6/jpptvAWCgf4D3vf9DvOlNb+TB++/h9ttu5qCDDuR5z30On//cZwD4V4479hgevP8ebr/tZg466EDe9a538uD995D45c9/Si6bBeBXv/kdJ598Eg/efw+J737nW3zve9/npptvASDxyU99hp/97Of86Y+/48H77yHxy5//lFw2y+JFi7jz9lu49qor6Orq4rvf+RYP3n8PiV/+/KfkslkAPvmpz7Br925uv+1mHrz/Hq696gruufc+PvmpzwAw6ZJLL+N97/8Ql/7z79x+281MmdLDd7//AwBy2Sy//PlPefD+e3jXu94JwN5WrV7N617/Jr76lS/x4P33kOjp7uad73oPxVIJgJtuvoULLriQa6+6ggfvv4fElZdfQlt7GwDPlpec9yKmTOnhwx/7BOPj4yS+8a1v87znPocjjjgMgL35nsepp5yE7/sATLrob//gY5/4NB/9+KeY9P0f/pj+/gG+/8Mf89GPf4pJn/38l9ixYycAk/b09dG7Zw+veu0bOfTIY3k8n/38FwF4Iu98+1u5+/abmfTpT36ck088gWuvupSZM6ZzyT8uYsuG1SRuvO4qpkzpYfGiBQDsbf36jQC4zGUuc5nLXOYyl7nMZS5zmcv+FxmAp6pULnP7HXcSxzHHHH0kLc3NANRChEMOOZjnn/08du3azR//fD7FUgkAEaG1tZVsNguAVaVcqTBlSg8//8kPOOt5z8Fai6qyfNkyZs6cgYgA8GxobWkmimL29PUB8FQ89tgqtmzZAsC+ZDIZfvXLn7F40SIAznrOmQA8tno1AJPe9a538rrXvAqAJYsW0dTURH//AABP1rve9U6OO/YYADra2mlqagIg0TfQj6py+GGHAJDLZjnqqKPYtXs3xVIJgGfL617zKo479hgAEksWLaKrqwuAxKrVq7nm2uv46le+xOJFiwB4qlatXs01117Hq175CnLZLABt7W189CMf4p5772OgfwCARFdXF3/47a9pa28jl81y1FFHsWv3boqlEgD/yp//fD6nnHwSxx17DACJl770xezYsZMtW7YAkOjt7eWx1asB+Hepr6/na1/+Irt27eajH/80n/j05xgcGuYdb3szvucB8GStW7eeG2++hVr33vcAcRxz730PcOPNtzDpjjvvYqJQAGBS354+Zs+exdVXXMLdt9/Mvpx5+mkA/Cu5XI6OjnYmNTTUAzBz5kyWLVvK3/9xMapK4q9/+wftbW0ceMBKAPY2MTFBW2sr6XQagKdLVbnl1tu56eZbiOMYAJe5zGUuc5nLXOYyl7nMZS5z2b+bAXiqNmzYyLXX30A+n+eoI48gCAIA9pbP5XjJi8+lo6Odv/39H9x7732oKgC1mpubeNMbXsfHP/ohTjjheD72kQ+ycsVyRIRTTj6RpsYmAJ4t7e3ttLa0sHbtOgCerNe95lW86U1v5GUvfxUrDzyEw488hlWrVwPwr2zctBmASXNmzwIg0dbexpWXX8Jxxx4DwLOho60dEeHOu+4BoFgqcdttt9HT3U0umwXg2bJq9WoOP/IYVh54CImTTzuD3t5eACY1NjbS3t4GwNPV2NhIe3sbALVGRkboG+gHIDFlSg+5ujwAide95lX88uc/JZfNAvBkXHLpZaw88BAmvezlr2J0dBSAxHHHHsN3v/Mt3v2e97HywENI3HTzLQA826ZM6eHb3/wa191wA5dfcRVf/sLn6O7qAuCp+OTHP8Idt9xArd/+6md0dXXy21/9jDtuuYFJV172TxYumA9AQlW5/8GHWDB/HrNnz6Kjo519yWYzADwZcRwzODjInXfdzU9+9ktWrV6D73m88uUv49LLr+Chhx8h8avf/I5Xv+rl1NfXA1CrUqmwavVqZs2aSUNDPQBP15YtW3n3ez/A2975XtatWw+Ay1zmMpe5zGUuc5nLXOYyl7ns380APBWlUpm//u0f9PcPcMJxx7J40UIAHs/CBfM556znUSqVueCivzExMQFALRHh4IMO4MzTT0OAO+68i0cefYy5c2Zz7DFH43kGgGdLU3MTK1Ys49777qdSqQDwZL3uNa/iwfvvIfGmN72R173+TaxavRqAJzJn9iwA/tO+973vs/LAQzjyqGPp6e7m85/7DADPloH+Ad73/g/xpje9kQfvv4fEtVddQVdXFwD/CU1NTXS0tQPwbHnec5/Dg/ffQ607b7+FxYsWAZA47thjePD+e0h89zvf4t3veR833XwLAM+mkZFRfvKzX6AK9fX1fPQTn2LNmrUA/KcMDg7xwIMPsXzZMnzPA+CpuuPOuzjl9Odyz7338dWvf5M5C5Zy0GFH84pXv54rr7oagMQhBx/Ii899Ea95/ZtIHH/sMTzvOWcCsLe+/n5Wr17LYYccjIgA8HRNmzaV17/u1bzhda9m1qyZALjMZS5zmctc5jKXucxlLnOZy/7dDMCTparc/8CD/PXv/ySbzfDi815IXV0dAKoKwN7S6TTPOfN0WltbueHGm3ls1WoAEqoKQK0tW7by45/8HFXlta95FVOnTiGdTnP2857Lhz7wXmbOnIEIADxdvudx6skn8dBDj7B9xw4Ano7DDzuExsZGAB7Pd7//A6ZM6eGQQw4G4D/l4ssuZ8qUHm6/7WYevP8eEp//3GcA2NuvfvM7Vh54CK9/45splkoAPBPf/f4P6O3tBSAxc+ZMpk6dwvve/yEG+gcA2JdcXZ4pU3q49trrAKg1c+ZMpk6dwje/9R2KpRIAA/0DfPkrX+O8886lrb0NgGfDySefxCWXXsZNN98CwJOxZNEiurq6AHi2xHHMxZdcxtHHn8yuXbu59spLuf7qy1k4fz5nPO/5fOd7P6RYKgHw73bHnXcxODjIiSccB8DTMW3qVE484XiaGhs579wXcttN1/HYw/exYc0j/OOv57N40UIARITjjzsGgGKxxCtf8VJ83wdgbw8++DDlSpmDDjoQgGfC933e/tY38953v5NMJgOAy1zmMpe5zGUuc5nLXOYyl7ns380APFn9/QP86Cc/ZWJigpe+5DwOPuggRASAKIoYHR0DYG/z5s3l1JNPpFAocNnlV1IqlQGoZa1y3/0P8Ka3vZN16zfwnDNP5zlnnI7veQRBwOmnncIbX/9apk+bhrUKwDNxxOGH0dzSzG233wnAk/HJT32GlQcewqSXvfxVfOyjH2bxokUAJMrlMi97+atYeeAhJAB++fOfkstmAXgyPvmpz7DywEM4+bQz6O3t5d3veR8rDzyET37qMwA8GS958bkAHHnUsaw88BAmnX7m8xjoHwDg2dDW3sZ5553L9773fVYeeAiJzs5ODjroQAASuWyWX/78pxxy8EGcfNoZrDzwEBKvf+ObKZZKACRy2Szvf997uOba61h54CEkXv/GN1Mslchls3z/e98B4MijjmXlgYdw8mlncN555/K617wKgCdj1erVHH7kMaw88BC+973vc99993PkUcdy+JHHsGr1agCOO/YYvvudb/Hu97yPlQcewqTXv/HNFEslAH71m9+x8sBDmHTyaWdw3nnnctyxxwDwTERRxLXX38DzznkR7/vgR3jH297CBX/+PVOnTqGpqZHvfecbfPdbX+cXv/oNhx5xLBdc+FfK5TIA/w7DIyP84le/4Zijj2LOnNkAPB1Tp07hox/+APPmzWXWzJlMmdJDPpcDYNLExARf/fo3eeF5L+OQgw7i9NNO4VWvfSM/+dkvKZfLAEyK4pirr72OY44+ijlzZgPgMpe5zGUuc5nLXOYyl7nMZS77X2MAnqzx8XGM8VixYjmvfuXLUZQPfuTjzJy7iKUrD+Hv/7wYgHw+jwAAiVw2y/OeeyazZ89i6tQpKAqAiACQeODBh3jTW9/Jxo2bOGDlCt7/3nfT2NgAQBTH/PTnv2Th0gM49czncdPNt+B5HvlcDoCno62tlVe94mX88U9/YXBwEIB/5fOf+wwP3n8PtY479hgAJmUyGf70x9/x4P33kPj85z4DwKTFixZx5+23cNyxxwCwL5//3Gd48P572NvnP/cZANra27jy8kt43WteBUCirb2NKy+/hOOOPQaAL3/5qwDcftvNPHj/PSRuv+1mpkzp4bvf/wEAk173mlfx4P338Muf/5RcNgtArVw2yy9//lNe95pXAbC3173mVTx4/z1Mesfb38ovf/5Tjjv2GAAmff5zn+HB++9h0i9//lNy2SwAkxYvWsSdt9/Cg/ffQ+KXP/8puWwWgFw2yy9//lMevP8eJr3uNa8CYNLnP/cZfvnzn5LLZgHY2+JFi7jz9lt48P57qHXn7beweNEiABLHHXsMD95/D7V++fOfkstmAXjda17Fg/ffQ63XveZVADxdq1av4WOf/AxLVx7CG970NhYvXsQtN17DW970ejKZDAAJz/M463nP4c5bb+DNb3wdn/rsF1h58BF84Utfpa+vH4BnSxzHfP+HP2b79h288+1vxfc8AJ5tfX39fOFLX+Xgw4/h93/8C9/79jf4yY++x3e/9XW+9fWv8IMf/YQjjz2Jv/3jYqI4BuDhhx/httvv5LWvfiW+5wHgMpe5zGUuc5nLXOYyl7nMZS77X2MAnqw5c2bz61/+lD/9/tfMmD6dVCrFogULAJh06CEHcdyxx+B5HgCTDj30EC7759948xtfTy6bBaDW7FkzOerIw3nec8/kB9/9FjNnTAcg4RnDgvnziOOYvr5+AE4/7RSWL1uKiADwdJz1vOeQy+W49PIrUVWMCAD/X23ZsoXHHlvFrNmzAXDZ/mBEAHg8YbXK6tVr+NTHP8ID997BN776Jbq7ugDYl7q6Ot759rdy/z2384XPfor1GzZSrVYBmNTU1EQCYF+CIGDqlCkEQQDA3jzP411vfxt/+v2vmT9vLgDPhIjQ3t5GQ30dAJPCMOSRRx/jQx94L3ffcTNnPe85eJ6HiPDc55zBnbfewFnPPZNKpYLveURRxC9/9VvOOP1Uli9fBoDLXOYyl7nMZS5zmctc5jKXuex/kQF4KnzPI5/LAeB7Hq977avYsmE1ky748x+YOWM6ALV8zyObzQAwaerUKfzsxz8gsXTJEr725S/w7W9+jSlTegCYJCIcf9yxrF/9MFs2rCbx/e98k5aWFgCeruamJv7x1/N59StfjohgPAPA/wfvfuc72LlzF0cedSwrDzyExMte/iq++pUv8brXvAoAl+0PxjMAPJ4VK5bz94v+wste+mKam5oAeDJy2SwveuHz+e2vfsbUqVMAmPTJj3+EBMC+LFwwnwv/8gcWLpgPwL40NTWycOECAP6Vb379KyQA9iWXzfKD736Ll7/sJQBMmjKlh/P/9Dte95pXkctmAahVV1fHZz71cV764nMB8H2fH37/23zxc5/G9zwAXOYyl7nMZS5zmctc5jKXucxl/4sMwP6Sy2ZZtnQJS5csJpvNkMlk8D0PgP0h8H0Anq7jjj2GO2+/hcWLFgGwP7W1t3Hl5Zfw4P33UOu4Y48BwGX7S+D7ALjMZS5zmctc5jKXucxlLnOZy1zmsn0xAC6rlU4F+J4HgMtc9u/iex7pVACAy1zmMpe5zGUuc5nLXOYyl7nMZS7bFwPgsr1lMymMCAAuc9mzzYiQzaQAcJnLXOYyl7nMZS5zmctc5jKXucxlj8cAuGxvnueRz2XwPQ8Al7ns2eJ7HvlcBs/zAHCZy1zmMpe5zGUuc5nLXOYyl7nMZY/HALhsXzzPoy6fJZtJ4/seRgQAl7nsqTIi+L5HNpOmLp/F8zwAXOYyl7nMZS5zmctc5jKXucxlLnPZEzEALnsi6VRAXS5LQ32epoY6XOayp6qhPk9dLks6FQDgMpe5zGUuc5nLXOYyl7nMZS5zmcueDAPgMpe5zGUuc5nLXOYyl7nMZS5zmctc5jKX/bcxAC5zmctc5jKXucxlLnOZy1zmMpe5zGUuc9l/GwPgMpe5zGUuc5nLXOYyl7nMZS5zmctc5jKX/bcxAC5zmctc5jKXucxlLnOZy1zmMpe5zGUuc9l/GwPgMpe5zGUuc5nLXOYyl7nMZS5zmctc5jKX/bcxAC5zmctc5jKXucxlLnOZy1zmMpe5zGUuc9l/GwPgMpe5zGUuc5nLXOYyl7nMZS5zmctc5jKX/bcxAC5zmctc5jKXucxlLnOZy1zmMpe5zGUuc9l/GwPgMpe5zGUuc5nLXOYyl7nMZS5zmctc5jKX/bcxAC5zmctc5jKXucxlLnOZy1zmMpe5zGUuc9l/GwPgMpe5zGUuc5nLXOYyl7nMZS5zmctc5jKX/bcxAE9XGEZUqlXK5TKVSgWXucxlLnOZy1zmMpe5zGUuc5nLXOYyl7mkXC5TqVYJwwiAZ4sBeKqstVSqVayNQRURAcBlLnOZy1zmMpe5zGUuc5nLXOYyl7nMZS4REVDF2phKtYq1FoBnygA8FdZaqtUqqALgMpe5zGUuc5nLXOYyl7nMZS5zmctc5jKXTUKVarWKtRaAZ8IAPBVhFCEiALjMZS5zmctc5jKXucxlLnOZy1zmMpe5zGV7ExHCKALgmTAAT1YYRqAKgMtc5jKXucxlLnOZy1zmMpe5zGUuc5nLXPZ4UCUMIwCeLgPwZFm1ALjMZS5zmctc5jKXucxlLnOZy1zmMpe5zGX/ilULwNNlAJ4stRYAl7nMZS5zmctc5jKXucxlLnOZy1zmMpe57F9RawF4ugzAkyUiALjMZS5zmctc5jKXucxlLnOZy1zmMpe5zGX/iogA8HQZAJe5zGUuc5nLXOYyl7nMZS5zmctc5jJXjI+PMzw8jKoC8ExYa6lWq1hrAXg8qkq1WiWOYwD2Fscx5XIZgEkTExMMDQ2hqlhrUVUA/r8zAC5zmctc5jKXucxlLnOZy1zmMpe5zGUuCMOQRx99lIGBAUQEgKdqaGiIxx57jDAMGR8f5/bbb2d8fByAx2Ot5cEHH2Tr1q0A7G18fJxbb72VoaEhABJ9fX1s2LCBMAx58MEHWbVqFXEcA1BLValWq5TLZfYWxzE7duzgscce4/GMjY0B8N/CALjs/6OJiQkeevgRoigCwGUuc5nLXOYyl7nMZS5zmctc5jKXDQwMMDo6ysaNG7nyyit5Mvr6+gCYNDIywvj4OCICwOPZsWMHCYAnoqrs3LmTfD5PfX09ALU8z2PhwoUMDg7y2GOPEUURAJMqlQq33347N954I3sbHBxkYmKC/v5+9rZnzx52796NqgLw38IAuOx/2fDICN//4U/YsHETAJO+/NVvcN5LX8nv//hnAFzmMpe5zGUuc5nLXOYyl7nMZS5zVbFYZM2aNcycOZPjjz+eJ6u1tRWARBzHDA0NMTIywrXXXssdd9xBuVzmjjvu4MorryTx8MMPAzA0NEQC4ImUSiX6+vro6ekhCAIA9pbL5TjkkEMYGRlh/fr1qCoAiUwmw/HHH88pp5xCW1sb8+fP5/TTTyfR0dHBwoULOf7449nb8uXLCYKAVCoFwH8LA+Cy/2UPPPgQv/z1byiXywBMWr58GXPnzGbF8mUAuMxlLnOZy1zmMpe5zGUuc5nLXOaiUqnEgw8+CEBdXR0jIyP8K8VikXQ6jed5ACT6+voYGRlh0aJFrFy5kvnz5+P7PvPnz2flypUkpk+fDsCToars2LGDIAjo7u4GoJa1FlUFIJvNcuihhzJnzhxEBIBaURRRKpVoaGgAoNaaNWt47LHHUFUAEtVqlSAI8H0fgP8WBsBl/x+9+NwXctnFf+PAA1YC4DKXucxlLnOZy1zmMpe5zGUuc5lrJiYmuPfee7HW0tHRwdq1a+nv72dwcJDHs2nTJjZs2IC1FoBEFEX09fUxZcoUpk+fTldXF62trfi+T2trK11dXSSampoAeDJGR0fZsmULPT09pFIpACbV1dVRLpepVCoUi0X27NnD9u3bWbNmDXfccQfj4+MATCoWi6gq+XwegElxHDMxMUEQBIgIAImJiQlSqRTGGAD+WxiA/emWW27hi1/8Ivvyy1/+knK5DMBTcfMtt/KLX/2GoaEhvvSVr7NkxcEsWnYgL33Fa7j3vvtRVQASN99yK9/89nfZvmMHH/jwx1i07ECOPeFU1q5bD8DExATf+NZ3OOKYE1mwZCVHHHMi3/jWd5iYmAAgUalU+MWvfsPNt9zKho2bePmrXsuCJSs54OAj+MSnPkvvnj0A1Ords4f3ffAjLFlxMAuWrOS5Z7+Qy6+8ijiOAUisXrOWL375a2zctIlvfud7LFlxMIm/XPBXPvnpz/GHP/6ZcrnCj3/6cz756c9x8y23ArB6zVq++OWvsXPnLgAmbdi4iZe/6nUsWnYgiZe+4jXce9/9qCoACVXlqquv5aznn8uiZQeSeOkrXsO9992PqgLgMpe5zGUuc5nLXOYyl7nMZS5z2X87z/NoaWnhkEMOIZvNUl9fz+LFi1myZAmPp6urC4Bavu+zaNEiZs6cSaVSoVwuU61WUVWq1SrlcplJcRwD8ETCMGTdunVYawGYmJhg06ZNPProo9x66608/PDDlMtlbrnlFm6++WYeeOABduzYQRRFNDU14fs+AJMGBgZoaGggk8kAMCmOY8rlMo2NjQAkVJVSqUQmk8HzPAD+WxiA/WnFihWkUinGx8epVSwWOfDAA8lkMgA8FWvWrucf/7yEN731nQwMDvKH3/6SX/7sxzQ3NfHq176Rq6+5DoDEmrXr+csFF/H2d76Xe++7n+efcxbHHnMUnufRu2cPr3n9m/nz+Rfxpje8lt//5he86Q2v5c/nX8Rr3/hW+vsHAIjimBtvuoU//vl83vTWd3DM0UdxyT8u4tOf/Bh33X0vr37tG9m1azcAiUcefYxzXvBitm/fwde+/AV+8sPvcdKJJ/Dhj36SH/3kZ6gqALt7e7ngor/xoY98gj/9+QKee+bpJIIgAODx7O7t5cK//o3hkREAEldfcx3Pf9FLaGxo4Pvf+SaJObNn8erXvYl/XnIZAIlf//b3vPt9H2T5sqX86uc/4ac/+h7d3V28+rVv5PobbwLAZS5zmctc5jKXucxlLnOZy1zmsv922WyWJUuWkE6nARgaGuKaa67hyiuv5PGsW7cOgL2tWbOGm266iRtvvJHEfffdR6VS4b777uPGG29k0uDgIACPx1rLunXrmJiYIJ1OA1AoFNi6dSvFYpGWlhZmzpxJKpXioIMO4pRTTuH000/nhBNO4MADD2TRokVks1kAEpVKhd7eXvr7+7npppu48cYbufPOO6lWq1QqFaIoIpPJAJCI45hSqUQulwPgv4kB2J8aGho47rjjMMYAMGnOnDksW7YMgKdj/YaNLFq4gK99+QscsHIFRx5xGN/7zjd43vOew3e+/0MGB4cASIyNjdPS0swlf7+QL33+M3zhc59mzuxZ/OrXv6N3zx7+duGfee2rX8mhhxzMa1/9Si788+/ZvXs3P//lr1FVABI333IbH/7A+3jLm97A/HlzOefs5/GbX/6UOLb84le/QVUpFIt89evfYs6cWfzq5z/mOWeezgnHH8t73/0Ovvqlz/Pr3/6Bhx5+BIBEuVxmYmKCS/5+IV/98hdIvPD5Z/H5z36KV7z8pWQyad765jfy+c9+imOPORqAvfX27uEb3/oOzznzdL73nW9w8kknkPj8Zz/Fu97xVr717e+xY+dOiqUSN99yK6eechKf+fQnOOLwQzn2mKP52pe/wPHHH8v5F1xEpVIBwGUuc5nLXOYyl7nMZS5zmctc5rL/JS0tLZxyyimcfvrpPJ758+cDsLfly5dz+umnM+mII44gk8lwxBFHcPrppzOpo6MDgMczNDREb28vK1asIJ/PA9DZ2ckJJ5zAoYceyuLFi+ns7ERE8H0fz/MAeDyDg4MUCgVSqRTt7e3k83nK5TLWWsrlMqqKiFAul0mUSiUSmUyGcrlMHMcA/DcwAPvbypUrmTFjBgCJdDrNiSeeiO/7ADwd2WyGF5/3InzfByDh+z7nvvD5bN++gwcffhiARBAEvOdd76C+vh6ARF9/P9dcdz0vfP45zJg+DYBJs2fP4oXPP4drrruevv5+ABIHHXgARx99JACTpkzp4Tlnns4NN91MX38/69dv4MGHHubF576I+vp6ACYddeQRzJ41kxtuvBmASe96x9vo6ekG4Om47/4H2LW7l3Nf+Hx83wcgISKcecZpxDbm/vsfJJVK0dLSwh133sXtt99BHMcA+L7PD7/3bX724x+QTqcBcJnLXOYyl7nMZS5zmctc5jKXuex/yfj4OKtWreKxxx7j8fT29gLw75LP5znggANoamoCYF9SqRTGGEqlEgCPp1qtsnXrVgCam5tZsmQJM2bMACBRKBSoVCrcfvvt3HjjjSRuu+02KpUKDz/8MDfeeCODg4MA/DcwAPtbKpXi+OOPJ5VKAXDggQcyY8YMAJ6upqYmOjs6AKg1ZUoPLc3NbNy4GYBEW1srU3p6AJjU3z/A8PAwSxYvAmBvK1YsY3h4mP7+AQASU3q6yedyANRasngRw8PD9PcPMDQ8TBRFXHXNtXzy05+j1pe/9g127NjJ5i1biOIYgGw2w4wZ0wF4unbu2g3An8+/kE9++nPU+u73f8To6BgbN23G9zw+9uEPsmzpUt74lndw8GFH894PfJhbbr2NSqUCgMtc5jKXucxlLnOZy1zmMpe5zGX/azo6OliyZAn19fXs3LmTIAhobW1lb7Nnz2bu3LkYYwCYFMcxd999N1deeSWJO+64g3K5zB133MGVV15J4u677yaOYwAeTzabpaWlBYDH4/s++XyekZERAB7PwMAAAG1tbQDsbdq0aRx//PHsy1FHHUU6nQbgv4UB+G8wf/58li5dSlNTE0cffTQiAsCzzTMexjMAPBl+4APwTPiBD8C/Evg+p5x8IsuXLSWOIgD+3bKZDM8/+3lMmzYVgLa2Vn718x9z+83X8/GPfZjBwSHe9NZ3cuSxJ3HDjTejqgC4zGUuc5nLXOYyl7nMZS5zmctc9r+irq6OhoYGduzYQXt7O9OmTaOpqYl9qaurA2BfZs+ezfHHH89BBx1EOp3moIMO4vjjj2f58uUAPBs8z6OlpYWJiQniOAZgX9rb21m5ciWpVAqAvXmeRyaTYV+CIMAYg4gA8N/AAPw3EBGOO+44Tj75ZFpbWwF4JsIwpFwpA1BrcHCQsbFxGhvqAXg82WyGdDrNhg2bANjbhg2byOfzNDY2AJAolctEcQxAra1bt5FOp8lmM2TSGTzP4+UvfQmf/+ynqPW5z3yS97/v3Zz3oheSTqcBeDY0NtSTz+d465vfwOc/+ylqfeZTH+e9734HZ5x+KgCTWltbeNELzuF3v/45D9xzOyefdAIf++Rn2LJlKwAuc5nLXOYyl7nMZS5zmctc5jKX/S9QVXbt2sVtt91GqVRidHSUu+66izvvvJNad9xxBzfeeCMPPvggcRwDsDff98lkMqRSKUSEVCpFJpPB930Ani0tLS1MTEwwPj4OwCRVJQEQBAHZbBaAvUVRxJ49e+jt7WVvIyMjAHieRyqVAuC/gQH4b9HZ2cnBBx8MwDM1MDDIbbfdAUCte+9/AM8zHHDASgAez5SeHg5YuYJrrr2OkdFRACaNjI5yzbXXsXLFcjra2wFI3H33vWzevAWASeVymVtvu4OlS5YwpaeHBfPnMX36NK697npUFYBJj61azfEnncYVV14FwLPlgANWYq3ljjvvBqDWddffyDEnnMpDDz3C4OAQJ5/2XL793R8AMCmTyXDSCcdTKhUpFIsAuMxlLnOZy1zmMpe5zGUuc5nLXPbfTFUZGBjg9ttv55FHHqGxsRGAuXPnctxxx3H88ccz6dhjj2X69OkEQcCCBQvwfR+A/aW+vp6GhgZ27tyJqgKQ2LZtG6tWrcJaC8DjKZVKrF+/njVr1rC33t5eVBWA/yYG4P+jbDbDRX/7B9dcez1xHBNFERdfehnf+NZ3eP7ZZzFv7hwAHk8mk+Ftb34jW7Zu5WMf/zQ7du4EYMfOnXzs459my9atvPkNryOdTgOQyOayfOVr32TL1m0AjIyO8pWvf4s777yL173mVWQyGVpbWzj3hc/n/Asu4me/+BXFUglVZe3adXziU59l0cKFnHbaKQD8K77nUalUefiRRxkcHCKKIgD2Nnv2LM4843S+8a3vcPGllxFFEXEcc9vtd/LFr3yN0087hUMPOYiWlmZOPOE4/vSX87n5lluJ4xhVZeu27fz293+gu7ub7q4uAFzmMpe5zGUuc5nLXOYyl7nMZS77byYiRFFEU1MTxx57LIceeiiJTZs2cfvttzM4OIiqMjIywl133cWuXbs47LDDaGxsBOCpUFUAEsuXLycB8HR5nsfMmTPZs2cPY2NjACQKhQKqijEGgEmlUone3l6Gh4cBqK+v5+ijj+b4449nbwsXLqRarQKQSqUA+G9gAP4/ampq4lOf+Ci/+NVvWLz8IJasOJgPfvjjvOwlL+Z973knIgLAE1m+fBm//NmPWb9hIyed+hwWLFnJSac+h/UbNvKj73+H5cuXATDp0IMP4tWvfBkvPO9lLFiyksOOPI5LLr2cH3zv2xx5xGEAJF79ypfz0Y98kB/95OcccPARLFx6AGe94DymTp3C97/zTZoaGwH4Vw5YuYLnnHk6n/38lzjptDNZs3YdAHvzPY+Pfuj9vOJlL+HDH/0kS1YczOLlB/G6N76FU046kc9/9lP4vo+I8M63v4Xjjj2GN77lHSxefhALlx7AqWc8j76+AT736U/Q2toCgMtc5jKXucxlLnOZy1zmMpe5zGX/7bq6uliyZAnZbBaAxsZGjjrqKDo6Orjnnnu46qqruPPOO2lubuaII46grq4OgCerWq2yevVqEgCqCsCzoaWlhc7OTh566CFKpRJhGDI6OkpLSwsAtUZGRlizZg3bt28H4F+ZmJgAwPM8AP4bGID/r7q7uvjT73/NHbdcz603Xsv999zOhz7wXjKZDACJN73htdx47ZW0t7cBsLfly5Zy9RUXc9ftN3Hrjddy1+03cfUVF3PIwQcBsLdjjzma22++jltvvJbbb76eu267kROOPxYRASDheR6veNlLuO+uW7n95uu59cZruf+e2/nBd79FW1srAIkTjz+OB++9k6VLFgOwt/r6er7x1S+x9rEHefDeO1m6ZDEAJx5/HA/eeydLlywGIJHJZPjA+97Dg/fewa03Xkvi4fvv4hMf+zC5bBaARH19Pd/46pd4+P67uPXGa0ncdftNXH3FxRxy8EEAuMxlLnOZy1zmMpe5zGUuc5nLXPbfTlUZHh6mt7eXHTt28Nhjj3HHHXdw7bXXsnHjRhobG1mwYAGtra1s2bKFa6+9lptvvpmHH36YNWvW0NvbS7VaBUBVSaVSBEEAwCTf90mn03R1dbF06VJ836dcLrNq1Soee+wxVq1axcjICMYYAJ4KYwzz588nk8lw6623cv/991OpVGhubgagVnd3N8cffzzLly8HoJaqsm3bNh577DES9913H4888gitra0EQQDAfwMD8P+Z53m0tLTQ3t5GPpcD4KkSEZoaG2lvb6OpsRERAeDxpNNp2tvbaG1twfd9APbF931aW1tob28jn8sB8O+WTqdpb28jkU6nAdiXdDpNe3sbiabGRkQEAJe5zGUuc5nLXOYyl7nMZS5zmcv+V/T397NmzRq2b98OwLRp0zjqqKM49dRTOeKII5g1axaHHHIIp556KkcffTSzZ8/G8zyGh4fZvn07AAnf91m5ciXTpk0DwBhDJpPB931mz57NwoULyeVyABhjGBsbo7+/n5GREaZPn05PTw8AT1UQBBx00EHMnz+fMAxZsmQJ2WwWgEmLFi0iAdDR0cHxxx9PJpMBICEi+L5Pf38/CRFh+fLlzJ8/HxEB4L+BAXCZy1zmMpe5zGUuc5nLXOYyl7nMZS77/0pEmD9/PscffzxHHHEES5YsYerUqdTV1WGMAWCSMYa6ujqmTp3KkiVLOOKIIzjkkENIpVIA7K2+vp7DDz+c+vp6AGqlUikOP/xwjj/+eI455hgWLlxIKpUCYJLneRx66KHMnj0bgCfieR4zZszg6KOPpr29HYBaQRCQAHg8PT09HH/88SQOPPBAenp68DwPgP8WBuD/m4b6Onq6u/E8A8C/m4jQ3t5GU1MTAC5zmctc5jKXucxlLnOZy1zmMpe5zGUueyYMwP83L3nxufzp97+mpaUFgH+3XDbLt7/xVT764Q8A4DKXucxlLnOZy1zmMpe5zGUuc5nLXOayZ8IAuMxlLnOZy1zmMpe5zGUuc5nLXOYyl7nMZf9tDIDLXOYyl7nMZS5zmctc5jKXucxlLnOZy1z238YAuMxlLnOZy1zmMpe5zGUuc5nLXOYyl7nMZf9tDIDLXOYyl7nMZS5zmctc5jKXucxlLnOZy1z238YAuMxlLnOZy1zmMpe5zGUuc5nLXOYyl7nMZf9tDIDLXOYyl7nMZS5zmctc5jKXucxlLnOZy1z238YAPFkWQyJWIbIQxkoljCmVqxRKZcYLJUbHCwyPjjM4PMrA0AiT+geHcZnLXOYyl7nMZS5zmctc5jKXucxlLnPZ/5KBoREmDQ6PMjw6zuh4gfFCiUKpTKlcpRLGhLESWYhVsBgSAE+XAXgqVBURYZIxBs/38f0A3/NIBQGpVEAmk2ZSOp0ik0njMpe5zGUuc5nLXOYyl7nMZS5zmctc5rL/Jel0ikwmzaRUKiAVBPieh+8HeL6PMQYRYZKqAvBMGICnQkRQVUSEScYYEp7vk/A8n4TvB3iej+8HuMxlLnOZy1zmMpe5zGUuc5nLXOYyl7nsf5Hn+fh+gOf5JDzfJ2GMISEiTFJVRASAZ8IAPFUigqoiIiQAjDFM8jyPSb7v4zKXucxlLnOZy1zmMpe5zGUuc5nLXOay/2We5zHJGMMkABEhoaqICADPlAF4OkQEgIQxBhFhkjEGEcEYg8tc5jKXucxlLnOZy1zmMpe5zGUuc5nL/j8QEYwxiAiTjDEAJEQEgGeDAXgmRASAvYkILnOZy1zmMpe5zGUuc5nLXOYyl7nMZS77/wRgbyICwLPJADxbRIRaAC5zmctc5jKXucxlLnOZy1zmMpe5zGUu+/9ARKgF8O9iAFzmMpe5zGUuc5nLXOYyl7nMZS5zmctc5rL/NgbAZS5zmctc5jKXucxlLnOZy1zmMpe5zGUu+29jAFzmMpe5zGUuc5nLXOYyl7nMZS5zmctc5rL/NgbAZS5zmctc5jKXucxlLnOZy1zmMpe5zGUu+29jAFzmMpe5zGUuc5nLXOYyl7nMZS5zmctc5rL/NgbAZS5zmctc5jKXucxlLnOZy1zmMpe5zGUu+29jAFzmMpe5zGUuc5nLXOYyl7nMZS5zmctc5rL/NgbAZS5zmctc5jKXucxlLnOZy1zmMpe5zGUu+29jAFzmMpe5zGUuc5nLXOYyl7nMZS5zmctc5rL/NgbAZS5zmctc5jKXucxlLnOZy1zmMpe5zGUu+29jAFzmMpe5zGUuc5nLXOYyl7nMZS5zmctc5rL/NgbAZS5zmctc5jKXucxlLnOZy1zmMpe5zGUu+29jAFzmMpe5zGUuc5nLXOYyl7nMZS5zmctc5rL/NgbAZS5zmctc5jKXucxlLnOZy1zmMpe5zGUu+29jAFzmMpe5zGUuc5nLXOYyl7nMZS5zmctc5rL/NgbAZS5zmctc5jKXucxlLnOZy1zmMpe5zGUu+29jAFzmMpe5zGUuc5nLXOYyl7nMZS5zmctc5rL/NgbAZS5zmctc5jKXucxlLnOZy1zmMpe5zGUu+29jAFzmMpe5zGUuc5nLXOYyl7nMZS5zmctc5rL/NgbAZS5zmctc5jKXucxlLnOZy1zmMpe5zGUu+29jAFzmMpe5zGUuc5nLXOYyl7nMZS5zmctc5rL/NgbAZS5zmctc5jKXucxlLnOZy1zmMpe5zGUu+29jAFzmMpe5zGUuc5nLXOYyl7nMZS5zmctc5rL/NgbAZS5zmctc5jKXucxlLnOZy1zmMpe5zGUu+29jAFzmMpe5zGUuc5nLXOYyl7nMZS5zmctc5rL/NgbAZS5zmctc5jKXucxlLnOZy1zmMpe5zGUu+29jAFzmMpe5zGUuc5nLXOYyl7nMZS5zmctc5rL/NgbAZS5zmctc5jKXucxlLnOZy1zmMpe5zGUu+29jAFzmMpe5zGUuc5nLXOYyl7nMZS5zmctc5rL/NgbAZS5zmctc5jKXucxlLnOZy1zmMpe5zGUu+29jAFzmMpe5zGUuc5nLXOYyl7nMZS5zmctc5rL/NgbAZS5zmctc5jKXucxlLnOZy1zmMpe5zGUu+29jAFz2/9mme//M796T5rJvHUlYGgXgP2HTvX/md+9JM+nCT82kMLwdAJft7f5LP8mFn5pJYXg7AM/E/Zd+kgs/NZPC8HYAXPb/zQ2/fBG/e0+aSTf88kUATNqz6Vb+/OFWLvzUTArD2wFw2TNVGN7OhZ+ayf2XfhKAxxOWRrnsW0fyu/ekSfz5w63s2XQrAC57tm2698/87j1pJl34qZkUhrcDMOmGX76I370nzf2XfhKA/4/C0iiXfetIfveeNJvu/TMA+9uv7/sFb/7H69k9vhsAl7nMZS5zmctc5rInYgBc5rJ/h033/plb//Aalp78IV71nQqJcz+3hXzzNABc9v/Rnk238ucPt7Lp3j8D8N/khl++iMu+dSRhaRSA/0U3/PJF9K67gdPedR2v+k6FxAmvvwgAl/03CLKNPOd9t/Oq71Q4+hW/AeC/yZ5Nt/LnD7ey6d4/A/C/aNO9f+bWP7yGpSd/iFd9p0Li3M9tId88DYD/D+6/9JNc+KmZFIa3A/C/5MCeg6jGFR7b8wgALnOZy1zmMpe5zGVPxAC47P+z2Qe/lFd9p8Jz3nc7QbYRgH+3rQ/9lWxDNwuOehMALnOZy54theHtDGy9l675J9A5+2gA9qVz9tG89KuDnPu5LeSbpwHw/8n9l36S370nzd7+/OFW9my6FYD/L8LSKJd960h+9540N/zyRQD8t7j/0k/yu/ekmXThp2ZSGN4OwL/L1of+SrahmwVHvQmAx3PC6y/iVd+pcOBzPw/A/0dBtpHnvO92XvWdCrMPfikA+9uK7gOY1zqfu3fcCYDLXOYyl7nMZS5z2RMxAC5z2b9LrqmHVKYBAJe5zGXPtsbORQC4LEjXcdq7ruNV36kw6aVfHaRz9tEA/H8xtPsRiiO7WHD0WxjYei+F4e0A7E9haZTLvnUka2/5Eae96zpe9Z0KiTPfewuPXvdNAP6dck09pDINALjsv9WhUw9n/eA6Htr9AAAuc5nLXOYyl7nMZY/HAPx/cf+ln+R370kz6YZfvgiASZvu/TN//nArezbdyg2/fBG/e0+axIWfmklheDsAkzbd+2d+9540e7vwUzMpDG8H4MkqDG/nwk/N5HfvSZP484db2bPpVgASheHtXPipmWy698/cf+kn+d170iQu/NRMCsPbAUgUhrdz4admcv+ln2TTvX/md+9JM2nTvX8GILHp3j/zu/ekmXTDL18EQK3C8HYu/NRMNt37Z+6/9JP87j1pEhd+aiaF4e0ATNqz6Vb+/OFWfveeNLX+/OFW9my6FYAnozC8nQs/NZP7L/0km+79M797T5pJm+79MwCT9my6lT9/uJXfvSdN4s8fbmXPplsBSNzwyxeRuP/ST/K796S54ZcvYs+mW/nzh1v53XvSbLr3zwBMuv/ST/K796SZdP+lnwQgLI1y2beO5IZfvgiAve3ZdCt//nArm+79MwCJ+y/9JL97T5pJN/zyRQBM2nTvn/nzh1vZs+lWbvjli/jde9IkLvzUTArD2wF4PDf88kX87j1pLvvWkYSlUQCeisLwNi781Ex+9540ifsv/SQAte6/9JP87j1pJt3wyxcBsLcbfvkifveeNJPuv/STACRu+OWL+N170lz1vZMIKxPc+ofX8Lv3pJm06d4/A/BU7Nl0K3/+cCu/e0+axJ8/3MqeTbcCMOmGX76Iy751JGFpFIDEnk238ucPt7Lp3j+zZ9Ot/PnDrfzuPWm2P3IJg9vu488f7eB370mTuOxbRxKWRgFIFIa3c+GnZvK796RJ/PnDrezZdCsAtcLSKJd960h+9540iT9/uJU9m24FoNYNv3wRv3tPmkn3X/pJACbd8MsXkdiz6Vb+/OFWfveeNIlN9/4ZgKdiz6Zb+fOHW/nde9IkLvvWkYSlUQD2tuneP/O796TZ24WfmklheDt7Nt3Knz/cyqZ7/wzApBt++SIu+9aRhKVRADbd+2f+/OFW9my6lRt++SJ+9540iQs/NZPC8HYAJm2698/87j1pJt3wyxcB8O+wZ9OtXPipmezZdCs3/PJF/O49aRKXfetIwtIoAJP2bLqVP3+4ld+9J03izx9uZc+mWwHY2/2XfpLfvSdN4sJPzaQwvB2Ap6owvJ0LPzWT370nTeLCT82kMLwdgFo7V11FrqmHBUe+EYA9G28FYNL9l36SCz81k8LwdgASheHtXPipmdx/6ScBuOGXL+J370lz1fdOIqxMcOsfXsPv3pNm0qZ7/wzApBt++SJ+9540k+6/9JMATHrkum8wtmctJ775n3TOPhqARL55Goe96DsATLr/0k/yu/ekmXTDL18EwKQ9m27lwk/NZM+mW7nhly/id+9Jk7jsW0cSlkYBeCpu+OWL+N170kzadO+fAdjbnk238ucPt/K796Sp9ecPt7Jn060A3PDLF3HZt44kLI0CkNiz6Vb+/OFWNt37ZwAKw9u58FMzuf/ST7Lp3j/zu/ekmbTp3j8DMGnPplv584db+d170iT+/OFW9my6FYDC8HYu/NRMfveeNI9e+zVKY7v562fn8rv3pElc+KmZFIa3AxCWRrnsW0fyu/ekSfz5w63s2XQrAHvbs+lW/vzhVn73njSJCz81k8LwdgASheHtXPipmWy698/cf+kn+d170iQu/NRMCsPbAXiqDp9+BO35Du7fdR8ALnOZy1zmMpe5zGWPxwD8rwtLo1z2rSPZePfveeGnN/Cq71R44ac3MLD1Xi771pGEpVEAEmFlgqu+dxIAr/pOhZd+uY9cUw83/vrFhKVRADbd+2du/cNrOPoVv+FV36nwwk9vINvQTev0gzjnow+Rb54GwJNRGN7O5d8+hrYZB/Oq71RInPWRB1l1w3cIS6MATLr1D69h97rreOmX+0jkmnq48dcvJiyNAjDp0Wu/xn0Xf5QXfnoDr/pOhaUnf4i7LnwHezbdCsDsg1/Kq75T4aVf7qN1+kEAPJ5b//AaRves5lXfqfDSL/eRa+rhxl+/mLA0CsCeTbdy/U/PZsExb+NV36nw0i/30Tr9ILIN3Zz1kQfpnH0091/6SX73njSJ7Y9cwuC2+/jzRzv43XvSJO6/9JMATHr02q9x38Uf5YWf3sCrvlNh6ckf4q4L38GeTbcCUBjezqobvsOLPrOJV32nQqJr/glc/9Oz2bPpVgASA1vvpTi8g6Nf8Rt6193AHX95C8e86ne0Tj+IrQ/9FYDEDb98ERvv/j0v/PQGXvWdCqe96zrW3vIj7r/0kwTZRnKNPRRHdxGWRgHYm5+uJ98yjbA0ymXfOpKNd/+eF356A6/6ToUXfnoDA1vv5bJvHUlYGgUgEVYmuOp7JwHwqu9UeOmX+8g19XDjr19MWBoFYG83/PJFbH/kEo5+xW94zvtuJ8g2AvBUXPfTszjorC/zqu9UOPoVv+HRa7/Gpnv/DEBYGuWybx3Jxrt/zws/vYFXfafCCz+9gYGt93LZt44kLI0CUBjezoWfmklxdBcv/XIfr/pOhdPedR1rb/kRN/zyRQCc8PqLeNV3Kpz2rusI0nUc/Yrf8KrvVJg0++CXAvBkFYa3s+qG7/Ciz2ziVd+pkOiafwLX//Rs9my6FYAno3P20bz0q4O86jsVpi17Hq3TD+KlX+7jVd+pkHjO+24nyDYCsOneP/PXz85lzqGv5FXfqZBYcMzbuOp7J7Hp3j8DkNiz6VYu+sxsAF765T5e9Z0KL/rMJrbcfyFhaRSAwvB2LvzUTIqju3jpl/t41XcqnPau61h7y4+44ZcvAmDS9kcu4ebfvIKzPvIgr/pOhaUnf4i7LnwHezbdSlga5bJvHcnv3pPmr5+dS2lsN49e+zV+9540iT9/uJU9m24FoHP20bz0q4O86jsVpi17HgD7suneP3PrH17D0a/4Da/6ToUXfnoD2YZuWqcfxDkffYh88zQAnqywMsFV3zsJgFd9p8JLv9xHrqmHG3/9YsLSKAD3X/pJ7rrwHZz2rut41XcqvPDTGxjYei83/PJFAPw7RJVxrvreSTR2LuJV36nwwk9voDiyi1v/9HoAEoXh7ay64Tu86DObeNV3KiS65p/A9T89mz2bbgVg0raH/87uddfx0i/3kcg19XDjr19MWBoF4Mnas+lWLv7KSuYc+kpe9Z0KibYZB3P5t4+hMLwdgERYGmX3uuvonn8STT1LaZtxMFsf+isAT8UJr7+IV32nwmnvuo4gXcfRr/gNr/pOhUmzD34pAIXh7Vz4qZkUR3fx0i/38arvVDjtXdex9pYfccMvXwRAWBpl97rraOhcQEv3MgD2JSyNctm3jmTj3b/nhZ/ewKu+U+GFn97AwNZ7uexbRxKWRgFIRJVxrvreSTR2LuJV36nwwk9voDiyi1v/9HoA7r/0k/zuPWkS2x+5hMFt9/Hnj3bwu/ekSdx/6ScBSJzw+ot41XcqnPau6wjSdQDsbc+mW7n+p2ez4Ji38arvVHjpl/tonX4Q2YZuzvrIg3TOPhqAp+LRa7/GfRd/lBd+egOv+k6FpSd/iLsufAd7Nt0KQGF4O6tu+A4v+swmXvWdComu+Sdw/U/PZs+mW8k3T+Pcz23hVd+psPTkD5Ft6OaFn97Aq75TIXHu57aQb54GQJBt5Dnvu51XfafC0a/4DQD7cv+ln+Sq753EYef+gFd9p0KibcbBXPyVlezZdCsAk279w2sY3bOaV32nwku/3EeuqYcbf/1iwtIoAE9FXaqeRe2LuXP7Hewe3w2Ay1zmMpe5zGUuc9m+GID/ddsfu5yxPWs59jV/IN88DYB88zQOOuvLDG67j+2PXQ7ApKUnf4gTXn8RAEG2ke75J1Ec2UW1PAbA1of+Suv0g5i25EwA8s3TmHPoKxnbs5ah3Y8A8GRNDG8lqowzY8ULAUjkm6dxwusvIsg2AjCpdfpBnPrWKwiyjSQWHftOxvasZWj3IwBMap1+EOd89CHyzdMAmLL4NAAKQ9sBeCpapx/E0S/7JQBBtpHu+SdRHNlFtTwGwM5VV+Gn61lw1JsACLKNLDr2nZTGdrNn460AHPjcz/Oq71RITFv2PFqnH8RLv9zHq75TIXHgcz8PwKTW6QdxzkcfIt88DYApi08DoDC0HYB88zROeP1FBNlGABKLT3gPADtXXQVAIqqMM++o1wMQViaYvvz5dM4+GoDi6C7C0ih7Nt1K77obOOisL5NvngZA5+yjWXDM29h49+8pDG+nsXMRAInC8HYu/NRM7r/0kwAUhrYDUNc8g+2PXc7YnrUc+5o/kG+eBkC+eRoHnfVlBrfdx/bHLgdg0tKTP8QJr78IgCDbSPf8kyiO7KJaHgOg1v2XfpLtj1zC0a/4DbMPfikAT1VpbDeHnfsDZh/8UgCmLTmT1ukHsfrm7xOWRtn+2OWM7VnLsa/5A/nmaQDkm6dx0FlfZnDbfWx/7HIA1t72MwCOf+35BNlGADpnH82CY95G77ob2LPpVgCeTfnmaZzw+osIso0AJBaf8B4Adq66CoBnU1gaZfXN32fasudx4HM/D0Bi2UkfoHX6Qay++fuEpVEAVt3wHRo6F3DqW68gyDYCEGQbOexF3yXINgKw9rafAXD8a88nyDYC0Dn7aBYc8zZ6193Ank23ApAI0nUc+5o/kG+eBsCUxacBUBjaTpBt5Dnvu51XfafCCz+9gWxDN0tP/hCv+k6FxEu/Okjn7KMBeLK2PvRXWqcfxLQlZwKQb57GnENfydietQztfgSAp2rpyR/ihNdfBECQbaR7/kkUR3ZRLY9RGN7Oxrt/z4Jj3kbn7KMByDdP46CzvkzvuhvYs+lWAP4dpi17Hgc+9/MA5Jun0TbjYIqjuwhLowDkm6dxwusvIsg2ApBYfMJ7ANi56ioAJgWZBk596xUE2UYSi459J4Pb7mP7Y5cD8GStuuE7NHQuYNlJHwAgcegLvg3A2tt+BkBiaPcjFEd2MWXxaQDMWPFCBrbeS2F4OwDPtrW3/QyA4197PkG2EYDO2Uez4Ji30bvuBvZsupWh3Y8wtmct3fNPIsg2ArAv2x+7nLE9azn2NX8g3zwNgHzzNA4668sMbruP7Y9dDsCkacuex4HP/TwA+eZptM04mOLoLsLSKAc+9/O86jsVEtOWPY/W6Qfx0i/38arvVEgc+NzPA/Bk7Vx1FX66ngVHvQmAINvIomPfSWlsN3s23grAU9U6/SDO+ehD5JunATBl8WkAFIa2A5BvnsYJr7+IINsIQGLxCe8BYOeqqwB4NhWGt7Px7t+z9OQPMfvglwKQOPQF38ZP17Pqhu8AMKl1+kEc/bJfAhBkG+mefxLFkV1Uy2OUSiU+8P6PcOKJp7MvH3j/RyiVSgBMOrDnIKpxhcf2PAKAy1zmMpe5zGUuc9m+GID/dVsf+it+up665hkATOqcczTZhm5GelcBMKmpazEAkw587uc593NbyDdPIyyNUhzdBcDe/HQ9dc0zAHiy6ppn4KfrufUPr2HTvX8G4PF0zz+JINsIQCLfMg2AwtB2ACblGnsIso0AJDpnH81LvzrI7INfCsBT0T3/JIJsIwD7MrpnNQB7C9J15FumAfBU5Rp7CLKNACQ6Zx/NS786yOyDXwrAvtQ1z8BP1wMwqaFzAS3dywBINHUtBqDWzlVX4afr6ZxzNACTmroWE1XGmRjeSlPXYooju6iWx5gY3kpUGWf3uusIS6OM9K4CILH1ob/ip+upa54BwKTOOUeTbehmpHcVAJOauhYDMOnA536ecz+3hXzzNAAmPXDpp3j02q9x9Ct+w+yDXwrA05Ft6KZzztEAJIJsI7nGHooju6iWx9j60F/x0/XUNc8AYFLnnKPJNnQz0ruKsDTK7nXXkWvqIZVpAGDSlMWnAVAY2g7Av1td8wz8dD0Az7ah3Y8wtmctjZ2LAJgUZBvpnn8SxZFdVMtjFIa3M7D1Xrrnn0SQbQRgb2FplN3rriPX1EMq0wDApCmLTwOgMLQdgERD5wJaupcB8O8WlkYpju4CYG9+up665hkAPFVNXYsBmHTgcz/PuZ/bQr55Gns23kpUGWfK4tMAmJRvmQZAYWg7AE9FWJngqu+dxO/ek2bShZ+aSWF4OwCTZqx4IQBPRV3zDPx0PQC1uuefRJBtBCCRb5lGkK5jpHcVAE9GYXg7A1vvpXv+SQTZRgASqUwDuaYeRvesBiCxc9VV5Jp6aOleBkC+ZRpRZZw9G28F4NkUlkbZve46ck09pDINAEyasvg0AApD2wF4MrY+9Ff8dD11zTMAmNQ552iyDd2M9K4CYNKMFS8E4D9hdM9qAPYWpOvIt0wD4KnKNfYQZBsBSHTOPpqXfnWQ2Qe/FIB9qWuegZ+uB+DZtmfjrZTGdtPUtRiASfnmabTNOJji6C7C0igAie75JxFkGwHYWzab5Rvf/ArXX38l+/KNb36FbDYLwKQV3Qcwr3U+V2+4konqOAAuc5nLXOYyl7nMZXszAP8f5Jp6SGUaANjb6J7VADwZQbaRRce+k8Ft97H9scsBKAxvZ+Pdv6dtxsHkm6cB8GTlm6dxzkcfonX6Qdz6h9fwu/ek+fOHW9mz6VYA/tstPuE9RJVx1t72MwDC0iirb/4+DZ0LaOleBsC/w/2XfpLfvSfNpL9+di6lsd0APBWje1ZTGtvNXz87l9+9J82kW//wGgAS+ZZpAEwMb2XnqquYtvQsAKrlMQByTT2kMg0A5Jp6SGUaANjb6J7VADwVpbHdbLrvTwTpOvIt0wB4NjV2LgJgUq6ph1SmAYC9je5ZDUAi19hDkG0EYG8jvasAeLbdf+kn+d170kz662fnUhrbDcC/S1PXYgD2FlXGmRjeSiKqjNPUtRiAJ5Jr7CHINgKwt5HeVQD8pwXZRhYd+04Gt93H9scuB6AwvJ2Nd/+ethkHk2+eBsCzaaR3FWFlgqu+dxK/e0+aSVd97yTCygQAT1WQruO0d13Hq75TYdK5n9tCvnkaAE/F/Zd+kt+9J82kv352LqWx3QA8kbrmGfjpegCerInhrUSVcR699mv87j1pJv35ox0MbrsPgERYGmX3uuvINfYQZBsBaOleRkPnAlbf/H3C0igAz7ZcYw9BthGAvY30rgLgyco19ZDKNACwt9E9qwHYHxaf8B6iyjhrb/sZAGFplNU3f5+GzgW0dC8D4N/h/ks/ye/ek2bSXz87l9LYbgD+HYJ0HfmWaQDsrTiyi2p5DIB/l0OnHk5/oY+NgxsAcJnLXOYyl7nMZS7bmwH4/66xcxEAT9ZI7yoAbv3Da/jde9L89bNzaZtxMCe8/iIAnqog28hz3nc7r/pOhdPedR0A1//0bPZsuhWA/2aFoe2ElQkevfZr/O49af780Q4ATn3rFQTZRgCebfdf+kkevfZrHP2K3/Cq71RIvPDTG8g2dAPwVDR2LiLb0M0LP72BV32nQq2XfnWQztlHAxBVxikMbac4vIOZB74IgD0bb2V0z2pyjT0E2UYAnkhj5yIAnopsQzdnfeg+GjoXcP1Pz2bPplsBeLaM7llNrqmHVKYBgCfS2LkIgH+lqWsxAM+m+y/9JI9e+zWOfsVveNV3KiRe+OkNZBu6AfhP89P11DXPIOGn6xnpXQXA09XUtRiA/WGkdxUAt/7hNfzuPWn++tm5tM04mBNefxEAz7amrsUE6TpOe9d1vOo7FfY2++CXArA/3H/pJ3n02q9x9Ct+w6u+UyHxwk9vINvQDcATmRjeSlQZp6lrMQBPRl3zDPx0PUtP/hCv+k6FvZ3w+osAGNr9CGN71rL9kUv43XvSJP780Q4Gt93H2J61DO1+BID/pKauxdQ1z8BP17N73XWEpVEAno7GzkUA7A+Foe2ElQkevfZr/O49af780Q4ATn3rFQTZRgCebfdf+kkevfZrHP2K3/Cq71RIvPDTG8g2dAPwn5Zr6iGVaQDgXymVSnzg/R/hxBNPZ18+8P6PUCqVAKh1+PQjaM93cP+u+wBwmctc5jKXucxlLtubAfhfN2PFCxnbs5ah3Y8AMGnPxluJKuNMWXwaAE9GYXg7G+/+PUtP/hCv+k6FSSe8/iIA9haWRrnsW0fyu/ek2XTvnwF4Ip2zj+bEN/8TgMLQdgAez85VV+Gn6+mcczQA/2lhaZTVN3+facuex6u+U2HSc953O0G2EYBnW1gaZfe662idfhDTlpwJwDPR1LWYqDLOxPBWAPalrnkGfrqe4ugORvvX0tyznO75J7H1ob8C0Ni5CIAZK17I2J61DO1+BIBJezbeSlQZZ8ri0wB4qoJsI8e/9nz8dD03/+YVFIa3A1ArLI1y2beO5HfvSbPp3j8D8K8UhrczsPVeco09BNlGZqx4IWN71jK0+xEAJu3ZeCtRZZwpi08jyDbSPf8kBrbeS2F4OwCTdq66Cj9dT+ecowFI1DXPwE/XM9K7CoAncsMvX8Tv3pPm/ks/CcCksDTK7nXX0Tr9IKYtOROAp2LnqqsIKxMA1GrsXERxZBfV8hgAtVq6l9HQuYCtD/0VgElhaZTd666jbcbB5Junkco0kGvqYfe66whLowDsLcg20j3/JAa23ktheDsAk3auugo/XU/nnKMB+E8rDG9n492/Z+nJH+JV36kw6YTXXwTAEykMb2dg670APBX5lmkAFIa2A/Cv7Nl0K3/+cCsXfmomheHtAPw7hKVRdq+7jtbpBzFtyZkAPBU7V10FQL5lGgBPRirTQK6ph9E9qwF4PDtXXYWfrueFn97Aq75TYdJp77oOgJ2rrgJgX/ZsvJXS2G4AatU1z8BP1zPSuwqAWkG2ke75JzGw9V4Kw9sBmLRz1VX46Xo65xxNvnkabTMOZmzPWoZ2PwLAvsxY8ULG9qxlaPcjAEzas/FWoso4UxafBsB/WlgaZfXN32fasufxqu9UmPSc991OkG0E4InsXHUVYWUCgCcrLI2ye911tE4/iGlLzgTgiTR1LSaqjDMxvBWAp6NzztH46Xp2rroKgEmF4e0MbL2X7vknEWQbAfhXstks3/jmV7j++ivZl2988ytks1kAatWl6lnUvpg7t9/B7vHdALjMZS5zmctc5jKX1TIA/+umLTmThs4F3PuPDxGWRgEoDG/nvos/Stf8E+icfTQAT0Yq00CuqYfRPasB+FeGdj/C2J61AGx96K8A1Np075+5/9JPAjBp56qrAMi3TANgX/ZsupW1t/yIOYe+knzzNAD+04JsI7nGHoqjuwhLowD8uwXZRnKNPYztWcvQ7kcA2LPpVi7+ykpKY7sBeCqmLTmThs4F3PybV1AY3g7A3lKZBnJNPdx/ySfINfaQb57GlMWn0bvuBrY/cglNXYsBmLbkTBo6F3DvPz5EWBoFoDC8nfsu/ihd80+gc/bRADwd+eZpHPuaPxBVxrnx1y8mLI0CMGlo9yOM7VkLwNaH/grAv3L3394LwKEv+DYA05acSUPnAu79x4cIS6MAFIa3c9/FH6Vr/gl0zj4agAVHvQmAu//2XgASezbdytpbfsScQ19JvnkaAIlUpoFcUw8b7/49heHtAOxLYXg7A1vvBWD3uusIS6MAJIJsI7nGHsb2rGVo9yMA7Nl0Kxd/ZSWlsd0ATGrsXMTYnrUM7X4EgPsv/SSPXvs1APbW1LWY0thu1t72MwBqBdlGFh37TrY/cgmb7v0zAIlHrvsGY3vWsviE9wAQZBtZdOw7Gdx2H7f+6fUAJMLSKHdd9G7C0igAC456EwB3/+29ACT2bLqVtbf8iDmHvpJ88zQA/tNSmQZyTT2M7lkNwOOpa56Bn65n60N/BaAwvJ3Lv30MpbHdADwVnbOPpmv+Cdx14TvYs+lWAJ7IzlVXEVYmKI3tZs/GWwH4dwiyjeQaexjbs5ah3Y8AsGfTrVz8lZWUxnYD8Hj2bLqVtbf8iAXHvI3O2UcD8GQE2UYWHftOtj9yCfdf+kkA9haWRtm97jraZhxMvnkaAJNaupfR0LmA3euuIyyN0tS1mNLYbvZsvBWATff+mVv/8BoA9pbKNJBr6mHj3b+nMLwdgFoLjnoTAHf/7b0AJPZsupW1t/yIOYe+knzzNAAOfcG38dP1XP/Ts9mz6VYAEoXh7dx10XsAmLbkTBo6F3DvPz5EWBoFoDC8nfsu/ihd80+gc/bRAPynBdlGco09FEd3EZZGAXg8jZ2LGNuzlqHdjwBw/6Wf5NFrvwbAUxFkG8k19jC2Zy1Dux8BYM+mW7n4Kyspje0GoFa+ZRoAq274DgBPR755GnMOfSVrb/kRezbdCkDi7r+9F4AFR70JgH+30+c/B4DH9jwCgMtc5jKXucxlLnNZLQPwvy7INnLqW68A4M8f7eB370nz18/OZc6hr+SE118EwJMVZBs5+Jyv0bvuBn73njS1/vzhVvZsuhWASS3dy2joXADAjBUvBKDW7INfCsDv3pNm0sa7f89ZH3mQztlHAzDp0Wu/xu/ekyZx1fdO4rBzf8CBz/08AE/FDb98Eb97T5o/f7SDwW33sf2RS/jde9IkNt37ZwCerENf8G2KI7v480c7+N170tTadO+fAXi2Hf2yX9LQuYCrvncSv3tPmpt/8wpOevPFZBu6AXgqgmwjz3nf7bTNOJi/fnYuv3tPmkk3/PJFAATZRnKNPQDMWPFCAFq6l9HQuYAgXUe+ZRoAQbaRU996BQB//mgHv3tPmr9+di5zDn0lJ7z+IgCeic7ZR3PYuT9gcNt9/OPLKygMbwcg0dK9jIbOBQDMWPFCAGpNWXwaUWWcv352Lr97T5pEcXQX53z0IfLN0wAIso2c+tYrAPjzRzv43XvS/PWzc5lz6Cs54fUXAZDIN0/jzPfewsDWe/nde9IkrvreSRx27g848LmfB2BSkG3k+NeeD8BfPzuX370nTWLTvX8GYFK+eRptMw4GoHv+SQTZRgAmHf2yX9LQuYCrvncSv3tPmpt/8wpOevPFZBu6AZh04HM/T9f8E7jqeyfxu/ek2b3uOs760H1kG7oBqDX74Jey9OQP8ei1X+N370mTuOxbRxKWRgGYffBLOfoVv+HWP7yG370nTWLj3b/nrI88SOfsowFIzD74pZz2ruvoXXcDv3tPmsRFn5nNzAPPJcg2ApBvnsaZ772Fga338rv3pElc9b2TOOzcH3Dgcz8PwLPt/ks/ye/ekyax/ZFLGNx2H3/+aAe/e0+a+y/9JABBtpGDz/kavetu4HfvSVPrzx9uZc+mWwHIN0/j2Nf8gd51N/C796T562fnctBZX2bpyR8C4Kk64fUXseCYt3HV907id+9JM+mybx1JWBoFYNKUxacRpOvINnTTOedoAPYWVia46nsn8bv3pJn05w+3smfTrQA8WUe/7Jc0dC7gqu+dxO/ek+bm37yCk958MdmGbgAS+eZptM04mEev/Rq/e0+axFXfO4nDzv0BBz738wAk9my6lT9/uJXfvSfNrX94DWFlgqu+dxK/e0+ay751JGFpFIDZB7+U0951HWtv+RG/e0+aSX/+cCt7Nt3K0O5HGNuzlhkrXghArSDbSPf8kxjbs5ah3Y8w++CXsvTkD3HrH17D796T5r6LP8pZH7qP1ukHAVAryDZy/GvPB+Cvn53L796TJrHp3j8DkG+expnvvYWBrffyu/ekSVz1vZM47NwfcOBzPw9AIt88jXM/t4Wu+Sdw1fdO4nfvSZO4/NvHsPSk9wMQZBs59a1XAPDnj3bwu/ek+etn5zLn0FdywusvAuDZVhjezoWfmsnv3pPmqu+dRFiZ4NY/vIbfvSfNhZ+aSWF4OwCHvuDbFEd28eePdvC796SptenePwOQOPC5n6dr/glc9b2T+N170uxedx1nfeg+sg3dADwVR7/slzR0LuCq753E796T5ubfvIKT3nwx2YZuAGp1zj6aw879AdsfuYTfvSdN4sJPzaQwvB2APZtu5c8fbuV370lz6x9eQ1iZ4KrvncTv3pPmsm8dSVgaBeDA536eBce8jau+dxK/e0+aRHF0F+d89CHyzdMA+Hfrru9mRtMMrt5wJRPVcQBc5jKXucxlLnOZyyYZgP8Pgmwjz3nf7bzqOxUmHfjczwMwafbBL+VV36kw++CXArAvezbdyvU/PZuu+Sfwqu9UmPTSL/fR0LmAm3/zCgrD2wFIBNlGnvO+23nVdyrMPvilAOztwOd+nld9p8Kkcz+3hXzzNABqLT35Q7zqOxUmzT74pQBMyjdP49zPbeGE118EwOM54fUX8arvVNiX2Qe/FIB88zTO/dwWDnzu5wGYdOBzP8+5n9tCvnkaheHtXP7tY8g19fDSL/fxqu9UmDRt2fO468J3sGfTrQBMOuH1F/Gc991OkG0EoFa+eRrnfm4LJ7z+IgAeT5Bt5Dnvu51XfadC4tzPbaFj9lGc+7ktHPjczwNwwusv4jnvu50g28jsg1/Kq75TYfbBLyXINvKc991OIsg2ApA44fUX8arvVKh1wusvAiBxwusv4lXfqTD74JcCEGQbec77buelXx2kc/bRACSCbCPPed/tvOo7FSYd+NzPAzBp9sEv5VXfqTD74JcC8HgOfO7nOfdzW8g3TwMgMfvgl/Kq71Q493NbyDdPAyARZBt5zvtu51XfqTD74JcCUKtz9tG89KuDvOo7FSY95323E2QbAZgUZBt5zvtu51XfqTDpwOd+HoBa+eZpnPu5LbzqOxUmzT74pQDsLd88jXM/t4VXfafCpNkHvxSAWie8/iJe9Z0KBz738wDUCrKNPOd9t/Oq71RInPu5LXTMPopzP7eFA5/7eQAmnfD6i3jVdyoknvO+22nqWcq5n9vC7INfCkCtA5/7eV71nQqTnvO+2wmyjQAkZh/8Ul71nQqTzv3cFvLN0wCo1Tn7aF761UFe9Z0KiZd+dZDO2UcDMCnfPI1zP7eFV32nwqTZB78UgEknvP4invO+2wmyjQAkOmcfzUu/Osjsg18KwKR88zTO/dwWDnzu5wHY24HP/Tyv+k6FfTnwuZ8HYM+mW7n+p2fTNf8EXvWdCpNe+uU+GjoXcPNvXkFheDsAnbOP5qVfHeRV36mQmH3wSznwuZ/nOe+7nSDbCMDsg1/Kq75TYfbBLwXgiRz43M/zqu9UqPWc991OkG0EYFLn7KN56VcHOfdzW8g3TwOg1oHP/Tyv+k6Fvb30q4N0zj4agM7ZR/PSrw4y++CXAjDphNdfxHPedztBthGAINvIc953O6/6ToXEuZ/bQsfsozj3c1s48LmfByBxwusv4lXfqVBr9sEvBWBS5+yjeelXB3nVdyrs7Tnvu50g2whAonP20bz0q4O86jsVJr30q4N0zj6axEu/Osjsg18KwN4OfO7neelXB+mcfTQABz7387zqOxUS535uC009S3nO+27nwOd+HoBa+eZpnPu5LbzqOxUmzT74pQAk8s3TOPdzW3jVdypMmn3wSwHY2wmvv4hXfafCpHM/t4V88zQAEkG2kee873Ze9Z0Kkw587ucBmNQ5+2he+tVBZh/8UgAmnfD6i3jO+24nyDYCMOmE11/Ec953O0G2EYBa+eZpnPu5LbzqOxX2du7ntpBvnkZheDuXf/sYck09vPTLfbzqOxUmTVv2PO668B3s2XQrAIkTXn8Rr/pOhcRz3nc7TT1LOfdzW5h98EsByDdP49zPbeGE118EwOMJso08532386rvVEic+7ktdMw+inM/t4UDn/t5AGrNPvilvOo7FSad+7kt5JunAdA5+2he+tVBXvWdCnt7zvtuJ8g2ApA48Lmf51XfqTDpOe+7nSDbCEAi3zyNcz+3hQOf+3kAJh343M9z7ue2kG+eBsAzcejUw+kv9LFxcAMALnOZy1zmMpe5zGWTDIDL9lYY2k5YmWDGihcCMCnINpJr7AHAFRPDW4kq43TPP4kg2wjApMbORQC4zGUu+19SGNpOWJlgxooXAjApyDaSa+wBwGUuc8HE8Faiyjjd808iyDYCMKmxcxEALvt3OHz6EbTnO7hs7SUAuMxlLnOZy1zmMpdNMgAu21u+ZRpBuo6tD/0VgEmb7v0z2x+5hLYZB5NvngbA/3d1zTPw0/XsXncdYWkUgMSeTbey9pYf0dC5gJbuZQC4zGUu+1+Qb5lGkK5j60N/BWDSpnv/zPZHLqFtxsHkm6cB4DKX/X9W1zwDP13P7nXXEZZGAUjs2XQra2/5EQ2dC2jpXgaAy55Ndal6vnb6t/jY8Z8CwGUuc5nLXOYyl7lskgFw2d46Zx/NiW/+J73rbuB370kz6dY/vIajX/EbTnj9RQC4IN88jTPfewvFkV38+aMd/O49aRJXfe8kFhzzNp7zvtsJso0AuMxlLvtf0Dn7aE588z/pXXcDv3tPmkm3/uE1HP2K33DC6y8CwGUu+/8u3zyNM997C8WRXfz5ox387j1pEld97yQWHPM2nvO+2wmyjQC4zGUuc5nLXOYyl7nsP8EAuGxfOmcfzUu/OsirvlOh1uyDXwrAsy3fPI1zP7eFA5/7eQD+m+Sbp3Hu57bwqu9UqHXgcz8PgMtc5rL/NZ2zj+alXx3kVd+pUGv2wS8FwGUuc0W+eRrnfm4Lr/pOhVoHPvfzALjMZS5zmctc5jKXuew/yQC4zGUuc5nLXOYyl7nMZS5zmctc5jKXucxl/20MgMtc5jKXucxlLnOZy1zmMpe5zGUuc5nLXPbfxgC4zGUuc5nLXOYyl7nMZS5zmctc5jKXucxl/20MgMtc5jKXucxlLnOZy1zmMpe5zGUuc5nLXPbfxgC4zGUuc5nLXOYyl7nMZS5zmctc5jKXucxl/20MgMtc5jKXucxlLnOZy1zmMpe5zGUuc5nLXPbfxgC4zGUuc5nLXOYyl7nMZS5zmctc5jKXucxl/20MgMtc5jKXucxlLnOZy1zmMpe5zGUuc5nLXPbfxgC4zGUuc5nLXOYyl7nMZS5zmctc5jKXucxl/20MgMtc5jKXucxlLnOZy1zmMpe5zGUuc5nLXPbfxgC4zGUuc5nLXOYyl7nMZS5zmctc5jKXucxl/20MgMtc5jKXucxlLnOZy1zmMpe5zGUuc5nLXPbfxgC47P+zazdczcvOP5cPXfk+JqrjAPwnXLvhal52/rlMevM/Xs/u8d0AuGxvv77vF7z5H69n9/huAJ6JX9/3C978j9eze3w3AC77/+ZLN36Ol51/LpO+dOPnAJj00O4HeO1fX8Gb//F6do/vBuD/q4nqOB+68n287PxzuXbD1QA8nonqOB+68n186cbPAZD49X2/4M3/eD27x3cD4DKXuazWl278HC87/1wmfenGzwEw6aHdD/Dav76CN//j9ewe3w3A/0fXbrial51/Lh+68n1MVMcB2J92j+/mzf94Pb++7xcAuMxlLnOZy1z2v8wAuMxl/w7XbriaX933c06Zexp/evGFJH56zi/pru8GwGX/Hz20+wFe+9dXcO2GqwH4b/KlGz/Hh658HxPVcQD+F33pxs+xfnAdHz72Y/zpxReS+NjxnwLAZS7bPb6bN//j9fz6vl8A4LL95Us3fo4PXfk+JqrjAPwv+tKNn2P94Do+fOzH+NOLLyTxseM/BcD/F1+68XN86Mr3MVEdB+B/RXd9NzOaZrC6fxUT1XEAXOYyl7nMZS77X2UAXPb/2clzT+VPL76Qr53+LepS9QD8u929407q0w2cPv85ALjMZS57tuwe383Wka3Ma53Piu4DANiXFd0H8OsX/oGfnvNLuuu7Afj/qi5Vz9dO/xZ/evGFnDz3VAD+mz20+wFe+9dX8LLzz6XWl278HAD720R1nA9d+T5edv65TPr1fb8A4P+bazdczcvOP5fX/vUVPLT7AQD+G+we382b//F6Xnb+uUz69X2/AODfZff4braObGVe63xWdB8AwL6s6D6AX7/wD/z0nF/SXd8NwP9HJ889lT+9+EK+dvq3qEvVA7C/PWfB8xgtj7JxcAMALnOZy1zmMpf9rzIALnPZv0tjppH6dB0ALnOZy55t3fU9ALjsf93rDnojf3rxhSS+eeb32DqylTf/4/XsHt8NwP6we3w377/8PQD87Pm/4k8vvpAEwLUbrgbg/5O7d9zJ3JZ5tOc7uH/XfQDsb9duuJr3X/4uZjTN4E8vvpBJuVSeh3Y/AMC/U3d9DwAu+281p3UujZlGLlt7CQAuc5nLXOYyl/2vMgD/X/z6vl/wsvPPZdKXbvwcAJOu3XA1r/3rK3ho9wN86cbP8bLzzyXx5n+8nt3juwGYdO2Gq3nZ+eeytzf/4/XsHt8NwJO1e3w3b/7H63nZ+eeSeO1fX8FDux8AILF7fDdv/sfruXbD1fz6vl/wsvPPJfHmf7ye3eO7AUjsHt/Nm//xen593y+4dsPVvOz8c5l07YarAUhcu+FqXnb+uUz60o2fA6DW7vHdvPkfr+faDVfz6/t+wcvOP5fEm//xenaP7wZg0kO7H+C1f30FLzv/XGq99q+v4KHdDwDwZOwe382b//F6fn3fL7h2w9W87PxzmXTthqsBmPTQ7gd47V9fwcvOP5fEa//6Ch7a/QAAiS/d+DkSv77vF7zs/HP50o2f46HdD/Dav76Cl51/LtduuBqASb++7xe87PxzmfTr+34BwER1nA9d+T6+dOPnANjbQ7sf4LV/fQXXbrgagMSv7/sFLzv/XCZ96cbPATDp2g1X89q/voKHdj/Al278HC87/1wSb/7H69k9vhuAx/OlGz/Hy84/lw9d+T4mquMAPBX9E728+R+v52Xnn0vi1/f9AoBav77vF7zs/HOZ9KUbPwfA3r504+d42fnnMunX9/0CgMSXbvwcLzv/XL5685eoRBV+dd/Pedn55zLp2g1XA/BUPLT7AV7711fwsvPPJfHav76Ch3Y/AMCkL934OT505fuYqI4DkHho9wO89q+v4NoNV/PQ7gd47V9fwcvOP5dH9zzCjtHtvOnvr+Nl559L4kNXvo+J6jgAid3ju3nzP17Py84/l8Rr//oKHtr9AAC1JqrjfOjK9/Gy888l8dq/voKHdj8AQK0v3fg5Xnb+uUz69X2/AGDSl278HImHdj/Aa//6Cl52/rkkrt1wNQBPxUO7H+C1f30FLzv/XBIfuvJ9TFTHAdjbtRuu5mXnn8ve3vyP17N7fDcP7X6A1/71FVy74WoAJn3pxs/xoSvfx0R1HIBrN1zNa//6Ch7a/QBfuvFzvOz8c0m8+R+vZ/f4bgAmXbvhal52/rlM+tKNnwPgqfrSjZ/jZeefS63X/vUVPLT7AQBqfenGz/Gy888l8aa/v44do9sB2Fv/RC9v/sfredn555L49X2/AKDWRHWcD135Pl52/rkkXvvXV/DQ7gcAeCa667t522HvoBpX+PV9Pwdg0pdu/BwvO/9cJn3pxs8BkPj1fb/gZeefy/svfxfjlTGu2XAVLzv/XCb9+r5fADDp2g1X87Lzz2XSm//xenaP7wYgceW6y6jGFV6+4pXUpeoBSLz2oDdw8txTAZi0e3w3b/7H63nZ+eeSeO1fX8FDux8AILF7fDdv/sfr+fV9vwBg0q/v+wVv/sfr2T2+G4Dd47t58z9ez6/v+wXXbrial51/LpOu3XA1ALV+fd8veNn55zLp1/f9AoBa1264mpedfy6TvnTj5wCotXt8N1tHtnLsrONZ1L6Y1f2rmKiOAzDpSzd+jg9d+T4mquMAJB7a/QCv/esruHbD1Ty0+wFe+9dX8LLzz+XRPY+wY3Q7b/r763jZ+eeS+NCV72OiOg5AYvf4bt78j9fzsvPPJfHav76Ch3Y/AEBi9/huLnz0fJZ2LuNjx38KgEkvXvZSVnQfAMCkL934OV52/rlM+vV9vwBg0pdu/ByJh3Y/wGv/+gpedv65JK7dcDUAT8VDux/gtX99BS87/1wSH7ryfUxUxwHY27UbruZl55/L3t78j9eze3w3D+1+gNf+9RVcu+FqACZ96cbP8aEr38dEdRyAazdczWv/+goe2v0AX7rxc7zs/HNJvPkfr2f3+G4AJn3pxs/xsvPPZdKXbvwcAImHdj/Aa//6Cl52/rk8uucRdoxu501/fx0vO/9cEh+68n1MVMcBuHbD1bzs/HOZ9KUbPwfAvvz6vl/wsvPPZdKXbvwcAJN+fd8v+NCV72PD0Hre/I/X87LzzyXx6/t+AcBTVZeq59S5p7N1ZCu7x3cD4DKXucxlLnPZ/yID8L9uojrOh658H3duv4Nvnvk9/vTiC/nmmd9j68hWPnTl+5iojgOQqEQVvnrzlwD404sv5GfP/xWNmUa+fdvXmaiOA3Dthqv51X0/53UHvZE/vfhCvnnm96hPNzC1cRrfPPM7dNd3A/Bk7B7fzWeu+wQzmmbwpxdfSOJLp36dy9ZewkR1HIBJv7rv56zuX8XPnv8rEo2ZRr5929eZqI4DMOmaDVdx4aPn880zv8efXnwhp8w9jT8+9Dse2v0AACfPPZU/vfhCfvb8XzG1cRoAj+dX9/2c3eO7+NOLL+Rnz/8VjZlGvn3b15mojgPw0O4H+M7t3+TYmcfzpxdfyM+e/yumNk6jPt3Al079Oiu6D+DX9/2Cl51/LolH9zzCjtHtvOnvr+Nl559L4tf3/QKASddsuIoLHz2fb575Pf704gs5Ze5p/PGh3/HQ7gcA2D2+m8vWXsL3n/dj/vTiC0nMa53Pd27/Jg/tfgCAxNaRrQyXhnjdQW9k/eA6fnXfz3njwW9lauM07t5xJwCJL934Oe7cfgffPPN7/OnFF/LhYz/GzVtu5Nf3/YK6VD1NmSZGyiNMVMcB2FvKS9Oeb2eiOs6Hrnwfd26/g2+e+T3+9OIL+eaZ32PryFY+dOX7mKiOA5CoRBW+evOXAPjTiy/kZ8//FY2ZRr5929eZqI4DsLcv3fg5Ht3zCK876I187fRvUZeqB+Cp+Pbt3+TcpS/mTy++kNcd9Eau2XAV1264GoCJ6jgfuvJ93Ln9Dr555vf404sv5Jtnfo+tI1v50JXvY6I6DsDu8d28+R+vZ6Q8ws+e/yv+9OIL+fCxH+PmLTfypRs/B8DHjv8Uf3rxhXz42I+R9tO87qA38qcXX8ikk+eeCsCTtXt8N5etvYTvP+/H/OnFF5KY1zqf79z+TR7a/QAAT8aK7gP49Qv/wJ9efCFLO5cxtXEaP3v+r/jTiy8k8bXTv0Vdqh6AazdczfsvfxeHTzuCP734QhLHzjyer978Ja7dcDUAiYd2P8A7L3krAD97/q/404sv5PvP+zG3b72Vieo4ALvHd/Pmf7yekfIIP3v+r/jTiy/kw8d+jJu33MiXbvwcAJMe3fMIP7rrB3zp1K/zpxdfyClzT+OPD/2Oh3Y/wER1nA9d+T5edv65vP/ydzFeGeOaDVfxsvPPJfHav76Ch3Y/AMCK7gP49Qv/wJ9efCFLO5cBsC/XbriaX933c1530Bv504sv5Jtnfo/6dANTG6fxzTO/Q3d9NwBPViWq8NWbvwTAn158IT97/q9ozDTy7du+zkR1HIBf3/cL/vjQ7/jwsR/jTy++kG+e+T22jmzlSzd+DoCn4mPHf4o/vfhCJr3uoDcCUGuiOs6HrnwfI+URfvb8X/GnF1/Iz57/K6Y2TgNgb9++/Zucu/TF/OnFF/K6g97INRuu4toNVwOQeGj3A7zzkrcC8LPn/4o/vfhCvv+8H3P71luZqI4D8Eys6D6Aea3z2Tqyld3juwH49X2/4NCph/OnF19I4sPHfoz1g+v40o2fA+C1B72BP734Qr555veoTzdwytzT+NOLL2TSaw96AwCJh3Y/wMO9D/KnF19I4mfP/xWNmUY+c90n2D2+G4BEJarQX+gH4PFcu+Fq3n/5uzh82hH86cUXkjh25vF89eYvce2GqwF4qq7ZcBUXPno+3zzze/zpxRdyytzT+ONDv+Oh3Q8AMFEd50NXvo+bt9zIh4/9GH968YUkcqk8D+1+AIDEr+/7BX986Hd8+NiP8acXX8g3z/weW0e28qUbPwfApMf2PALAks5lHNhzEKPlUTYObgDgyVrRfQC/fuEf+NOLL2Rp5zKmNk7jZ8//FX968YUkvnb6t6hL1QNw7Yaref/l7+LwaUfwpxdfSOLYmcfz1Zu/xLUbrgbgsT2PMF4Z49CphwPweHaP7+bN/3g9I+URfvb8X/GnF1/Ih4/9GDdvuZEv3fg5ACY9uucRfnTXD/jSqV/nTy++kFPmnsYfH/odD+1+gInqOB+68n287Pxzef/l72K8MsY1G67iZeefS+K1f30FD+1+AIAV3Qfw6xf+gT+9+EKWdi4DYF+u3XA1v7rv57zuoDfypxdfyDfP/B716QamNk7jm2d+h+76bgCerEpU4as3fwmAP734Qn72/F/RmGnk27d9nYnqOAC/vu8XHDr1cP704gtJfPjYj7F+cB1fuvFzAKzoPoBfv/AP/OnFF7K0cxlTG6fxs+f/ij+9+EISXzv9W9Sl6gE4ee6p/OnFF/Kz5/+KqY3TANjbRHWcD135Pu7cfgffPPN7/OnFF/LNM7/H1pGtfOjK9zFRHQcgsWN0O1+84bO87bB38KcXX8jrDnoj12y4ims3XA3AU7WkcxkAV667DACXucxlLnOZy/4XGYD/dXduu4P+Qh9vO+wddNd3A9Bd3825S1/MjtHt3LntDgAmnTL3ND52/KcAqEvVs6h9MaPlUcYrEwDcveNOpjZO4/DpRwDQXd/N4dOOoL/Qx8bBDQA8WX0TvVTjCodOPRyARHd9Nx87/lPUpeoBmDS1cRqfOvGz1KXqSZw693T6C31sHNwAwKSpjdP45pnfobu+G4ADew4CoL/QD8BTMbVxGu868r0A1KXqWdS+mNHyKOOVCQDu33UfKS/N6fOfA0Bdqp5T557OeGWMx/Y8AsBrD3oDf3rxhSSWdi5jauM0fvb8X/GnF19I4rUHvQGASVMbp/HNM79Dd303AAf2HARAf6EfgO76bj52/KeoS9UDkHjOgucBcP+u+wBIVOMKJ805BYBKVGFl94Es714OwEh5hInqOA/tfoD1g+s4d+mL6a7vBmBF9wEcO/N47tx+B7vHd9Nd3wNAYvf4bt78j9fz6/t+AUB/oR+Ajrou7tx2B/2FPt522Dvoru8GoLu+m3OXvpgdo9u5c9sdAEw6Ze5pfOz4TwFQl6pnUftiRsujjFcmAKj16/t+waN7HuF1B72Rk+eeCsBTNV4Z4+UrXsXJc08F4PDpRzC1cRpXb7iSieo4d267g/5CH2877B1013cD0F3fzblLX8yO0e3cue0OAK5cdxkA7z3qg9Sl6gFY0X0Ax848nvWD63ho9wMAPJu667v52PGfoi5VD0DiOQueB8D9u+4D4Nk0UR3n6g1XsrRzGa896A0AJM5d9mKmNk7j6g1XMlEdB+CytZfQnu/gUyd+lrpUPQB1qXreevg7qUvVA3DlussAeO9RH6QuVQ/Aiu4DOHbm8awfXMdDux8AIJH207ztsHfQXd8NwIE9BwHQX+inLlXP107/Fn968YV888zvUZ9u4JS5p/GnF19I4tcv/AMrug8A4Mm6e8edTG2cxuHTjwCgu76bw6cdQX+hj42DGwB4qk6ZexofO/5TANSl6lnUvpjR8ijjlQl2j+/mzu13cOzM41nRfQAA3fXdnLv0xawfXMdDux8A4Nl057Y76C/08fIVr6QuVQ/A4xmvjPHyFa/i5LmnAnD49COY2jiNqzdcyUR1HIDL1l5Ce76DT534WepS9QDUpep56+HvpC5VD8CzoRpX6JvoBeC1B72Bk+eeCkBiRfcBzGudz9aRrewe3w3Ak7Wi+wDed/SHAEjUpeo5de7pjFfGeGzPIwCcPv851Kcb+NV9P+fN/3g9u8d3A1BrojrO1RuuZGnnMl570BsASJy77MVMbZzG1RuuZKI6DsBTMbVxGt888zt013cDcGDPQQD0F/oBuHPbHfQX+njPke9nRfcBACRevOylrOg+AIDd47u5c/sdHDvzeFZ0HwBAd3035y59MesH1/HQ7gcASNy9405mNM2gu76bOa1zacw0cv+u+wB4tk1Ux7l6w5Us7VzGaw96AwCJc5e9mKmN07h6w5VMVMe5e8ed1KcbWNK5DIDHc+W6ywB471EfpC5VD8CK7gM4dubxrB9cx0O7HwAgkfbTvO2wd9Bd3w3AgT0HAdBf6KcuVc/XTv8Wf3rxhXzzzO9Rn27glLmn8acXX0ji1y/8Ayu6DwDgybp7x51MbZzG4dOPAKC7vpvDpx1Bf6GPjYMbAHiqTpl7Gh87/lMA1KXqWdS+mNHyKOOVCQBee9AbOHnuqQAkVnQfwLzW+Wwd2cru8d0APJvu3HYH/YU+3nbYO+iu7wagu76bc5e+mB2j27lz2x0ATHr5ilexovsAAJZ0LqM+3cD20W0APFXd9d3MaJrB6v5VTFTHAXCZy1zmMpe57H+NAfhfd/eOO0l5aTrqugCYtKRzGfXpBraPbgNg0rTG6QBMeu1Bb+Cn5/yS7vpuJqrjjJRHANhbykvTUdcFwJPVUddFykvzq/t+zrUbrgbg8SxqX0xdqh6ARHu+HYD+Qj8Ak5oyTdSl6gFIrOg+gF+/8A+cPPdUAJ6KRe2LqUvVA7Avu8d3AbC3tJ+mPd8OwFPVlGmiLlUPQGJF9wH8+oV/4OS5pwKwLx11XaS8NACT2vMdzGmdC0BiWuN0AGrdv+s+Ul6aJZ3LAJg0rXE61bhC30Qv0xqnM1oeZbwyQd9EL9W4wur+VUxUx9k+ug2AxN077iTlpemo6wJg0pLOZdSnG9g+ug2ASdMapwMw6bUHvYGfnvNLuuu7AZj054d+zzUbruJ1B72Rk+eeCsDTUZ9uYEnnMgASdal6mjJNjJZHGa9McPeOO0l5aTrqugCYtKRzGfXpBraPbmOiOs7q/lU0ZhqpT9cBMOnAnoMA6C/0A/Dv1lHXRcpLA/Bs2zi4gf5CH931PQBMqkvVs6h9MaPlUcYrE+we383Wka0sal9MXaoegL1NVMdZ3b+Kxkwj9ek6ACYd2HMQAP2FfgAS7fkO5rTOBeDfbaI6zkh5BIC9pbw0HXVdADxV0xqnAzDptQe9gZ+e80u667t5bM8jVOMKB/YcBMCk9nw7AP2FfgCeTXfvuJP2fAdzWucC8ETq0w0s6VwGQKIuVU9TponR8ijjlQl2j+9m68hWFrUvpi5VD8C/Q3d9DwBPpLu+B4BnQ3u+nbSfBiDRXd/NT8/5JafMPY3xyhjvv/xdvOz8c7l2w9UAJDYObqC/0Ed3fQ8Ak+pS9SxqX8xoeZTxygQAT0VTpom6VD0AiRXdB/DrF/6Bk+eeCsDdO+6kPd/BnNa5AOzLY3seoRpXOLDnIAAmtefbAegv9AOwe3w3W0e2cujUwwGoS9XTlGlidf8qJqrjADybNg5uoL/QR3d9DwCT6lL1LGpfzGh5lPHKBAD/ykR1nNX9q2jMNFKfrgNg0oE9BwHQX+gHINGe72BO61wA/t0mquOMlEcA2FvKS9NR1wXAUzWtcToAk1570Bv46Tm/pLu+G4B96a7vAeDf4e4dd5Ly0nTUdQEwaUnnMurTDWwf3QZAoj7dwJLOZQA8W56z4Hn0F/q4c9sdALjMZS5zmctc9r/GAPx/0JhppD5dB8Dedo/vAuDJqEvVc+rc09kxup07t90BwO7x3dy5/Q5mNM2gu74bgCeru76bb575HaY2TuNX9/2cl51/Lq/96yt4aPcDAPy3e86C51GNK1y57jIAJqrjXL3hStrzHcxpnQvAv8Ov7/sFLzv/XCa9//J3MV4ZA+Cp2D2+i/HKGO+//F287PxzmfSr+34OQKI93w5A30Qv9++6j2WdywEYr0wA0JhppD5dB0BjppH6dB0Ae9s9vguAp2K8Msa9O+8h7adpz7cD8Gzqru8BYFJjppH6dB0Ae9s9vguARFOmibpUPQB72z66DYBn26/v+wUvO/9cJr3/8ncxXhkD4N9lWuN0APZWjSv0TfSSqMYVpjVOB+CJNGWaqEvVA7C37aPbAPhPq0vVc+rc09kxup07t90BwO7x3dy5/Q5mNM2gu74bgGfT9tFtVKIKX735S7zs/HOZ9NWbv0QlqgDw36a7vgeARN9EL9W4wrTG6QD8u+we3wXApN3ju3nzP17Py84/l0nXbLgKgKfjSzd+jpedfy6Tvnrzl6hEFQBqvfagN/CnF1/IN8/8HvXpBn5138/50o2fA2DStMbpAOytGlfom+gF4NkyUR1npDxCU6aJulQ9APuyfXQblajCV2/+Ei87/1wmffXmL1GJKgAkHtvzCNW4Qnu+HYDEoVMPZ8fodu7cdgcA/w7TGqcDsLdqXKFvoheAJ6sp00Rdqh6AvW0f3QbAf1pdqp5T557OjtHt3LntDgB2j+/mzu13MKNpBt313QA823aP7+bN/3g9Lzv/XCZds+EqAP5dGjON1KfrANjb7vFdAPy7zGmdS3u+g7t33AmAy1zmMpe5zGX/awzA/3fd9T0APFnbR7cB8Kv7fs7Lzj+X91/+LmY0zeBjx38KgKeqLlXP107/Fn968YV8+NiPAfCd27/JQ7sfAOC/WX+hn0pU4ZoNV/Gy88/lTX9/HQCfOvGz1KXqAXi2/fq+X3DNhqt43UFv5E8vvpDEN8/8HvXpBgCeiu76HurTDXzzzO/xpxdfSK1fv/APrOg+AIBqXKG/0M9waYjDpx0FwGN7HmH3+C6aMk3UpeoBeCLd9T0APBX16QY+d8qXaM938J3bv8lDux8A4Nmye3wXjZlG6tN1ADyR7voeAP6VaY3TAXg2/fq+X3DNhqt43UFv5E8vvpDEN8/8HvXpBgD+01Jemo66LhIpL8320W0APF3TGqcDsD9sH90GwK/u+zkvO/9c3n/5u5jRNIOPHf8pAJ5t0xqnk/bTfPjYj/GnF1/I3k6eeyoA/012j++iMdNIfbqOjrouUl6a7aPbAPh3mKiOM1IeoT3fwZzWuewe381nrvsEjZlGfvb8X/GnF19I4pS5pwHwVH3pxs+xfnAdHz72Y/zpxReS+PCxHyPtpwHYl+76bn56zi9Z2rmM9YPreGj3AwA8kZSXpqOuC4BnS12qnqZMEyPlESaq4wDsy7TG6aT9NB8+9mP86cUXsreT554KwN077qQSVfjqzV/iZeefS+JX9/0cgLt33AnAf1LKS9NR10V3fQ/jlTEe2/MIAE/XtMbpAOwP20e3AfCr+37Oy84/l/df/i5mNM3gY8d/CoBn2+7x3Xzmuk/QmGnkZ8//FX968YUkTpl7GgD7Q3d9DwD/LnWpek6dezpbR7aye3w3AC5zmctc5jKX/S8xAP/rDp16OP2FPjYObgBg0mN7HqEaVziw5yAAnozd47u5c/sdnDL3NP704guZ9LHjPwXA3iaq43zoyvfxsvPP5doNVwPwRFZ0H8B7jnw/AP2FfgAez/277iPlpVnSuQyA/7SJ6jhXb7iSpZ3L+NOLL2TS107/FnWpegCebRPVcVb3r2Jq4zQOn34EAM/EtMbpVOMKfRO9AOxLR10XKS/NYGmQ3oleZrXMZlH7Yu7ecScA3fU9ABw69XD6C31sHNwAwKTH9jxCNa5wYM9BADxV+aCO9x71QVJemh/d9QN2j+8GoNZEdZwPXfk+Xnb+uVy74WoA/pXd47vZOrKVpkwTdal6Dp16OP2FPjYObgBg0mN7HqEaVziw5yDqUvUsal/M1pGt7B7fDcCk+3fdR8pLs6RzGQCJjrouUl6a7aPbAHgiX7rxc7zs/HP59X2/AGDSRHWc1f2rmNo4jcOnHwHAU3H/rvuoRBUAanXX9zBaHmW8MgFArTmtc2nPd3D3jjsBmDRRHWd1/ypmNM2gu76b+nQdjZlGVvevYqI6DsDe6lL1LGpfzNaRrewe3w3ApPt33UfKS7OkcxkA/2m7x3dz5/Y7OGXuafzpxRcy6WPHfwqAJ7J7fDdbR7YC8FS059sB6C/0A/CvPLT7AV7711fw5n+8nt3juwF4qrrrexgtjzJemQAgcee2O9gxuh2AJ7J7fDdbR7bSlGmiLlVPfbqOxkwjq/tXMVEdB+CJTFTH+dCV7+Nl55/LtRuuBuBfuXPbHewY3c6i9sXUpep5bM8jjFfGOHXu6dSl6gF4PPXpOhozjewe3wXA3naP72bryFbmtc5nRfcBADxdc1rn0p7v4O4ddwIwaaI6zur+VcxomkF3fTcAe5uojrO6fxUAT1V3fQ/9hT42Dm4AYF/a8+0A9Bf6AdiX3eO72TqylVPmnsafXnwhtZZ2LmPryFZ2j+8GYF/u33UflagCQK3u+h5Gy6OMVyYAqDWndS7t+Q7u3nEnAJMmquOs7l/FjKYZdNd3c2DPQaT9NHfvuBOAfalL1bOofTFbR7aye3w3AJPu33UfKS/Nks5lAPyn7R7fzZ3b7+CUuafxpxdfyKSPHf8pAJ7I7vHdbB3ZCsBT8dieRxivjHHq3NOpS9UD8ES663sYLY8yXpkA4Ok4dOrh9Bf62Di4AYBJj+15hGpc4cCegwB4qq7dcDUvO/9cPnTl+5iojgPweJZ0LgPgynWXAeAyl7nMZS5z2f8SA/C/7vDpR9Ce7+CPD/2eieo4ALvHd3Pho+czr3U+K7oPAODJqE/X0ZhpZPf4LgD+lY2DG+gv9AFw9447Aah17Yar+fV9vwBg0v277gOgPd8OwL48tPsBbt5yI4dPO4Lu+m4A/tPqUvU0ZZoYKY8wUR0H4N+tLlVPU6aJ/kIfGwc3APDQ7gf42NUfZLwyBsBTcfj0I2jPd/Cju37A7vHdAOytPl1HY6aRf676G02ZJrrruzmw5yDWD67j0T2PMK1xOgCHTz+C9nwHf3zo90xUxwHYPb6bCx89n3mt81nRfQAAT0d3fTdvO+wdVOMK377t60xUxwGYtHFwA/2FPgDu3nEnAP/Kr+/7OQCvPeiNABw+/Qja8x388aHfM1EdB2D3+G4ufPR85rXOZ0X3AQCcPv85APz6vp8DkHho9wPcvOVGDp92BN313QAk6tN1NGYauXP7Hewe3w3Avuwe383Wka0ArO5fxUR1HIBEXaqepkwT/YU+Ng5uAOCh3Q/wsas/yHhlDIBJ3fU99Bf62Di4AYBf3/cLrtlwFQB7m9Y4nfHKGFeuuwyAWnWpek6dezqP7nmEazdcDUDiwkfOp7/Qx3MWPA+AulQ9p849nR2j2/ne7d8GIDFRHefHd36fieo4AKfPfw4Av77v5wAkHtr9ADdvuZHDpx1Bd303AP9p9ek6GjON7B7fBcDj6ajrIuWluXvHnQDsHt/NZ677BOOVMQCeihXdBzCvdT5/fOh3PLT7AQCeyP277qMSVRivjPHYnkcAeKoO7DmIalzhynWXAfDQ7ge48NHzqU83APBEfn3fzwF47UFvBKAuVc+pc09nx+h2vnf7twFITFTH+fGd32eiOg7ApI2DG+gv9AFw9447AXgi1264ml/d93OmNk7j3GUvBqA9307aT3P3jjsBSHzpxs9xzYarAKhVl6qnKdPE+sF1PLT7AQBq1afraMw0snVkK7vHdwNw7Yar+erNX6ISVQBIfOvWr/HQ7gcAmPTQ7gdYP7iOea3zWdF9AHWpek6dezqP7nmEazdcDUDiwkfOp7/Qx3MWPA+A+nQdjZlGVvevYqI6TuJz13+aHaPbAXiqTp//HFJemh/d9QN2j+8GIHH+I3/mod0PALCi+wDmtc7njw/9jod2PwDA3h7b8wjVuMKBPQcBUOvQqYczXhnjsT2PANBd30N/oY+NgxsA+PV9v+CaDVcBsLdpjdMZr4xx5brLAKhVl6rn1Lmn8+ieR7h2w9UAJC585Hz6C308Z8HzAFjRfQDHzjyeR/c8wpdu/BwAk85/5M88tPsBAE6f/xwAfn3fzwFIPLT7AW7eciOHTzuC7vpuAP7T6tN1NGYa2T2+C4DH01HXRcpLc/eOOwHYPb6bz1z3CcYrYwA8Fe35dtJ+mrt33AlA4ks3fo5rNlwFwN6mNU5nvDLGlesuA+DpOHz6EbTnO/jjQ79nojoOwO7x3Vz46PnMa53Piu4DAHiqto9uA2DH6Hbu3HYHAI+nu76bw6cdwer+VUxUxwFwmctc5jKXuex/hQH4X1eXqudTJ34WgDf9/XW87Pxzef/l7+LwaUfwseM/BcCTVZeq5+UrXsn6wXW87PxzqfXav76Ch3Y/AMCkOa1zac93AHDo1MMBqHXy3FMBeNn55zLpzu138KVTv86K7gMAmHTNhqt42fnnkvjqzV/i5StexWsPegMAT8WXbvwcLzv/XN7099exY3Q7j+55hJedfy6JazdcDcCT9dqD3shoeZQ3/f11vOz8c6l17YarAXi2vevI99Ke7+CrN3+Jl51/Lj+66we898j3U59uAOCpqEvV87XTv8WMphm8//J38bLzz2XSl278HAB1qXqaMk0AHDr1cADmtM6lPd9B2k/Tnm8HoC5Vz6dO/CwAb/r763jZ+efy/svfxeHTjuBjx38KgGdiRfcBvHzFq9gxup33X/4edo/vBiAxp3Uu7fkOAA6dejgAtQ7sOYhqXOH9l7+Ll51/LomR8gjfPPM7dNd3A1CXqudTJ34WgDf9/XW87Pxzef/l7+LwaUfwseM/BUCiu76bz5z0BbaObOVl559L4qs3f4mXr3gVrz3oDQBMqkvV896jPgjA+y9/Fy87/1wS1264GoBJ3fXdzGiaAcCi9sXUpeoBmPSuI99Le76Dr978JV52/rn86K4f8N4j3099ugGASa896A3Ma53PV2/+Ei87/1xW96/ic6d8ifp0AwC1Tp57KqfMPY1rNlzFy84/l8SHrnwfE9VxAE6eeyqvO+iN/Oq+n/Oy888lcef2O/jSqV9nRfcBACROnnsqHz72Y6wfXMfLzj+XxDsveStHzjiaulQ9AN313XzmpC+wdWQrLzv/XBJfvflLvHzFq3jtQW8A4Nn26/t+wcvOP5fEo3seYcfodt7099fxsvPP5df3/QKAulQ9L1/xStYPruNl559Lrdf+9RU8tPsBALrru3nbYe9g/eA6Xnb+ubz/8ndx7tIXc8rc0wB4qj52/Kc4dubxfPXmL/Gy889l0oeufB8T1XEAJh3YcxBpP019uoElncsAeKpWdB/Ay1e8ims2XMXLzj+XH931Az5z0heY0TQDgEkH9hxENa7w/svfxcvOP5fESHmEb575HbrruwFInDz3VD587MdYP7iOl51/Lol3XvJWjpxxNHWpegAmzWmdS3u+A4BDpx4OwN5+dd/Pedn555L440O/48PHfoyvnf4t6lL1AKzoPoCXr3gVj+55hJedfy6J7voeTpl7GgB7e9eR76U938FXb/4SLzv/XBK/vu8XANSl6nnvUR8E4P2Xv4uXnX8uV2+4kncc/h7SfhqAxJsOfSt/fOj3vOz8c5n01Zu/xMtXvIqPHf8pABInzz2V1x30Rn5138952fnnkrhz+x186dSvs6L7AADqUvW896gPMloe5U1/fx2JRe2Led1BbwTgqequ7+abZ36Hxkwj77/8Xbzs/HNJFKsFVnQfAEDiY8d/imNnHs9Xb/4SLzv/XCZ96Mr3MVEd5+4dd9Ke72BO61wAai3pXEZ9uoG7d9wJwGsPegPzWufz1Zu/xMvOP5fV/av43Clfoj7dAECtk+eeyilzT+OaDVfxsvPPJfGhK9/HRHUcgJPnnsrrDnojv7rv57zs/HNJ3Ln9Dr506tdZ0X0AAInXHvQGPnzsx1g/uI6XnX8uk4rVAiu6DwCgu76bz5z0BbaObOVl559L4qs3f4mXr3gVrz3oDQA823593y942fnnknh0zyPsGN3Om/7+Ol52/rn8+r5fAFCXquflK17J+sF1vOz8c6n12r++god2PwBAd303bzvsHawfXMfLzj+X91/+Ls5d+mJOmXsaAE/Fiu4DePmKV/Honkd42fnnkuiu7+GUuacBsLeT557KKXNP45oNV/Gy888l8aEr38dEdRyAL934OV52/rm86e+vY8fodh7d8wgvO/9cEtduuBqAulQ9nzrxswC86e+v42Xnn8v7L38Xh087go8d/ykAno7T5z+H+nQDAE/GgT0H0V/o485tdwDgMpe5zGUuc9n/CgPw/0Fdqp6vnf4t/vTiC5n02oPeAMCkk+eeyp9efCEnzz0VgH15aPcDfOf2bzKvdT5/evGFTPrZ839Fe76DH931A3aP7wYgUZeq52unf4s/vfhCTp57KgB7e+1Bb+BPL76QST8955d013cDUOuUuafxpxdfyKST554KwKTu+m5+es4v+djxnwLg8Xzs+E/xpxdfyL6cPPdUALrru/npOb/ktQe9AYBJrz3oDfz0nF/SXd/N7vHdfOa6T9CYaeRnz/8Vf3rxhUxa2rmMPz70Ox7a/QAAkz52/Kf42unfoi5VD0Ct7vpufnrOL/nY8Z8C4PHUper52unf4k8vvpDET8/5Jcu7D+Cn5/yS1x70BgA+dvyn+Nrp36IuVc/Jc0/lTy++kJPnnkpdqp6vnf4tEnWpegASHzv+U/zpxRdS62PHfwqAxMeO/xR/evGFnDz3VADqUvV87fRv8esX/oEV3QcAkKhL1fO107/Fn158IZNee9AbAJh08txT+dOLL+TkuacC8Hhee9Ab+Ok5v6S7vhuAxMlzT+VPL76Qn57zS7rruwFI1KXq+drp3+JPL76Qk+eeCkCtFd0H8OsX/oE/vfhCJn3t9G9Rl6oHYFJdqp6vnf4t/vTiC5n02oPeAECt7vpufnrOL/nTiy9k0slzTwVgb9313fz0nF/ypxdfyKST554KQK2PHf8p/vTiC3ntQW8AoFZdqp6vnf4t/vTiC0n89Jxfsrz7AH56zi957UFvAGDSx47/FH968YUkvnb6t5jbMo+fnvNLTp57KgC1XnvQG/jTiy9k0tdO/xZ1qXoAEifPPZU/vfhCJv30nF/SXd8NQK0V3Qfw6xf+gT+9+EISv37hH1jRfQAAk7rru/npOb/kTy++kEknzz0VgEkfO/5TfO30b1GXqgcgsaL7AH79wj9w8txTAZjUXd/NT8/5Ja896A0A7O21B72BP734QvbltQe9AYCHdj/Ad27/JvNa5/OnF1/IpJ89/1e05zv40V0/YPf4bgBWdB/Ar1/4B/704gtJnDz3VF570Bv42unfoi5VD8DJc0/lTy++kJPnngrAE3ntQW/gTy++kFpfO/1b1KXqAZi0ovsAfv3CP/DTc35Jd303AE/HyXNP5U8vvpDET8/5Jd313Xzs+E+RAEis6D6AX7/wD/zpxRcy6Wunf4u6VD0AtVZ0H8CvX/gH/vTiC0n8+oV/YEX3AQDUqkvV87XTv8WfXnwhJ889FYBJK7oP4Ncv/AN/evGFTPr1C//Aiu4DAKh18txT+dOLL2TSaw96A4mfnvNLuuu7AZhUl6rna6d/iz+9+EImvfagNwCQ6K7v5qfn/JI/vfhCEl87/VscOeMofv3CP3Dy3FMBqEvV87XTv8WfXnwhtU6eeyoAtU6eeyp/evGFTPrpOb+ku74bgEnd9d389Jxf8qcXX0jitQe9gZPnnspPz/kl3fXdAHTXd/PTc37Jx47/FABPpC5Vz9dO/xZ/evGFTHrtQW8AoNZrD3oDf3rxhdT62unfoi5Vz8eO/xRfO/1b1KXqAajVXd/NT8/5JR87/lMAJD52/Kf404svJPG107/F3JZ5/PScX3Ly3FMBqPXag97An158IZO+dvq3qEvVA5A4ee6p/OnFFzLpp+f8ku76bgBqreg+gF+/8A/86cUXMum1B70BgEnd9d389Jxf8qcXX8ikk+eeCsCkjx3/Kb52+reoS9UDkFjRfQC/fuEfOHnuqQBM6q7v5qfn/JLXHvQGAPb22oPewJ9efCH78tqD3gDAQ7sf4Du3f5N5rfP504svZNLPnv8r2vMd/OiuH7B7fDcAK7oP4Ncv/AN/evGFJE6eeyqvPegNfO30b1GXqgfg5Lmn8qcXX8jJc08F4PGcPPdU/vTiC5n02oPeQOKn5/yS7vpuAGq99qA38KcXX8ikr53+LepS9QB87PhP8acXX8i+nDz3VAASdal6vnb6t/jTiy9k0msPegMAk1570Bv46Tm/pLu+G4BEd303Pz3nl7z2oDcAUKu7vpsZTTNI+2na8+0APJE5rXNpz3dw9447AXCZy1zmMpe57H+FAXDZ3voL/VSiCodOPRyASXWpepoyTQC4om+il2pcYVH7YupS9QBM6q7vAcBlLnPZ/5L+Qj+VqMKhUw8HYFJdqp6mTBMA/2vu3nEnKS9NR10XAC5zmcv+G/QX+qlEFQ6dejgAk+pS9TRlmgBw2b9y7YareXTPIxw783hWdB8AwBOpS9Vz6tzTWT+4jod2PwCAy1zmMpe5zGX/CwyAy/bWnm8n7ae5e8edAEy6dsPVPLrnEWY0zaC7vhuA/+866rpIeWlW969iojoOQOKh3Q9w85Ybac93MKd1LgAuc5nL/he059tJ+2nu3nEnAJOu3XA1j+55hBlNM+iu7wbgv9Hu8d38+M7vA5B4aPcDrB9cx+HTjqC7vhsAl7nMZf8N2vPtpP00d++4E4BJ1264mkf3PMKMphl013cD4LK97R7fzZv/8Xp+dd/Ped1Bb+S1B70BgCfj5Lmn8usX/oEV3QcA4DKXucxlLnPZ/wID4LK9reg+gPcc+X7WD67jZeefy6Rf3fdzXnfQG/nY8Z8CwAXd9d185qQvMFoe5U1/fx0vO/9cEl+9+UscO/N4vnb6t6hL1QPgMpe57H/Biu4DeM+R72f94Dpedv65TPrVfT/ndQe9kY8d/ykA/lt113czr20BLzv/XBJfvflLHDvzeF570BsAcJnLXPbfYkX3AbznyPezfnAdLzv/XCb96r6f87qD3sjHjv8UAC7bl+76bn56zi/504sv5OS5pwLgMpe5zGUuc9n/ZwbAZfuyovsAfv3CP/CnF19IrZPnngrAs627vpufnvNLXnvQGwD4b9Jd381Pz/klf3rxhdR67UFvAMBlLnPZ/5oV3Qfw6xf+gT+9+EJqnTz3VAD+250891T+9OILmfTag94AgMtc5rL/Niu6D+DXL/wDf3rxhdQ6ee6pALjMZS5zmctc5jKX1TIALnOZy1zmMpe5zGUuc5nLXOYyl7nMZS5z2X8bA+Ayl7nMZS5zmctc5jKXucxlLnOZy1zmMpf9tzEALnOZy1zmMpe5zGUuc5nLXOYyl7nMZS5z2X8bA+Ayl7nMZS5zmctc5jKXucxlLnOZy1zmMpf9tzEALnOZy1zmMpe5zGUuc5nLXOYyl7nMZS5z2X8bA+Ayl7nMZS5zmctc5jKXucxlLnOZy1zmMpf9tzEALnOZy1zmMpe5zGUuc5nLXOYyl7nMZS5z2X8bA+Ayl7nMZS5zmctc5jKXucxlLnOZy1zmMpf9tzEALnOZy1zmMpe5zGUuc5nLXOYyl7nMZS5z2X8bA+Ayl7nMZS5zmctc5jKXucxlLnOZy1zmMpf9tzEALnOZy1zmMpe5zGUuc5nLXOYyl7nMZS5z2X8bA+Ayl7nMZS5zmctc5jKXucxlLnOZy1zmMpf9tzEALnOZy1zmMpe5zGUuc5nLXOYyl7nMZS5z2X8bA+Cy/8+u3XA1Lzv/XD505fuYqI4D8J9w7Yaredn55zLpzf94PbvHdwPgsr39+r5f8OZ/vJ7d47sBeCZ+fd8vePM/Xs/u8d0AuOz/my/d+Dledv65TPrSjZ8DYNJDux/gtX99BW/+x+vZPb4bAJftL9duuJqXnX8uH7ryfUxUxwH4XzBRHedDV76Pl51/LtduuBqAWr++7xe8+R+vZ/f4bgBc5rL/Rl+68XO87PxzmfSlGz8HwKSJ6jgfuvJ9vOz8c7l2w9UA/H/00O4HeO1fX8Gb//F6do/vBmB/2j2+mzf/4/X8+r5fAOAyl7nMZS5zlQFwmcv+Ha7dcDW/uu/nnDL3NP704gtJ/PScX9Jd3w2Ay/4/emj3A7z2r6/g2g1XA/Df5Es3fo4PXfk+JqrjAPwv+tKNn2P94Do+fOzH+NOLLyTxseM/BYDLXOayp2v3+G7e/I/X8+v7fgGAyxK/vu8XvPkfr2f3+G4A/hd96cbPsX5wHR8+9mP86cUXkvjY8Z8C4P+LL934OT505fuYqI4D8L+iu76bGU0zWN2/ionqOAAuc5nLXOYyFxkAl/1/dvLcU/nTiy/ka6d/i7pUPQD/bnfvuJP6dAOnz38OAC5zmcueLbvHd7N1ZCvzWuezovsAAPZlRfcB/PqFf+Cn5/yS7vpuAFy2v5w891T+9OIL+drp36IuVQ/A/vDQ7gd47V9fwbUbrgZg0kR1nA9d+T4SE9VxABJ1qXq+dvq3+NOLL+TkuacC4LInMlEd50NXvo+XnX8utd78j9eze3w3AP8uu8d38+Z/vJ6XnX8uv77vFwD8t/jSjZ/jZeefy6QPXfk+JqrjAPw77B7fzdaRrcxrnc+K7gMA2Je6VD1fO/1b/OnFF3Ly3FMB+P9oRfcB/PqFf+Cn5/yS7vpuAPa35yx4HqPlUTYObgDAZS5zmctc5iID4DKX/bs0ZhqpT9cB4DKXuezZ1l3fA4DLXOay/zZ1qXq+dvq3+NOLL2TSKXNPA+Df7bE9jwBw8JRDWN2/ionqOAD70+7x3bz5H69n68hWvnnm9/jTiy8k8fIVr+SytZcC8O/UXd8DgMv+W81pnUtjppHL1l4CgMtc5jKXucxFBuD/i1/f9wtedv65TPrSjZ8DYNK1G67mtX99BQ/tfoAv3fg5Xnb+uSTe/I/Xs3t8NwCTrt1wNS87/1z29uZ/vJ7d47sBeLJ2j+/mzf94PS87/1wSr/3rK3ho9wMAJHaP7+bN/3g91264ml/f9wtedv65JN78j9eze3w3AInd47t58z9ez6/v+wXXbrial51/LpOu3XA1AIlrN1zNy84/l0lfuvFzANTaPb6bN//j9Vy74Wp+fd8veNn555J48z9ez+7x3QBMemj3A7z2r6/gZeefS63X/vUVPLT7AQCejN3ju3nzP17Pr+/7BdduuJqXnX8uk67dcDUAkx7a/QCv/esreNn555J47V9fwUO7HwAg8aUbP0fi1/f9gpedfy5fuvFzPLT7AV7711fwsvPP5doNVwMw6df3/YKXnX8uk3593y8AmKiO86Er38eXbvwcAHt7aPcDvPavr+DaDVcDkPj1fb/gZeefy6Qv3fg5ACZdu+FqXvvXV/DQ7gf40o2f42Xnn0vizf94PbvHdwPweL504+d42fnn8qEr38dEdRyAp6J/opc3/+P1vOz8c0n8+r5fAFDr1/f9gpedfy6TvnTj5wDY25du/BwvO/9cJv36vl8AkPjSjZ/jZeefy1dv/hKVqMKv7vs5Lzv/XCZdu+FqAJ6Kh3Y/wGv/+gpedv65JF7711fw0O4HAJj0pRs/x4eufB8T1XEAEg/tfoDX/vUVXLvhah7a/QCv/esreNn55/LonkfYMbqdN/39dbzs/HNJfOjK9zFRHQcgsXt8N2/+x+t52fnnknjtX1/BQ7sfAKDWRHWcD135Pl52/rkkXvvXV/DQ7gcAqPWlGz/Hy84/l0m/vu8XAEz60o2fI/HQ7gd47V9fwcvOP5fEtRuuBuCpeGj3A7z2r6/gZeefS+JDV76Pieo4AHu7dsPVvOz8c9nbm//xenaP7+ah3Q/w2r++gms3XA3ApC/d+Dk+dOX7mKiOA3Dthqt57V9fwUO7H+BLN36Ol51/Lok3/+P17B7fDcCkazdczcvOP5dJX7rxcwA8HQ/tfoDX/vUVvOz8c0m8+R+vZ/f4bgASu8d38+Z/vJ5f3/cLrt1wNS87/1wmXbvhagAe2v0Ab/7H67l2w9W8+R+v57V/fQUP7X6AL934OV52/rl86Mr3MVEdB+DJeGj3A7z2r6/gZeefS60v3fg5ACZ96cbPkXho9wO89q+v4GXnn0vi2g1XA1DrSzd+jpedfy6TvnTj5wD4d5iojvOhK9/Hy84/l8Rr//oKHtr9AAD70j/Ry5v/8Xpedv65JH593y8AqHXthqt52fnnMulLN34OgEm7x3fz5n+8nl/f9wuu3XA1Lzv/XCZdu+FqABJfuvFzJB7a/QCv/esreNn555K4dsPVANT60o2f42Xnn8ukL934OQASv77vF7zs/HN5/+XvYrwyxjUbruJl55/LpF/f9wsAJu0e382b//F6Xnb+uSTe/I/Xs3t8NwBPxa/v+wUfuvJ9bBhaz5v/8Xpedv65JH593y8AqPWlGz/Hy84/l0lfuvFzAOzt7h13MqNpBifNOYXR8igbBzcAMOlLN36OD135Piaq4wAkHtr9AK/96yu4dsPV7B7fzZv/8Xpedv65XLPhKsYrY7z/8nfxsvPPJfHmf7ye3eO7AUjsHt/Nm//xel52/rkkXvvXV/DQ7gcAmPTr+34OwGdO+gLd9d0AJFZ0H8CLl70UgElfuvFzvOz8c5n06/t+AcCkX9/3Cz505fvYMLSeN//j9bzs/HNJ/Pq+XwDwVExUx/nQle/jZeefS+K1f30FD+1+AIC9Xbvhal52/rns7c3/eD27x3eTePM/Xs+v7/sFAJN+fd8vePM/Xs/u8d0AXLvhal7711fw0O4H+NKNn+Nl559L4s3/eD27x3cDMOnaDVfzsvPPZdKb//F6do/vBuCh3Q/w2r++gpedfy6P7nmEHaPbedPfX8fLzj+XxIeufB8T1XEAHtr9AK/96yt42fnnkvjQle9jojoOwN5+fd8veNn55zLpSzd+DoBJv77vF3zoyvexYWg9b/7H63nZ+eeS+PV9vwDgqapL1XPq3NPZOrKV3eO7AXCZy1zmMpe5xgD8r5uojvOhK9/Hndvv4Jtnfo8/vfhCvnnm99g6spUPXfk+JqrjACQqUYWv3vwlAP704gv52fN/RWOmkW/f9nUmquMAXLvhan5138953UFv5E8vvpBvnvk96tMNTG2cxjfP/A7d9d0APBm7x3fzmes+wYymGfzpxReS+NKpX+eytZcwUR0HYNKv7vs5q/tX8bPn/4pEY6aRb9/2dSaq4wBMumbDVVz46Pl888zv8acXX8gpc0/jjw/9jod2PwDAyXNP5U8vvpCfPf9XTG2cBsDj+dV9P2f3+C7+9OIL+dnzf0VjppFv3/Z1JqrjADy0+wG+c/s3OXbm8fzpxRfys+f/iqmN06hPN/ClU7/Oiu4D+PV9v+Bl559L4tE9j7BjdDtv+vvreNn555L49X2/AGDSNRuu4sJHz+ebZ36PP734Qk6Zexp/fOh3PLT7AQB2j+/msrWX8P3n/Zg/vfhCEvNa5/Od27/JQ7sfACCxdWQrw6UhXnfQG1k/uI5f3fdz3njwW5naOI27d9wJQOJLN36OO7ffwTfP/B5/evGFfPjYj3Hzlhv59X2/oC5VT1OmiZHyCBPVcQD2lvLStOfbmaiO86Er38ed2+/gm2d+jz+9+EK+eeb32DqylQ9d+T4mquMAJCpRha/e/CUA/vTiC/nZ839FY6aRb9/2dSaq4wDs7Us3fo5H9zzC6w56I187/VvUpeoBeCq+ffs3OXfpi/nTiy/kdQe9kWs2XMW1G64GYKI6zoeufB93br+Db575Pf704gv55pnfY+vIVj505fuYqI4DsHt8N2/+x+sZKY/ws+f/ij+9+EI+fOzHuHnLjXzpxs8B8LHjP8WfXnwhHz72Y6T9NK876I386cUXMunkuacC8GTtHt/NZWsv4fvP+zF/evGFJOa1zuc7t3+Th3Y/AMCTsaL7AH79wj/wpxdfyNLOZUxtnMbPnv8r/vTiC0l87fRvUZeqB+DaDVfz/svfxeHTjuBPL76QxLEzj+erN3+JazdcDUDiod0P8M5L3grAz57/K/704gv5/vN+zO1bb2WiOg7A7vHdvPkfr2ekPMLPnv8r/vTiC/nwsR/j5i038qUbPwfApEf3PMKP7voBXzr16/zpxRdyytzT+ONDv+Oh3Q8wUR3nQ1e+j5edfy7vv/xdjFfGuGbDVbzs/HNJvPavr+Ch3Q8AsKL7AH79wj/wpxdfyNLOZQDsy7UbruZX9/2c1x30Rv704gv55pnfoz7dwNTGaXzzzO/QXd8NwJNViSp89eYvAfCnF1/Iz57/KxozjXz7tq8zUR0H4Nf3/YI/PvQ7Pnzsx/jTiy/km2d+j60jW/nSjZ8D4Kn49X2/4Ks3f4mXr3gVf3rxhSRmNM3gY1d/kId2PwDApGs2XMWFj57PN8/8Hn968YWcMvc0/vjQ73ho9wMAJC5Z8w9efcDraM938Kv7fg7A6w56I/2FPjYObgDgyVjRfQC/fuEf+NOLLyTxs+f/iqmN0wDY26N7HuE7t3+T9xz5fv704gs5Ze5p/PGh3/HQ7gcASPz6vl9w6NTD+dOLLyTx4WM/xvrBdXzpxs8B8GyrS9XztdO/xZ9efCGvO+iNADyRb9/+Tc5d+mL+9OILed1Bb+SaDVdx7YarAUj8+r5f8MeHfseHj/0Yf3rxhXzzzO+xdWQrX7rxcwDUumbDVVz46Pl888zv8acXX8gpc0/jjw/9jod2PwBA4tE9j/Cju37Al079On968YWcMvc0/vjQ73ho9wMAJH593y84dOrh/OnFF5L48LEfY/3gOr504+cAeO1Bb+BPL76Qb575PerTDZwy9zT+9OILmfTag94AQOKh3Q/wsas/yOHTjuBPL76QxIymGXzmuk+we3w3AE/FjtHtfOqaj3Hu0hfzpxdfyOsOeiPXbLiKazdcDUDi1/f9gkOnHs6fXnwhiQ8f+zHWD67jSzd+DoBJu8d3s3VkK4dOPZw5rXNpzDRy/677AHiyuuu7+ek5v+RPL76QU+aeRn26gW+e+T3+9OILSfz0nF/SXd8NwLUbrub9l7+Lw6cdwZ9efCGJY2cez1dv/hLXbrgagN3ju9k6spUZTTPoru8GYF92j+/mzf94PSPlEX72/F/xpxdfyIeP/Rg3b7mRL934OQAm7Rjdzhdv+CxvO+wd/OnFF/K6g97INRuu4toNVzNRHedDV76Pl51/Lu+//F2MV8a4ZsNVvOz8c0m89q+v4KHdDwBQl6rna6d/iz+9+EJed9AbAdiXazdcza/u+zmvO+iN/OnFF/LNM79HfbqBqY3T+OaZ36G7vhuAJ6sSVfjqzV8C4E8vvpCfPf9XNGYa+fZtX2eiOg7AQ7sf4OHeB/nTiy8k8bPn/4rGTCOfue4T7B7fzYruA/j1C//An158IUs7lzG1cRo/e/6v+NOLLyTxtdO/RV2qHoAV3Qfw6xf+gT+9+EKWdi4DYG8T1XE+dOX7uHP7HXzzzO/xpxdfyDfP/B5bR7byoSvfx0R1HIDEjtHtfPGGz/K2w97Bn158Ia876I1cs+Eqrt1wNQBP1ZLOZQBcue4yAFzmMpe5zGWuMQD/6+7cdgf9hT7edtg76K7vBqC7vptzl76YHaPbuXPbHQBMOmXuaXzs+E8BUJeqZ1H7YkbLo4xXJgC4e8edTG2cxuHTjwCgu76bw6cdQX+hj42DGwB4svomeqnGFQ6dejgAie76bj52/KeoS9UDMGlq4zQ+deJnqUvVkzh17un0F/rYOLgBgElTG6fxzTO/Q3d9NwAH9hwEQH+hH4CnYmrjNN515HsBqEvVs6h9MaPlUcYrEwDcv+s+Ul6a0+c/B4C6VD2nzj2d8coYj+15BIDXHvQG/vTiC0ks7VzG1MZp/Oz5v+JPL76QxGsPegMAk6Y2TuObZ36H7vpuAA7sOQiA/kI/AN313Xzs+E9Rl6oHIPGcBc8D4P5d9wGQqMYVTppzCgCVqMLK7gNZ3r0cgJHyCBPVcR7a/QDrB9dx7tIX013fDcCK7gM4dubx3Ln9DnaP76a7vgeAxO7x3bz5H6/n1/f9AoD+Qj8AHXVd3LntDvoLfbztsHfQXd8NQHd9N+cufTE7Rrdz57Y7AJh0ytzT+NjxnwKgLlXPovbFjJZHGa9MAFDr1/f9gkf3PMLrDnojJ889FYCnarwyxstXvIqT554KwOHTj2Bq4zSu3nAlE9Vx7tx2B/2FPt522Dvoru8GoLu+m3OXvpgdo9u5c9sdAFy57jIA3nvUB6lL1QOwovsAjp15POsH1/HQ7gcAeDZ113fzseM/RV2qHoDEcxY8D4D7d90HwLNpojrO1RuuZGnnMl570BsASJy77MVMbZzG1RuuZKI6DsBlay+hPd/Bp078LHWpegDqUvW89fB3UpeqB+DKdZcB8N6jPkhdqh6AFd0HcOzM41k/uI6Hdj8AQCLtp3nbYe+gu74bgAN7DgKgv9BPXaqer53+Lf704gv55pnfoz7dwClzT+NPL76QxK9f+AdWdB8AwJN19447mdo4jcOnHwFAd303h087gv5CHxsHNwDwVJ0y9zQ+dvynAKhL1bOofTGj5VHGKxPsHt/Nndvv4NiZx7Oi+wAAuuu7OXfpi1k/uI6Hdj8AwJOxe3w3d26/g1PmnsbJc08FIPHag95Iyktz2dpLAJg0tXEa3zzzO3TXdwNwYM9BAPQX+gGoxhU667pY3r0cgHJU4bUHvRGASlShv9APwLMt7ad5z5HvZ0X3AQCcPv85pLw09++6D4DEaw96AyfPPRWAxIruA5jXOp+tI1vZPb4bgP1lvDLGy1e8ipPnngrA4dOPYGrjNK7ecCUT1XF2j+/mzu13cOzM41nRfQAA3fXdnLv0xawfXMdDux8AYNLUxml888zv0F3fDcCBPQcB0F/oByCR9tO87bB30F3fDcCBPQcB0F/oByDx2oPewMlzTwUgsaL7AOa1zmfryFZ2j+8G4Mm6bO0ltOc7OHfZiwFIvPagNwJw5brLAHiqXnfQGzl57qkAHD79CKY2TuPuHXcCkHjtQW/g5LmnApBY0X0A81rns3VkK7vHdwOQeGzPIwAs6VxGXaqeRe2LWd2/ionqOADPponqOFdvuJKlnct47UFvACBx7rIXM7VxGldvuJKJ6jiP7XmE8coYh049HIDHc+W6ywB471EfpC5VD8CK7gM4dubxrB9cx0O7HwBg0stXvIoV3QcAsKRzGfXpBraPbqMuVc/XTv8Wf3rxhXzzzO9Rn27glLmn8acXX0ji1y/8Ayu6DwDgybp7x51MbZzG4dOPAKC7vpvDpx1Bf6GPjYMbAHiqTpl7Gh87/lMA1KXqWdS+mNHyKOOVCQBWdB/A+47+EACJulQ9p849nfHKGI/teQSAZ9Od2+6gv9DH2w57B9313QB013dz7tIXs2N0O3duuwOASS9f8SpWdB8AwJLOZdSnG9g+ug2Ap6q7vpsZTTNY3b+Kieo4AC5zmctc5jKXGID/dXfvuJOUl6ajrguASUs6l1GfbmD76DYAJk1rnA7ApNce9AZ+es4v6a7vZqI6zkh5BIC9pbw0HXVdADxZHXVdpLw0v7rv51y74WoAHs+i9sXUpeoBSLTn2wHoL/QDMKkp00Rdqh6AxIruA/j1C//AyXNPBeCpWNS+mLpUPQD7snt8FwB7S/tp2vPtADxVTZkm6lL1ACRWdB/Ar1/4B06eeyoA+9JR10XKSwMwqT3fwZzWuQAkpjVOB6DW/bvuI+WlWdK5DIBJ0xqnU40r9E30Mq1xOqPlUcYrE/RN9FKNK6zuX8VEdZzto9sASNy9405SXpqOui4AJi3pXEZ9uoHto9sAmDStcToAk1570Bv46Tm/pLu+G4BJf37o91yz4Sped9AbOXnuqQA8HfXpBpZ0LgMgUZeqpynTxGh5lPHKBHfvuJOUl6ajrguASUs6l1GfbmD76DYmquOs7l9FY6aR+nQdAJMO7DkIgP5CPwD/bh11XaS8NADPto2DG+gv9NFd3wPApLpUPYvaFzNaHmW8MsHu8d1sHdnKovbF1KXqAdjbRHWc1f2raMw0Up+uA2DSgT0HAdBf6Acg0Z7vYE7rXAD+3Saq44yURwDYW8pL01HXBcBTNa1xOgCTXnvQG/jpOb+ku76bx/Y8QjWucGDPQQBMas+3A9Bf6AfgyXhszyOMV8aY1jgdgEnd9d3MaJrBSHmEieo4AImmTBN1qXoAEiu6D+DXL/wDJ889FYDEoVMPByDRmGmkPl0HwL9Te76DOa1zAUjUp+tozDSye3wXAI+nu74HgKfjV/f9nJedfy6T3vT317FjdDsAT1V9uoElncsASNSl6mnKNDFaHmW8MsFjex6hGlc4sOcgACa159sB6C/0AzCpKdNEXaoegMSK7gP49Qv/wMlzTwUg0Z7vYE7rXACeiu76HgCeit3ju9k6spVF7YupS9UDkKhP19GYaWT3+C4Anor6dANLOpcBkKhL1dOUaWKkPMJEdRyAfemu7wGg1t077mRG0wy667sBmNY4nf5CHxsHNwDwbNo4uIH+Qh/d9T0ATKpL1bOofTGj5VHGKxMA/CsT1XFW96+iMdNIfboOgEkH9hwEQH+hH4BEfbqBJZ3LAPh3m6iOM1IeAWBvKS9NR10XAE/VtMbpAEx67UFv4Kfn/JLu+m4A9qU9307aTwPwbLt7x52kvDQddV0ATFrSuYz6dAPbR7cBkKhPN7CkcxkAz5bnLHge/YU+7tx2BwAuc5nLXOYylxiA/w8aM43Up+sA2Nvu8V0APBl1qXpOnXs6O0a3c+e2OwDYPb6bO7ffwYymGXTXdwPwZHXXd/PNM7/D1MZp/Oq+n/Oy88/ltX99BQ/tfgCA/3bPWfA8qnGFK9ddBsBEdZyrN1xJe76DOa1zAfh3+PV9v+Bl55/LpPdf/i7GK2MAPBW7x3cxXhnj/Ze/i5edfy6TfnXfzwFItOfbAeib6OX+XfexrHM5AOOVCQAaM43Up+sAaMw0Up+uA2Bvu8d3AfBUjFfGuHfnPaT9NO35dgCeTd31PQBMasw0Up+uA2Bvu8d3AZBoyjRRl6oHYG/bR7cB8Gz79X2/4GXnn8uk91/+LsYrYwD8u0xrnA7A3qpxhb6JXhLVuMK0xukAPJGmTBN1qXoA9rZ9dBsA/2l1qXpOnXs6O0a3c+e2OwDYPb6bO7ffwYymGXTXdwPwbNo+uo1KVOGrN3+Jl51/LpO+evOXqEQVAJ6KtJ+mPd8OwN5Gy6OMVyYA+F+3e3w3b/7H63nZ+ecy6ZoNVwHwdLzuoDfypxdfyKSfPf9XTG2cBsCzobu+B4DE9tFtVKIKX735S7zs/HOZ9NWbv0QlqgDw77B7fDdv/sfredn55zLpmg1XAfBU9E30Uo0rXLPhKl52/rlMetPfX8eO0e0A/DvsHt/Nm//xel52/rlMumbDVQBM2j2+m60jW+mu7wEgsaRzGSkvzWVrLwHg32Fa43QA9laNK/RN9ALwZDVlmqhL1QOwt+2j2wD4T6tL1XPq3NPZMbqdO7fdAcDu8d3cuf0OZjTNoLu+G4B/hy/d+Dledv65TPrqzV+iElUA+HdozDRSn64DYG+7x3cB8O8yp3Uu7fkO7t5xJwAuc5nLXOYylxiA/++663sAeLK2j24D4Ff3/ZyXnX8u77/8XcxomsHHjv8UAE9VXaqer53+Lf704gv58LEfA+A7t3+Th3Y/AMB/s/5CP5WowjUbruJl55/Lm/7+OgA+deJnqUvVA/Bs+/V9v+CaDVfxuoPeyJ9efCGJb575PerTDQA8Fd31PdSnG/jmmd/jTy++kFq/fuEfWNF9AADVuEJ/oZ/h0hCHTzsKgMf2PMLu8V00ZZqoS9UD8ES663sAeCrq0w187pQv0Z7v4Du3f5OHdj8AwLNl9/guGjON1KfrAHgi3fU9APwr0xqnA/Bs+vV9v+CaDVfxuoPeyJ9efCGJb575PerTDQD8p6W8NB11XSRSXprto9sAeLqmNU4HYH/YProNgF/d93Nedv65vP/ydzGjaQYfO/5TADzbpjVOJ+2n+fCxH+NPL76QvZ0891QAng2NmUbq03UA/C/bPb6bz1z3CRozjfzs+b/iTy++kMQpc08D4L/R7vFdNGYaqU/XMa1xOmk/zYeP/Rh/evGF7O3kuacC8GzaPb6bz1z3CRozjfzs+b/iTy++kMQpc08D4KnoqOsi5aU5Ze5p/OnFF7K3jx3/KQCeTbvHd/OZ6z5BY6aRnz3/V/zpxReSOGXuaQBMemzPI4xXxrhmw1W87PxzSbz/8ncxXhlj68hWdo/vBuA/JeWl6ajroj3fTtpPc/eOOwF4uqY1Tgdgf9g+ug2AX933c152/rm8//J3MaNpBh87/lMA/Dt86cbPsX5wHR8+9mP86cUXkvjwsR8j7acB+E/rru8B4N+lLlXPqXNPZ+vIVnaP7wbAZS5zmctc5goD8L/u0KmH01/oY+PgBgAmPbbnEapxhQN7DgLgydg9vps7t9/BKXNP408vvpBJHzv+UwDsbaI6zoeufB8vO/9crt1wNQBPZEX3AbznyPcD0F/oB+Dx3L/rPlJemiWdywD4T5uojnP1hitZ2rmMP734QiZ97fRvUZeqB+DZNlEdZ3X/KqY2TuPw6UcA8ExMa5xONa7QN9ELwL501HWR8tIMlgbpnehlVstsFrUv5u4ddwLQXd8DwKFTD6e/0MfGwQ0ATHpszyNU4woH9hwEwFOVD+p471EfJOWl+dFdP2D3+G4Aak1Ux/nQle/jZeefy7UbrgbgX9k9vputI1tpyjRRl6rn0KmH01/oY+PgBgAmPbbnEapxhQN7DqIuVc+i9sVsHdnK7vHdAEy6f9d9pLw0SzqXAZDoqOsi5aXZProNgCfypRs/x8vOP5df3/cLACZNVMdZ3b+KqY3TOHz6EQA8Fffvuo9KVAGgVnd9D6PlUcYrEwDUmtM6l/Z8B3fvuBOASRPVcVb3r2JG0wy667upT9fRmGlkdf8qJqrjAOytLlXPovbFbB3Zyu7x3QBMun/XfaS8NEs6lwHwn7Z7fDd3br+DU+aexp9efCGTPnb8pwB4IrvHd7N1ZCsAT0V7vh2A/kI/AP/KQ7sf4LV/fQVv/sfr2T2+G4BJSzqXkfLS3L/rPgAm7R7fzdaRrSxqX0xdqh6Af4cv3fg5Xnb+ufz6vl8A8GzZOLiB/kIfh049HIDH9jzCeGWMU+eeTl2qHoAn8tDuB3jtX1/Bm//xenaP7wbgP2n3+G62jmylKdNEXaqe9nw7AP2FfgD+Ex7b8wjjlTFOnXs6dal6AB5PfbqOxkwju8d3AbC3+nQdjZlGdo/vAuCp2D2+i8ZMI/XpOgAez+7x3Wwd2cqi9sXUpep5bM8jjFfGOHXu6dSl6gHYl7t33MnUxmn87Pm/4k8vvpBJrzvojYxXxnhszyMA7Mv9u+6jElUAqDWtcTrVuELfRC8Atea0zqU938HdO+4EYNJEdZzV/auY0TSD7vpu5rTOpT3fwdaRrewe3w3A3upS9SxqX8zWka3sHt8NwKT7d91HykuzpHMZAP9pu8d3c+f2Ozhl7mn86cUXMuljx38KgCcyUR1ndf8qAJ6K3eO72TqylXmt81nRfQAAT6S7vofR8ijjlQkAno5Dpx5Of6GPjYMbAJj02J5HqMYVDuw5CICn6toNV/Oy88/lQ1e+j4nqOACPZ0nnMgCuXHcZAC5zmctc5jJXGID/dYdPP4L2fAd/fOj3TFTHAdg9vpsLHz2fea3zWdF9AABPRn26jsZMI7vHdwHwr2wc3EB/oQ+Au3fcCUCtazdcza/v+wUAk+7fdR8A7fl2APblod0PcPOWGzl82hF013cD8J9Wl6qnKdPESHmEieo4AP9udal6mjJN9Bf62Di4AYCHdj/Ax67+IOOVMQCeisOnH0F7voMf3fUDdo/vBmBv9ek6GjON/HPV32jKNNFd382BPQexfnAdj+55hGmN0wE4fPoRtOc7+ONDv2eiOg7A7vHdXPjo+cxrnc+K7gMAeDq667t522HvoBpX+PZtX2eiOg7ApI2DG+gv9AFw9447AfhXfn3fzwF47UFvBODw6UfQnu/gjw/9nonqOAC7x3dz4aPnM691Piu6DwDg9PnPAeDX9/0cgMRDux/g5i03cvi0I+iu7wYgUZ+uozHTyJ3b72D3+G4A9mX3+G62jmwFYHX/Kiaq4wAk6lL1NGWa6C/0sXFwAwAP7X6Aj139QcYrYwBM6q7vob/Qx8bBDQD8+r5fcM2GqwDY27TG6YxXxrhy3WUA1KpL1XPq3NN5dM8jXLvhagASFz5yPv2FPp6z4HkA1KXqOXXu6ewY3c73bv82AImJ6jg/vvP7TFTHATh9/nMA+PV9Pwcg8dDuB7h5y40cPu0Iuuu7AfhPq0/X0ZhpZPf4LgAeT0ddFykvzd077gRg9/huPnPdJxivjAHwVKzoPoB5rfP540O/46HdDwDwRO7fdR+VqMJ4ZYzH9jwCwKTu+m4On3YEN2+5kYd2PwBA4tf3/RyA0+c/B4B/h93ju9k6shWA1f2rmKiOA/BMTVTH+eNDv6c938Hh048AoD3fTtpPc/eOOwFIfOnGz3HNhqsA2Nv9u+6jElUYr4zx2J5HAPhP+vV9PwfgtQe9EYAV3Qcwr3U+f3zodzy0+wEA/t3a8+2k/TR377gTgMSXbvwc12y4CoBadal6mjJNrB9cx0O7HwCgVl2qnlPnns6jex7h1/f9AoB92T2+mx/f+X0AEg/tfoD1g+tY1L6YulQ9AI/n1/f9HIDT5z8HgPZ8O2k/zd077gQg8aUbP8c1G64CILF7fDdbR7ayqH0xdal6ACYt6VxGfbqBu3fcCUB3fQ/9hT42Dm4A4Nf3/YJrNlwFwN7a8+0AXLb2EgBq1aXqOXXu6Ty65xGu3XA1AIkLHzmf/kIfz1nwPADqUvW8fMUrqcYVPnPdJ9g9vhuAxEO7H+D8R/4MwOnznwPAr+/7OQCJh3Y/wM1bbuTwaUfQXd8NwH9afbqOxkwju8d3AfB46tN1NGYaWd2/ionqOInPXf9pdoxuB+CpqE/X0ZhpZOvIVnaP7wbg2g1X89Wbv0QlqgBQa1rjdMYrY1y57jIAno7Dpx9Be76DPz70eyaq4wDsHt/NhY+ez7zW+azoPgCAp2r76DYAdoxu585tdwDweLrruzl82hGs7l/FRHUcAJe5zGUuc5kLDMD/urpUPZ868bMAvOnvr+Nl55/L+y9/F4dPO4KPHf8pAJ6sulQ9L1/xStYPruNl559Lrdf+9RU8tPsBACbNaZ1Le74DgEOnHg5ArZPnngrAy84/l0l3br+DL536dVZ0HwDApGs2XMXLzj+XxFdv/hIvX/EqXnvQGwB4Kr504+d42fnn8qa/v44do9t5dM8jvOz8c0lcu+FqAJ6s1x70RkbLo7zp76/jZeefS61rN1wNwLPtXUe+l/Z8B1+9+Uu87Pxz+dFdP+C9R76f+nQDAE9FXaqer53+LWY0zeD9l7+Ll51/LpO+dOPnAKhL1dOUaQLg0KmHAzCndS7t+Q7Sfpr2fDsAdal6PnXiZwF4099fx8vOP5f3X/4uDp92BB87/lMAPBMrug/g5StexY7R7bz/8vewe3w3AIk5rXNpz3cAcOjUwwGodWDPQVTjCu+//F287PxzSYyUR/jmmd+hu74bgLpUPZ868bMAvOnvr+Nl55/L+y9/F4dPO4KPHf8pABLd9d185qQvsHVkKy87/1wSX735S7x8xat47UFvAGBSXaqe9x71QQDef/m7eNn555K4dsPVAEzqru9mRtMMABa1L6YuVQ/ApHcd+V7a8x189eYv8bLzz+VHd/2A9x75furTDQBMeu1Bb2Be63y+evOXeNn557K6fxWfO+VL1KcbAKh18txTOWXuaVyz4Spedv65JD505fuYqI4DcPLcU3ndQW/kV/f9nJedfy6JO7ffwZdO/Torug8AIHHy3FP58LEfY/3gOl52/rkk3nnJWzlyxtHUpeoB6K7v5jMnfYGtI1t52fnnkvjqzV/i5StexWsPegMAz7Zf3/cLXnb+uSQe3fMIO0a386a/v46XnX8uv77vFwDUpep5+YpXsn5wHS87/1xqvfavr+Ch3Q8A0F3fzdsOewfrB9fxsvPP5f2Xv4tzl76YU+aeBsBT9bHjP8WxM4/nqzd/iZedfy6TPnTl+5iojgMw6cCeg0j7aerTDSzpXAZArdce9AaOnXk8X735S7zs/HNJjJRH+OaZ36G7vhuAf4fu+m5mNM0AYFH7YupS9QA8HTtGt/Omv7+Ol51/Lm/6++toyjTxtdO/RV2qHoAV3Qfw8hWv4tE9j/Cy888l0V3fwylzTwNgbwf2HETaT1OfbmBJ5zIAnqqHdj/Aa//6Cl52/rn86r6fU4kqfPXmL/Gy88/lQ1e+j4nqOAAH9hxENa7w/svfxcvOP5fESHmEb575HbrruwFIfOz4T3HszOP56s1f4mXnn8ukD135Piaq4wA8m1Z0H8DLV7yKR/c8wsvOP5dEd30Pp8w9DYC9vevI99Ke7+CrN3+Jl51/Lolf3/cLABInzz2VDx/7MW7eciMvO/9cJr32r6/god0PANBd3828tgW87PxzSXz15i9x7Mzjee1BbwCg1nhljPdf/i5edv65JEbKI3zzzO/QXd8NwIruA3j5ilfx6J5HeNn555Loru/hlLmnAZB4bM8jVOMKB/YcBECt7vpuZjTNYOvIVnaP7+a1B72Bea3z+erNX+Jl55/L6v5VfO6UL1GfbgCg1oruA3j5ilfx6J5HeNn555J48z9ez+7x3QCcPPdUXnfQG/nVfT/nZeefS+LO7XfwpVO/zoruAwBIrOg+gO8/78c0Zhp5/+Xv4mXnn0vijw/9nucseC4A3fXdfOakL7B1ZCsvO/9cEl+9+Uu8fMWreO1BbwDg2fbQ7gd47V9fwcvOP5df3fdzKlGFr978JV52/rl86Mr3MVEdpy5Vz8tXvJL1g+t42fnnUuu1f30FD+1+AIC6VD3vPeqDjJZHedPfX0diUftiXnfQGwF4KupS9bz3qA8C8P7L38XLzj+XqzdcyTsOfw9pPw1ArZPnnsopc0/jmg1X8bLzzyXxoSvfx0R1HIBf3/cLXnb+uSQe3fMIO0a386a/v46XnX8uv77vFwDUper51ImfBeBNf38dLzv/XN5/+bs4fNoRfOz4TwHwdJw+/znUpxsAeDIO7DmI/kIfd267AwCXucxlLnOZCwzA/wd1qXq+dvq3+NOLL2TSaw96AwCTTp57Kn968YWcPPdUAPblod0P8J3bv8m81vn86cUXMulnz/8V7fkOfnTXD9g9vhuARF2qnq+d/i3+9OILOXnuqQDs7bUHvYE/vfhCJv30nF/SXd8NQK1T5p7Gn158IZNOnnsqAJO667v56Tm/5GPHfwqAx/Ox4z/Fn158Ifty8txTAeiu7+an5/yS1x70BgAmvfagN/DTc35Jd303u8d385nrPkFjppGfPf9X/OnFFzJpaecy/vjQ73ho9wMATPrY8Z/ia6d/i7pUPQC1uuu7+ek5v+Rjx38KgMdTl6rna6d/iz+9+EISPz3nlyzvPoCfnvNLXnvQGwD42PGf4munf4u6VD0nzz2VP734Qk6eeyp1qXq+dvq3SNSl6gFIfOz4T/GnF19IrY8d/ykAEh87/lP86cUXcvLcUwGoS9XztdO/xa9f+AdWdB8AQKIuVc/XTv8Wf3rxhUx67UFvAGDSyXNP5U8vvpCT554KwON57UFv4Kfn/JLu+m4AEifPPZU/vfhCfnrOL+mu7wYgUZeq52unf4s/vfhCTp57KgC1VnQfwK9f+Af+9OILmfS1079FXaoegEl1qXq+dvq3+NOLL2TSaw96AwC1uuu7+ek5v+RPL76QSSfPPRWAvXXXd/PTc37Jn158IZNOnnsqALU+dvyn+NOLL+S1B70BgFp1qXq+dvq3+NOLLyTx03N+yfLuA/jpOb/ktQe9AYBJHzv+U/zpxReS+Nrp32Juyzx+es4vOXnuqQDUeu1Bb+BPL76QSV87/VvUpeoBSJw891T+9OILmfTTc35Jd303ALVWdB/Ar1/4B/704gtJ/PqFf2BF9wEATOqu7+an5/ySP734QiadPPdUACZ97PhP8bXTv0Vdqh6AxIruA/j1C//AyXNPBWBSd303Pz3nl7z2oDcAsLfXHvQG/vTiC9mX1x70BgAe2v0A37n9m8xrnc+fXnwhk372/F/Rnu/gR3f9gN3juwFY0X0Av37hH/jTiy8kcfLcU3ntQW/ga6d/i7pUPQAnzz2VP734Qk6eeyoAT+S1B72BP734Qmp97fRvUZeqB2DSiu4D+PUL/8BPz/kl3fXdAOzttQe9gT+9+EImfe30b1GXqgcg0V3fzU/P+SUfO/5TAOzLiu4D+PUL/8DJc0+lLlXP107/Fom6VD0nzz2VP734Qk6eeyoAkz52/Kf404sv5LUHvQGAp2tq4zR+9vxf8acXX0jiY8d/CoBaJ889lT+9+EImvfagN5D46Tm/pLu+G4BJK7oP4Ncv/AM/PeeXdNd3AzBpRfcB/PqFf+DkuacCMKkuVc/XTv8WibpUPSu6D+DXL/wDf3rxhezta6d/i7pUPQArug/g1y/8A3968YVM+trp36IuVQ9Ardce9Ab+9OILqfW1079FXaoegO76bn56zi/52PGfAuDxfOz4T/G1079FXaoegMSK7gP49Qv/wMlzTwUgcfLcU/nTiy9k0msPegOJn57zS7rruwGYVJeq52unf4s/vfhCJr32oDcAMGlF9wH8+oV/4E8vvpBJv37hH1jRfQAAiZPnnsqfXnwhk1570BsA2Ft9uoFvnvk9/vTiC0l87fRvUZeqB2DSyXNP5U8vvpBJrz3oDSR+es4v6a7v5uS5p/LrF/6BFd0HALC3jx3/KX56zi/pru8G4GPHf4o/vfhCEl87/VvMbZnHT8/5JSfPPRWAWifPPZU/vfhCJv30nF/SXd8NQOLkuafypxdfyKSfnvNLuuu7AahVl6rna6d/iz+9+EImfe30b1GXqgcg0V3fzU/P+SV/evGFTDp57qkATHrtQW/gp+f8ku76bgAS3fXd/PScX/Lag94AwKTu+m5+es4vee1BbwBgbyu6D+DXL/wDf3rxhezta6d/i7pUPQ/tfoDv3P5N5rXO508vvpBJP3v+r2jPd/Cju37A7vHdAHTXd/PTc37Jn158IYnXHvQGTp57Kj8955d013cDcPLcU/nTiy/k5LmnAvB4uuu7+ek5v+RPL76QxNdO/xZHzjiKX7/wD5w891QAar32oDfwpxdfyKSvnf4t6lL1ALz2oDfwpxdfyL689qA3AJCoS9XztdO/xZ9efCGTXnvQGwCY9NqD3sBPz/kl3fXdACS667v56Tm/5LUHvQGAWt313cxomkHaT9OebwfgicxpnUt7voO7d9wJgMtc5jKXucwFBsBle+sv9FOJKhw69XAAJtWl6mnKNAHgir6JXqpxhUXti6lL1QMwqbu+BwCXucxl/0v6C/1UogqHTj0cgEl1qXqaMk0AuOzZtHFwA/2FPrrrewBwmctc9r+kv9BPJapw6NTDAZhUl6qnKdMEgMv+lWs3XM2jex7h2JnHs6L7AACeSF2qnlPnns76wXU8tPsBAFzmMpe5zGX/3xkAl+2tPd9O2k9z9447AZh07YareXTPI8xomkF3fTcA/9911HWR8tKs7l/FRHUcgMRDux/g5i030p7vYE7rXABc5jKX/S9oz7eT9tPcveNOACZdu+FqHt3zCDOaZtBd3w2Ay56O8x/5Mw/tfgCAxGVrLyHlpTl9/nMAcJnLXPa/pD3fTtpPc/eOOwGYdO2Gq3l0zyPMaJpBd303AC7b2+7x3bz5H6/nV/f9nNcd9EZee9AbAHgyTp57Kr9+4R9Y0X0AAC5zmctc5rL/7wyAy/a2ovsA3nPk+1k/uI6XnX8uk35138953UFv5GPHfwoAF3TXd/OZk77AaHmUN/39dbzs/HNJfPXmL3HszOP52unfoi5VD4DLXOay/wUrug/gPUe+n/WD63jZ+ecy6Vf3/ZzXHfRGPnb8pwBw2dP1nAXP5Y8P/Z6XnX8uia0jW/nMSV+gu74bAJe5zGX/S1Z0H8B7jnw/6wfX8bLzz2XSr+77Oa876I187PhPAeCyfemu7+an5/ySP734Qk6eeyoALnOZy1zmMpc9EQPgsn1Z0X0Av37hH/jTiy+k1slzTwXg2dZd381Pz/klrz3oDQD8N+mu7+an5/ySP734Qmq99qA3AOAyl7nsf82K7gP49Qv/wJ9efCG1Tp57KgAueybqUvV87fRv8acXX0jip+f8ku76bgBqfez4T/G1079FXaoeAJe54rUHvYGfnvNLuuu7AXDZf7MV3Qfw6xf+gT+9+EJqnTz3VABc5jKXucxlLnPZs8UAuMxlLnOZy1zmMpe5zGUuc5nLXOYyl7nMZf9tDIDLXOYyl7nMZS5zmctc5jKXucxlLnOZy1z238YAuMxlLnOZy1zmMpe5zGUuc5nLXOYyl7nMZf9tDIDLXOYyl7nMZS5zmctc5jKXucxlLnOZy1z238YAuMxlLnOZy1zmMpe5zGUuc5nLXOYyl7nMZf9tDIDLXOYyl7nMZS5zmctc5jKXucxlLnOZy1z238YAuMxlLnOZy1zmMpe5zGUuc5nLXOYyl7nMZf9tDIDLXOYyl7nMZS5zmctc5jKXucxlLnOZy1z238YAuMxlLnOZy1zmMpe5zGUuc5nLXOYyl7nMZf9tDIDLXOYyl7nMZS5zmctc5jKXucxlLnOZy1z238YAuMxlLnOZy1zmMpe5zGUuc5nLXOYyl7nMZf9tDIDLXOYyl7nMZS5zmctc5jKXucxlLnOZy1z238YAuOz/s2s3XM3Lzj+XD135Piaq4wD8J1y74Wpedv65THrzP17P7vHdALhsb7++7xe8+R+vZ/f4bgCeiV/f9wve/I/Xs3t8NwAu+//mSzd+jpedfy6TvnTj5wCY9NDuB3jtX1/Bm//xenaP7wbAZU/k1/f9gjf/4/XsHt8NwP9X1264mpedfy6TvnTj5wD4/2T3+G7e/I/X8+v7fgGAy/5XTFTH+dCV7+Nl55/LpF/f9wsAJj20+wFe+9dX8OZ/vJ7d47sB+P/o2g1X87Lzz+VDV76Pieo4AC5zmctc5jKX/X9kAFzmsn+Hazdcza/u+zmnzD2NP734QhI/PeeXdNd3A+Cy/48e2v0Ar/3rK7h2w9UA/Df50o2f40NXvo+J6jgA/4u+dOPnWD+4jg8f+zH+9OILSXzs+E8B4DKXPRknzz2VP734Qn72/F8xtXEaAM/E7vHdvPkfr+fX9/0CAJftL1+68XN86Mr3MVEdB+B/zUR1nM9d/2lGy6N888zv8acXX0jitQe9AYD/D3aP7+bN/3g9v77vFwC4zGUuc5nLXOaySQbAZf+fnTz3VP704gv52unfoi5VD8C/29077qQ+3cDp858DgMtc5rJny+7x3Wwd2cq81vms6D4AgH1Z0X0Av37hH/jpOb+ku74bAJe57L/ZtRuu5mXnn8u1G64GYG9fuvFzfOjK9zFRHQfg2bB7fDdv/sfrSewe3w1A4qHdD/Dav76CN//j9ewe3w3Av8O1G67mZeefy2v/+goe2v0AAP8Ndo/v5s3/eD0vO/9cJv36vl8A8O+ycXAD/YU+Dp92BN313QDsy4ruA/j1C//AT8/5Jd313QD8f3Ty3FP504sv5Gunf4u6VD0ALnOZy1zmMpf9f2QAXOayf5fGTCP16ToAXOYylz3buut7AHCZy/6/aM+3k/bTADyepkwTdal6AJ5N45UxHtvzCACJ+3fdRyWqAPDvdPeOO5nbMo/2fAf377oPgP3t2g1X8/7L38WMphn86cUXMimXyvPQ7gcA+Hea1jgdAJe5zGUuc5nLXOYSA/D/xa/v+wUvO/9cJn3pxs8BMOnaDVfz2r++god2P8CXbvwcLzv/XBJv/sfr2T2+G4BJ1264mpedfy57e/M/Xs/u8d0APFm7x3fz5n+8npedfy6J1/71FTy0+wEAErvHd/Pmf7yeazdcza/v+wUvO/9cEm/+x+vZPb4bgMTu8d28+R+v59f3/YJrN1zNy84/l0nXbrgagMS1G67mZeefy6Qv3fg5AGrtHt/Nm//xeq7dcDW/vu8XvOz8c0m8+R+vZ/f4bgAmPbT7AV7711fwsvPPpdZr//oKHtr9AABPxu7x3bz5H6/n1/f9gms3XM3Lzj+XSdduuBqASQ/tfoDX/vUVvOz8c0m89q+v4KHdDwCQ+NKNnyPx6/t+wcvOP5cv3fg5Htr9AK/96yt42fnncu2GqwGY9Ov7fsHLzj+XSb++7xcATFTH+dCV7+NLN34OgL09tPsBXvvXV3DthqsBSPz6vl/wsvPPZdKXbvwcAJOu3XA1r/3rK3ho9wN86cbP8bLzzyXx5n+8nt3juwF4PF+68XO87Pxz+dCV72OiOg7AU9E/0cub//F6Xnb+uSR+fd8vAKj16/t+wcvOP5dJX7rxcwDs7Us3fo6XnX8uk3593y8ASHzpxs/xsvPP5as3f4lKVOFX9/2cl51/LpOu3XA1AE/FQ7sf4LV/fQUvO/9cEq/96yt4aPcDAEz60o2f40NXvo+J6jgAiYd2P8Br//oKrt1wNQ/tfoDX/vUVvOz8c3l0zyPsGN3Om/7+Ol52/rkkPnTl+5iojgOQ2D2+mzf/4/W87PxzSbz2r6/god0PAFBrojrOh658Hy87/1wSr/3rK3ho9wMA1PrSjZ/jZeefy6Rf3/cLACZ96cbPkXho9wO89q+v4GXnn0vi2g1XA/BUPLT7AV7711fwsvPPJfGhK9/HRHUcgL1du+FqXnb+ueztzf94PbvHd/PQ7gd47V9fwbUbrgZg0pdu/BwfuvJ9TFTHAbh2w9W89q+v4KHdD/ClGz/Hy84/l8Sb//F6do/vBmDStRuu5mXnn8ukL934OQCerInqOB+68n186cbPAbC3h3Y/wGv/+gqu3XA1AIlf3/cLXnb+uUz69X2/AGBv/RO9vPkfr+dl559L4tf3/QKAp+NLN36Ol51/LpN+fd8vAKi1e3w3b/7H63nZ+eeSePM/Xs/u8d0AJCaq43zoyvfxpRs/x0O7H+C1f30FLzv/XBK/vu8XADy0+wFe+9dX8Ov7fgFArV/f9wte+9dX8NDuBwB4Kn593y942fnnMunX9/0CgMSv7/sFLzv/XN5/+bsYr4xxzYareNn55zLp1/f9AoB/h93ju3nzP17Py84/l8Sb//F6do/vBmBvv77vF7zs/HNJvPkfr2f3+G4A+iZ6AThmxrHcveNOACaq42we2sQxM44FIHHthqt52fnncu2GqwGo9aUbP8eb//F6do/vBiCxe3w3b/7H63nZ+eeSePM/Xs/u8d0ATNo9vputI1s5dtbxLGpfzOr+VUxUxwFI7B7fzZv/8Xp+fd8vAJj06/t+wZv/8Xp2j+/mod0P8Nq/voKXnX8uj+55hB2j23nT31/Hy84/l8SHrnwfE9VxABIP7X6A1/71Fbzs/HNJvPkfr2f3+G4AErvHd3Pho+eztHMZHzv+UwBMevGyl7Ki+wAAErvHd/Pmf7yel51/LonX/vUVPLT7AQAmfenGz5F4aPcDvPavr+Bl559L4toNVwPwVDy0+wFe+9dX8LLzzyXxoSvfx0R1HIC9fenGz/Gy889lb1+68XMAPLT7AV7711dw7YarAZj0pRs/x4eufB8T1XEAfn3fL3jzP17PhqH1fOjK9/Gy888l8aEr38dEdRyASV+68XO87PxzmfSlGz8HQOLX9/2Cl51/Lu+//F2MV8a4ZsNVvOz8c5n06/t+AUDi2g1X87Lzz2XSl278HAD78qUbP8fLzj+XSb++7xcATPr1fb/gQ1e+jw1D63nzP17Py84/l8Sv7/sFAC5zmctc5jKX/TcwAP/rJqrjfOjK93Hn9jv45pnf408vvpBvnvk9to5s5UNXvo+J6jgAiUpU4as3fwmAP734Qn72/F/RmGnk27d9nYnqOADXbriaX933c1530Bv504sv5Jtnfo/6dANTG6fxzTO/Q3d9NwBPxu7x3Xzmuk8wo2kGf3rxhSS+dOrXuWztJUxUxwGY9Kv7fs7q/lX87Pm/ItGYaeTbt32dieo4AJOu2XAVFz56Pt8883v86cUXcsrc0/jjQ7/jod0PAHDy3FP504sv5GfP/xVTG6cB8Hh+dd/P2T2+iz+9+EJ+9vxf0Zhp5Nu3fZ2J6jgAD+1+gO/c/k2OnXk8f3rxhfzs+b9iauM06tMNfOnUr7Oi+wB+fd8veNn555J4dM8j7Bjdzpv+/jpedv65JH593y8AmHTNhqu48NHz+eaZ3+NPL76QU+aexh8f+h0P7X4AgN3ju7ls7SV8/3k/5k8vvpDEvNb5fOf2b/LQ7gcASGwd2cpwaYjXHfRG1g+u41f3/Zw3HvxWpjZO4+4ddwKQ+NKNn+PO7XfwzTO/x59efCEfPvZj3LzlRn593y+oS9XTlGlipDzCRHUcgL2lvDTt+XYmquN86Mr3cef2O/jmmd/jTy++kG+e+T22jmzlQ1e+j4nqOACJSlThqzd/CYA/vfhCfvb8X9GYaeTbt32dieo4AHv70o2f49E9j/C6g97I107/FnWpegCeim/f/k3OXfpi/vTiC3ndQW/kmg1Xce2GqwGYqI7zoSvfx53b7+CbZ36PP734Qr555vfYOrKVD135Piaq4wDsHt/Nm//xekbKI/zs+b/iTy++kA8f+zFu3nIjX7rxcwB87PhP8acXX8iHj/0YaT/N6w56I3968YVMOnnuqQA8WbvHd3PZ2kv4/vN+zJ9efCGJea3z+c7t3+Sh3Q8A8GSs6D6AX7/wD/zpxReytHMZUxun8bPn/4o/vfhCEl87/VvUpeoBuHbD1bz/8ndx+LQj+NOLLyRx7Mzj+erNX+LaDVcDkHho9wO885K3AvCz5/+KP734Qr7/vB9z+9ZbmaiOA7B7fDdv/sfrGSmP8LPn/4o/vfhCPnzsx7h5y4186cbPATDp0T2P8KO7fsCXTv06f3rxhZwy9zT++NDveGj3A0xUx/nQle/jZeefy/svfxfjlTGu2XAVLzv/XBKv/esreGj3AwCs6D6AX7/wD/zpxReytHMZAPty7Yar+dV9P+d1B72RP734Qr555veoTzcwtXEa3zzzO3TXdwPwZFWiCl+9+UsA/OnFF/Kz5/+Kxkwj377t60xUxwH49X2/4I8P/Y4PH/sx/vTiC/nmmd9j68hWvnTj5wB4MupS9TRlmhgpjzBRHQdgbykvTXu+HYAv3fg57tx+B98883v86cUX8uFjP8bNW27k1/f9AoBa3779m5y79MX86cUX8rqD3sg1G67i2g1XA/BUfOnGz7F1ZCvfPPN7/OnFF5IYLg3x0O4HAEg8tPsBPnb1Bzl82hH86cUXkpjRNIPPXPcJdo/vBmDSo3se4Tu3f5P3HPl+/vTiC3ndQW/kmg1Xce2Gq5nTOpf2fAer+1cxUR0HIDFRHWd1/yrmtc5nRfcBADxZX7rxc9y5/Q6+eeb3+NOLL+TDx36Mm7fcyK/v+wUArz3oDfzpxRfyzTO/R326gVPmnsafXnwhk1570BsAeDI66rpIeWm2j24D4Ik8tPsBPnb1Bzl82hH86cUXkpjRNIPPXPcJdo/vBmDSg7vvZ3X/Kn72/F+RaMw08u3bvs5EdRyAxLy2BeyZ6OWh3Q9w57Y7yAQZjpxxNAB9E70s6VxGfbqBu3fcCcCk3eO72TqylcOnHUF3fTcA1264mvdf/i5mNM3gTy++kMRnTvoC/3jsIgAmPbbnEQCWdC7jwJ6DGC2PsnFwAwBP1oruA/j1C//An158IUs7lzG1cRo/e/6v+NOLLyTxtdO/RV2qHoBf3/cLvnrzl3j5ilfxpxdfSGJG0ww+dvUHeWj3AwA8tucRxitjHDr1cAAez7Ubrub9l7+Lw6cdwZ9efCGJY2cez1dv/hLXbrgagEmP7nmEH931A7506tf504sv5JS5p/HHh37HQ7sfYPf4bt78j9fzsvPP5as3f4lKVOFX9/2cl51/Lok3/+P17B7fDcCK7gP49Qv/wJ9efCFLO5cBsC9fuvFzbB3ZyjfP/B5/evGFvO6gNwJwytzT+NjxnwLgqRivjPGpaz7GovbF/OnFF/LNM7/HaHmU793+bQASv77vFxw69XD+9OILSXz42I+xfnAdX7rxcwC89qA38KcXX8g3z/we9ekGTpl7Gn968YVMeu1BbwAgcfLcU/nTiy/kZ8//FVMbpwGwt93ju3nzP17PSHmEnz3/V/zpxRfy4WM/xs1bbuRLN34OgEk7RrfzxRs+y9sOewd/evGFvO6gN3LNhqu4dsPVALjMZS5zmctctr8ZgP91d267g/5CH2877B1013cD0F3fzblLX8yO0e3cue0OACadMvc0Pnb8pwCoS9WzqH0xo+VRxisTANy9406mNk7j8OlHANBd383h046gv9DHxsENADxZfRO9VOMKh049HIBEd303Hzv+U9Sl6gGYNLVxGp868bPUpepJnDr3dPoLfWwc3ADApKmN0/jmmd+hu74bgAN7DgKgv9APwFMxtXEa7zryvQDUpepZ1L6Y0fIo45UJAO7fdR8pL83p858DQF2qnlPnns54ZYzH9jwCwGsPegN/evGFJJZ2LmNq4zR+9vxf8acXX0jitQe9AYBJUxun8c0zv0N3fTcAB/YcBEB/oR+A7vpuPnb8p6hL1QOQeM6C5wFw/677AEhU4wonzTkFgEpUYWX3gSzvXg7ASHmEieo4D+1+gPWD6zh36Yvpru8GYEX3ARw783ju3H4Hu8d3013fA0Bi9/hu3vyP1/Pr+34BQH+hH4COui7u3HYH/YU+3nbYO+iu7wagu76bc5e+mB2j27lz2x0ATDpl7ml87PhPAVCXqmdR+2JGy6OMVyYAqPXr+37Bo3se4XUHvZGT554KwFM1Xhnj5StexclzTwXg8OlHMLVxGldvuJKJ6jh3bruD/kIfbzvsHXTXdwPQXd/NuUtfzI7R7dy57Q4Arlx3GQDvPeqD1KXqAVjRfQDHzjye9YPreGj3AwA8m7rru/nY8Z+iLlUPQOI5C54HwP277gPg2TRRHefqDVeytHMZrz3oDQAkzl32YqY2TuPqDVcyUR0H4LK1l9Ce7+BTJ36WulQ9AHWpet56+DupS9UDcOW6ywB471EfpC5VD8CK7gM4dubxrB9cx0O7HwAgkfbTvO2wd9Bd3w3AgT0HAdBf6KcuVc/XTv8Wf3rxhXzzzO9Rn27glLmn8acXX0ji1y/8Ayu6DwDgybp7x51MbZzG4dOPAKC7vpvDpx1Bf6GPjYMbAHiqTpl7Gh87/lMA1KXqWdS+mNHyKOOVCXaP7+bO7Xdw7MzjWdF9AADd9d2cu/TFrB9cx0O7HwDgyeiu7wEgsXt8N2/+x+v59X2/AKC/0A9AR10XD+1+gPWD6zh36Yvpru8GYEX3ARw783ju3H4Hu8d3A5AYr4zx8hWv4uS5pwJw+PQjmNo4jas3XMlEdRyAJ2OiOs5IeYQZTTPoru8GIPG+oz/Eiu4DAEhctvYS2vMdnLvsxQAkXnvQGwG4ct1lAEyqTzfwpVO/zoruAwBY0rmM+nQD20e3UZeqZ1H7YvoLfWwc3ABAYuPgBvoLfRw69XAAnqyHdj/A+sF1nLv0xXTXdwOwovsAjp15PHduv4Pd47sB+He5dsPVvPkfr2f3+G4mquOMlEforu8B4LK1l9Ce7+DcZS8GIPHag94IwJXrLgNgUtrP8KkTP0tdqp7EqXNPZ8fodu7cdgcAifZ8O511Xdy/6z7u3nEnh049HIBJ3fXdzGiawdaRrewe3w1A4rE9j1CNKxzYcxAAE9Vxrt5wJUs7l/Gx4z8FQKK7vpu3Hv5OACbdveNOZjTNoLu+mzmtc2nMNHL/rvsAeLbtHt/Nndvv4JS5p3Hy3FMBSLz2oDeS8tJctvYSAO7ecSf16QaWdC4DYF8mquNcveFKlnYu47UHvQGAxLnLXszUxmlcveFKJqrjACTSfpq3HfYOuuu7ATiw5yAA+gv9dNd389NzfsmfXnwhHz72Y6T9NK876I386cUXkvjpOb+ku74bgCdj9/huto5s5fBpR9Bd3w3A4dOPYGrjNFb3r2KiOg7AU/W6g97Iaw96AwDd9d3MaJrBSHmEieo4AK896A2cPPdUABIrug9gXut8to5sZff4bgCeTVeuuwyA9x71QepS9QCs6D6AY2cez/rBdTy0+wEAJr18xatY0X0AAEs6l1GfbmD76DYAXOYyl7nMZS7b3wzA/7q7d9xJykvTUdcFwKQlncuoTzewfXQbAJOmNU4HYNJrD3oDPz3nl3TXdzNRHWekPALA3lJemo66LgCerI66LlJeml/d93Ou3XA1AI9nUfti6lL1ACTa8+0A9Bf6AZjUlGmiLlUPQGJF9wH8+oV/4OS5pwLwVCxqX0xdqh6Afdk9vguAvaX9NO35dgCeqqZME3WpegASK7oP4Ncv/AMnzz0VgH3pqOsi5aUBmNSe72BO61wAEtMapwNQ6/5d95Hy0izpXAbApGmN06nGFfomepnWOJ3R8ijjlQn6JnqpxhVW969iojrO9tFtACTu3nEnKS9NR10XAJOWdC6jPt3A9tFtAEya1jgdgEmvPegN/PScX9Jd3w3ApD8/9Huu2XAVrzvojZw891QAno76dANLOpcBkKhL1dOUaWK0PMp4ZYK7d9xJykvTUdcFwKQlncuoTzewfXQbE9VxVvevojHTSH26DoBJB/YcBEB/oR+Af7eOui5SXhqAZ9vGwQ30F/roru8BYFJdqp5F7YsZLY8yXplg9/huto5sZVH7YupS9QDsbaI6zur+VTRmGqlP1wEw6cCegwDoL/QDkGjPdzCndS4A/24T1XFGyiMA7C3lpemo6wLgqZrWOB2ASa896A389Jxf0l3fzWN7HqEaVziw5yAAJrXn2wHoL/QD8GRMa5zOaHmU8coEfRO9VOMKq/tXMVEdZ/voNgAS9++6j5SXZknnMgAmTWucTjWu0DfRC0CiPt3Aks5lACTqUvU0ZZoYLY8yXpkA4MmoS9XTlGni0T2P8KUbPwfA3naP72bryFYWtS+mLlUPQKI+XUdjppHd47sAmNSYaaQ+XQdAoru+m5+e80tee9AbADh9/nNIeWnu33UfAIn7d91HykuzpHMZAE/W/bvuI+WlWdK5DIBJ0xqnU40r9E30AvBsqU/X0ZhpBCBx9447Ga+M8dieRwCYtHt8N1tHtrKofTF1qXoAEvXpOhozjewe3wXApEXti6lL1QOQaM+3k/bTbB/dRn+hH4COui6es+B5PLj7fvZM9LKkcxkAtZ6z4HlU4wqP7XkEgMTdO+6kPd/BnNa5AGwc3EB/oY9Dpx4OwOPZPb6brSNbOXTq4QDUpeppyjSxun8VE9VxAJ5Nj+15hPHKGNMapwMwqbu+mxlNMxgpjzBRHQfgX9k4uIH+Qh/d9T0ATKpL1bOofTGj5VHGKxMAJNrzHcxpnQvAv1vfRC/VuALA3poyTdSl6gF4KtJ+mvZ8OwCTPnb8p/ja6d+iLlUPwL501/cA8GybqI6zun8VjZlG6tN1AEw6sOcgAPoL/QAk6tMNLOlcBoDLXOYyl7nMZf+NDMD/B42ZRurTdQDsbff4LgCejLpUPafOPZ0do9u5c9sdAOwe382d2+9gRtMMuuu7AXiyuuu7+eaZ32Fq4zR+dd/Pedn55/Lav76Ch3Y/AMB/u+cseB7VuMKV6y4DYKI6ztUbrqQ938Gc1rkA/Dv8+r5f8LLzz2XS+y9/F+OVMQCeit3juxivjPH+y9/Fy84/l0m/uu/nACTa8+0A9E30cv+u+1jWuRyA8coEAI2ZRurTdQA0ZhqpT9cBsLfd47sAeCrGK2Pcu/Me0n6a9nw7AM+m7voeACY1ZhqpT9cBsLfd47sASDRlmqhL1QOwt+2j2wB4tv36vl/wsvPPZdL7L38X45UxAP5dpjVOB2Bv1bhC30QviWpcYVrjdACeSFOmibpUPQB72z66DYD/tLpUPafOPZ0do9u5c9sdAOwe382d2+9gRtMMuuu7AXg2bR/dRiWq8NWbv8TLzj+XSV+9+UtUogoAT1Z7vh2Avole7t91H8s6lwMwXpkAoDHTSH26jt3juxivjPH+y9/Fy84/l0m/uu/nAPwr3fU9ADxVHzv+U5wy9zQe3fMILzv/XBK/vu8XACT6JnqpxhWu2XAVLzv/XCa96e+vY8fodgCeiu76bmY0zWB1/yomquMkVvev4vBpR9Bd3w3Ak7V7fBfjlTHef/m7eNn55zLpV/f9HIB/l93ju9g9vpuR8ggHTzmEu3fcCUBiWuN0+iZ6qcYVrtlwFS87/1wmvenvr2PH6HYAnkhHXRcpLw1ArTmtc0n7GVZ2H0h3fTcA1bhCf6EfgDmtc2nPd3D3jjsB2D2+m60jWzl17unUpeoB6C/0A9Cebwfg8Ty25xGqcYX2fDsAiUOnHs6O0e3cue0OAJ5taT9Ne74dgL2NlkcZr0wA8GRNa5wOwN6qcYW+iV4A/tNWdB/AvNb53Ln9DnaP7wbgzm13sGN0O4dOPRyAf4fd47t58z9ez8vOP5dJ12y4CoB/l6ZME3WpegD2tn10GwAuc5nLXOYyl/0vMAD/33XX9wDwZG0f3QbAr+77OS87/1zef/m7mNE0g48d/ykAnqq6VD1fO/1b/OnFF/LhYz8GwHdu/yYP7X4AgP9m/YV+KlGFazZcxcvOP5c3/f11AHzqxM9Sl6oH4Nn26/t+wTUbruJ1B72RP734QhLfPPN71KcbAHgquut7qE838M0zv8efXnwhtX79wj+wovsAAKpxhf5CP8OlIQ6fdhQAj+15hN3ju2jKNFGXqgfgiXTX9wDwVNSnG/jcKV+iPd/Bd27/Jg/tfgCAZ8vu8V00ZhqpT9cB8ES663sA+FemNU4H4Nn06/t+wTUbruJ1B72RP734QhLfPPN71KcbAPhPS3lpOuq6SKS8NNtHtwHwdE1rnA7A/rB9dBsAv7rv57zs/HN5/+XvYkbTDD52/KcAeLZNa5xO2k/z4WM/xp9efCF7O3nuqQA8WdW4Qn+hn+HSEIdPOwqAx/Y8wu7xXTRlmqhL1dNd30N9uoFvnvk9/vTiC6n16xf+gRXdBwDweHaP76Ix00h9ug6Ap+K1B72BP734Qn72/F8xtXEa12y4il/f9wsAOuq6SHlpTpl7Gn968YXs7WPHfwqAp+LQqYfTX+hj4+AGEqPlUQ7sOQiAp6K7vof6dAPfPPN7/OnFF1Lr1y/8Ayu6DwDg2VKXqqcp0wTAY3seoSnTxElzTmHPRC+bBjcwWh4FoKOui5SX5pS5p/GnF1/I3j52/KcAeDx9E71U4wrTGqcDMKkuVc/XTv8Wrz3oDQDsrS5Vz6L2xWwd2cru8d08tucRAJZ0LgMg0Z5vB6C/0A/A47l7x51UogpfvflLvOz8c0n86r6fA3D3jjsB+E9qzDRSn66ju76H8coYj+15BICnI+Wl6ajrAuA/baI6zkh5hPHKGO+//F287Pxz+dV9P+d1B72Rk+eeCsCzbff4bj5z3SdozDTys+f/ij+9+EISp8w9DYD9YVrjdABc5jKXucxlLvtfYAD+1x069XD6C31sHNwAwKTH9jxCNa5wYM9BADwZu8d3c+f2Ozhl7mn86cUXMuljx38KgL1NVMf50JXv42Xnn8u1G64G4Ims6D6A9xz5fgD6C/0APJ77d91HykuzpHMZAP9pE9Vxrt5wJUs7l/GnF1/IpK+d/i3qUvUAPNsmquOs7l/F1MZpHD79CACeiWmN06nGFfomegHYl466LlJemsHSIL0Tvcxqmc2i9sXcveNOALrrewA4dOrh9Bf62Di4AYBJj+15hGpc4cCegwB4qvJBHe896oOkvDQ/uusH7B7fDUCtieo4H7ryfbzs/HO5dsPVAPwru8d3s3VkK02ZJupS9Rw69XD6C31sHNwAwKTH9jxCNa5wYM9B1KXqWdS+mK0jW9k9vhuASffvuo+Ul2ZJ5zIAEh11XaS8NNtHtwHwRL504+d42fnn8uv7fgHApInqOKv7VzG1cRqHTz8CgKfi/l33UYkqANTqru9htDzKeGUCgFpzWufSnu/g7h13AjBpojrO6v5VzGiaQXd9N/XpOhozjazuX8VEdRyAvdWl6lnUvpitI1vZPb4bgEn377qPlJdmSecyAP7Tdo/v5s7td3DK3NP404svZNLHjv8UAE9k9/huto5sBeCpaM+3A9Bf6AfgX3lo9wO89q+v4M3/eD27x3cDMKmjrouUl2awNEjvRC+zWmazqH0xd++4E4Du+h4ApjVOpxpX6JvoBeCp2D2+m60jW2nKNFGXqgdg0pdu/BwvO/9cfn3fLwB4InWpej514meZ2jiN3eO7AKhP19GYaWT3+C4Ang2HTz+C9nwH9++6j0RjppE5rXMBeCqmNU6nGlfom+gF4InUp+tozDSye3wXAE/kSzd+jpedfy6/vu8XAOxtpDzCzZtv5NCphzOndS5pP8PqgTUAJOrTdTRmGtk9vguAp+r+XfcB0J5vZ/voNgCerNPnPweAx/Y8wt077mRG0wy667sBSHTUdZHy0ty9404A9mX3+G62jmzllLmn8acXX0itpZ3L2Dqyld3juwHY20R1nNX9qwDYW3d9D6PlUcYrEwDUWtK5jJSX5v5d9wEwaff4braObGVR+2LqUvUc2HMQaT/N3TvuBGBf5rTOpT3fwd077gRg0kR1nNX9q5jRNIPu+m4A/tPu3HYH/YU+Pnzsx/jTiy9k0slzTwXgiewe383Wka0APBWP7XmE8coYp849nbpUPQCPpz5dR2Omkd3juwB4OupS9SxqX8zWka3sHt8NwKT7d91HykuzpHMZAC5zmctc5jKX/S8wAP/rDp9+BO35Dv740O+ZqI4DsHt8Nxc+ej7zWuezovsAAJ6M+nQdjZlGdo/vAuBf2Ti4gf5CHwB377gTgFrXbriaX9/3CwAm3b/rPgDa8+0A7MtDux/g5i03cvi0I+iu7wbgP60uVU9TpomR8ggT1XEA/t3qUvU0ZZroL/SxcXADAA/tfoCPXf1BxitjADwVh08/gvZ8Bz+66wfsHt8NwN7q03U0Zhr556q/0ZRporu+mwN7DmL94Doe3fMI0xqnA3D49CNoz3fwx4d+z0R1HIDd47u58NHzmdc6nxXdBwDwdHTXd/O2w95BNa7w7du+zkR1HIBJGwc30F/oA+DuHXcC8K/8+r6fA/Dag94IwOHTj6A938EfH/o9E9VxAHaP7+bCR89nXut8VnQfAMDp858DwK/v+zkAiYd2P8DNW27k8GlH0F3fDUCiPl1HY6aRO7ffwe7x3QDsy+7x3Wwd2QrA6v5VTFTHAUjUpeppyjTRX+hj4+AGAB7a/QAfu/qDjFfGAJjUXd9Df6GPjYMbAPj1fb/gmg1XAbC3aY3TGa+MceW6ywCoVZeq59S5p/Ponke4dsPVACQufOR8+gt9PGfB8wCoS9Vz6tzT2TG6ne/d/m0AEhPVcX585/eZqI4DcPr85wDw6/t+DkDiod0PcPOWGzl82hF013cD8J9Wn66jMdPI7vFdADyejrouUl6au3fcCcDu8d185rpPMF4ZA+CpWNF9APNa5/PHh37HQ7sfAOCJ3L/rPipRhfHKGI/teQSASfXpOhozjfxz1d9oyjTRXd/NgT0HsX5wHY/ueYRpjdMBOHz6EbTnO/jRXT9g9/huAJ6sX9/3cwBee9AbAZi0e3w3W0e2ArC6fxUT1XEAJu0e382XbvwcE9VxABIbBzfQX+iju74HgLpUPafOPZ1H9zzCr+/7BQDPVF2qnkXti3lw9/0kTp17OnWpegCeisOnH0F7voMf3fUDdo/vBuDx1KXqaco0sX5wHQ/tfgCAfdk9vputI1sBWN2/ionqOAC1RsujjFZGWNK5jLpUPYvaF3P9xmsBaM+3U5eq59S5p/Ponkf49X2/AODJemj3A9y85UaOnXk8K7oPAODxdNR1kfLSbB/dBkCiu76bGU0zuHrDleyZ6OU5C54HwKTu+m4On3YEj+55hF/f9wsAErvHd/PjO78PwGN7HqEaVziw5yAAah069XDGK2M8tucR6tN1NGYaWd2/ionqOInPXf9pdoxuB2Bv0xqnM14Z48p1lwFQq7u+m8OnHcHNW27kod0PAJD49X0/B+D0+c8BYEX3ARw783ge3fMIX7rxcwBMOv+RP/PQ7geoS9Vz6tzTeXTPI1y74WoAEhc+cj79hT6es+B5AOwP7fl2APoL/QA8no66LlJemrt33AnA7vHdfOa6TzBeGQPgqWjPt5P209y9404AEl+68XNcs+EqAGrVpeppyjSxfnAdD+1+AICn4/T5zwHg1/f9HIDEQ7sf4OYtN3L4tCPoru8GwGUuc5nLXOay/wUG4H9dXaqeT534WQDe9PfX8bLzz+X9l7+Lw6cdwceO/xQAT1Zdqp6Xr3gl6wfX8bLzz6XWa//6Ch7a/QAAk+a0zqU93wHAoVMPB6DWyXNPBeBl55/LpDu338GXTv06K7oPAGDSNRuu4mXnn0viqzd/iZeveBWvPegNADwVX7rxc7zs/HN5099fx47R7Ty65xFedv65JK7dcDUAT9ZrD3ojo+VR3vT31/Gy88+l1rUbrgbg2fauI99Le76Dr978JV52/rn86K4f8N4j3099ugGAp6IuVc/XTv8WM5pm8P7L38XLzj+XSV+68XMA1KXqaco0AXDo1MMBmNM6l/Z8B2k/TXu+HYC6VD2fOvGzALzp76/jZeefy/svfxeHTzuCjx3/KQCeiRXdB/DyFa9ix+h23n/5e9g9vhuAxJzWubTnOwA4dOrhANQ6sOcgqnGF91/+Ll52/rkkRsojfPPM79Bd3w1AXaqeT534WQDe9PfX8bLzz+X9l7+Lw6cdwceO/xQAie76bj5z0hfYOrKVl51/Lomv3vwlXr7iVbz2oDcAMKkuVc97j/ogAO+//F287PxzSVy74WoAJnXXdzOjaQYAi9oXU5eqB2DSu458L+35Dr5685d42fnn8qO7fsB7j3w/9ekGACa99qA3MK91Pl+9+Uu87PxzWd2/is+d8iXq0w0A1Dp57qmcMvc0rtlwFS87/1wSH7ryfUxUxwE4ee6pvO6gN/Kr+37Oy84/l8Sd2+/gS6d+nRXdBwCQOHnuqXz42I+xfnAdLzv/XBLvvOStHDnjaOpS9QB013fzmZO+wNaRrbzs/HNJfPXmL/HyFa/itQe9AYBn26/v+wUvO/9cEo/ueYQdo9t5099fx8vOP5df3/cLAOpS9bx8xStZP7iOl51/LrVe+9dX8NDuBwDoru/mbYe9g/WD63jZ+efy/svfxblLX8wpc08D4Kn62PGf4tiZx/PVm7/Ey84/l0kfuvJ9TFTHAZh0YM9BpP009ekGlnQuA2BSXaqepkwTAIdOPRyAOa1zac93kPbTtOfbAahL1fO107/FjKYZvP/yd/Gy889l0pdu/BwAiQN7DqIaV3j/5e/iZeefS2KkPMI3z/wO3fXdAEzqru9mRtMMABa1L6YuVQ/ApO76bp6z4Hm885K38rLzzyXx1Zu/xMtXvIrXHvQGABInzz2VDx/7MW7eciMvO/9cJr32r6/god0PAPBUHdhzEGOVMcpRhSWdywCo9aUbP8fLzj+XN/39dewY3c6jex7hZeefS+LaDVcDUJeq52unf4sZTTN4/+Xv4mXnn8ukL934OQBqvevI99Ke7+CrN3+Jl51/Lolf3/cLACZ113czo2kGAIvaF1OXqgdgUnd9D+OVMdJ+hvp0HQAH9hxENa6QAEicPPdUPnzsx7h5y4287PxzmfTav76Ch3Y/AEB3fTczmmZwzYareNn555L46s1f4uUrXsVrD3oDAE/HoVMPZ8fodtJ+hjmtcwGo9dqD3sDrDnoj12y4ipedfy6Jz1z3Cc5Z8iIA7t5xJ+35Dua0zgWg1pLOZdSnG7h7x53Upep571EfZLQ8ypv+/joSi9oX87qD3gjA3k6eeyqnzD2NazZcxcvOP5fEh658HxPVcQBee9AbOHbm8Xz15i/xsvPPJTFSHuGbZ36H7vpuABKvPegNfPjYj7F+cB0vO/9cJhWrBVZ0HwDAyXNP5XUHvZFf3fdzXnb+uSTu3H4HXzr166zoPgCAZ9uv7/sFLzv/XBKP7nmEHaPbedPfX8fLzj+XX9/3CwBWdB/AsTOP51f3/ZyXnX8utT505fuYqI4D0F3fzdsOewfrB9fxsvPP5f2Xv4tzl76YU+aeBsBTsaL7AF6+4lU8uucRXnb+uSS663s4Ze5pAOztXUe+l/Z8B1+9+Uu87PxzSfz6vl8AkPjSjZ/jZeefy5v+/jp2jG7n0T2P8LLzzyVx7YarAeiu7+YzJ32BrSNbedn555L46s1f4uUrXsVrD3oDAC5zmctc5jKX/a8wAP8f1KXq+drp3+JPL76QSa896A0ATDp57qn86cUXcvLcUwHYl4d2P8B3bv8m81rn86cXX8iknz3/V7TnO/jRXT9g9/huABJ1qXq+dvq3+NOLL+TkuacCsLfXHvQG/vTiC5n003N+SXd9NwC1Tpl7Gn968YVMOnnuqQBM6q7v5qfn/JKPHf8pAB7Px47/FH968YXsy8lzTwWgu76bn57zS1570BsAmPTag97AT8/5Jd313ewe381nrvsEjZlGfvb8X/GnF1/IpKWdy/jjQ7/jod0PADDpY8d/iq+d/i3qUvUA1Oqu7+an5/ySjx3/KQAeT12qnq+d/i3+9OILSfz0nF+yvPsAfnrOL3ntQW8A4GPHf4qvnf4t6lL1nDz3VP704gs5ee6p1KXq+drp3yJRl6oHIPGx4z/Fn158IbU+dvynAEh87PhP8acXX8jJc08FoC5Vz9dO/xa/fuEfWNF9AACJulQ9Xzv9W/zpxRcy6bUHvQGASSfPPZU/vfhCTp57KgCP57UHvYGfnvNLuuu7AUicPPdU/vTiC/npOb+ku74bgERdqp6vnf4t/vTiCzl57qkA1FrRfQC/fuEf+NOLL2TS107/FnWpegAm1aXq+drp3+JPL76QSa896A0A1Oqu7+an5/ySP734QiadPPdUAPbWXd/NT8/5JX968YVMOnnuqQDU+tjxn+JPL76Q1x70BgBq1aXq+drp3+JPL76QxE/P+SXLuw/gp+f8ktce9AYAJn3s+E/xpxdfSOJrp3+LuS3z+Ok5v+TkuacCUOu1B72BP734QiZ97fRvUZeqByBx8txT+dOLL2TST8/5Jd313QDUWtF9AL9+4R/404svJPHrF/6BFd0HADCpu76bn57zS/704guZdPLcUwGY9LHjP8XXTv8Wdal6ABIrug/g1y/8AyfPPRWASd313fz0nF/y2oPeAMDeXnvQG/jTiy9kX1570BsAeGj3A3zn9m8yr3U+f3rxhUz62fN/RXu+gx/d9QN2j+8GYEX3Afz6hX/gTy++kMTJc0/ltQe9ga+d/i3qUvUAnDz3VP704gs5ee6pADyR1x70Bv704gup9bXTv0Vdqh6ASSu6D+DXL/wDPz3nl3TXdwNQ62PHf4o/vfhCTp57KgB1qXq+dvq3+PUL/8CK7gMAmPSx4z/Fn158IbU+dvynAEis6D6AX7/wD/zpxRcy6Wunf4u6VD0Ae/vY8Z/iTy++kNce9AYA9rai+wB+/cI/8KcXX8ikk+eeCkCtFd0H8OsX/oE/vfhCJv36hX9gRfcBANSl6vna6d8iUZeqB+CJrOg+gF+/8A/89Jxf0l3fDUCtjx3/Kf704gvZl5PnngrApI8d/yn+9OILqfWx4z8FQK26VD1fO/1b/OnFFzLptQe9AYBaHzv+U/zpxRfy2oPeAECt1x70Bv704gv52unfoi5VD8CK7gP49Qv/QGJF9wEAJFZ0H8CvX/gH/vTiC5n06xf+gRXdBwCQ+Njxn+JPL76QWifPPRWAxGsPegM/PeeXdNd3A1Cru76bn57zS1570BsAmHTy3FP504sv5Gunf4u6VD0Aezt57qn86cUXMumn5/yS7vpuAD52/Kf42unfoi5VD0Ct7vpufnrOL/nY8Z8CoLu+m5+e80v+9OILSbz2oDdw8txT+ek5v6S7vhuAWq896A386cUXMulrp3+LulQ9AInXHvQG/vTiC5n0tdO/RV2qHoBaK7oP4Ncv/AN/evGFTHrtQW8AYNLJc0/lTy++kEk/PeeXdNd3AzDpY8d/iq+d/i3qUvUAJFZ0H8CvX/gHTp57KgCTVnQfwK9f+AdOnnsqAHt77UFv4E8vvpB9ee1BbwDg1/f9gms2XMXrDnojf3rxhUz68LEfo7/Qx/du/zYAiRXdB/DrF/6BP734QhInzz2V1x70Br52+reoS9UD8NqD3sCvX/gHVnQfAMDjOXnuqfzpxRcy6bUHvYHET8/5Jd313QBMqkvV87XTv8WfXnwhk1570BsASHzs+E/xpxdfyL6cPPdUABLd9d389Jxf8qcXX8ikk+eeCsCk1x70Bn56zi/pru8GINFd381Pz/klrz3oDQC4zGUuc5nLXLa/GQCX7a2/0E8lqnDo1MMBmFSXqqcp0wSAK/omeqnGFRa1L6YuVQ/ApO76HgBc5jKX/S/pL/RTiSocOvVwACbVpeppyjQB4DKXucxl/8t2j++iPt3Aks5lAEzqqOsi5aUBcJnLXOYyl7nMZf+NDIDL9taebyftp7l7x50ATLp2w9U8uucRZjTNoLu+G4D/7zrqukh5aVb3r2KiOg5A4qHdD3Dzlhtpz3cwp3UuAC5zmcv+F7Tn20n7ae7ecScAk67dcDWP7nmEGU0z6K7vBsBlLnOZy/4Xddf3MF4Z47E9jwAw6df3/ZzxyhiHTj0cAJe5zGUuc5nLXPbfxgC4bG8rug/gPUe+n/WD63jZ+ecy6Vf3/ZzXHfRGPnb8pwBwQXd9N5856QuMlkd5099fx8vOP5fEV2/+EsfOPJ6vnf4t6lL1ALjMZS77X7Ci+wDec+T7WT+4jpedfy6TfnXfz3ndQW/kY8d/CgCXucxlLvtf9dqD3sApc0/jV/f9nJedfy6Tto5s5Ztnfo+T554KgMtc5jKXucxlLvtvYwBcti8rug/g1y/8A3968YXUOnnuqQA827rru/npOb/ktQe9AYD/Jt313fz0nF/ypxdfSK3XHvQGAFzmMpf9r1nRfQC/fuEf+NOLL6TWyXNPBcBlLnOZy/7XvfagN/CnF19IrZ+e80u667sBcJnLXOYyl7nMZf+NDIDLXOYyl7nMZS5zmctc5jKXucxlLnOZy1z238YAuMxlLnOZy1zmMpe5zGUuc5nLXOYyl7nMZf9tDIDLXOYyl7nMZS5zmctc5jKXucxlLnOZy1z238YAuMxlLnOZy1zmMpe5zGUuc5nLXOYyl7nMZf9tDIDLXOYyl7nMZS5zmctc5jKXucxlLnOZy1z238YAuMxlLnOZy1zmMpe5zGUuc5nLXOYyl7nMZf9tDIDLXOYyl7nMZS5zmctc5jKXucxlLnOZy1z238YAuMxlLnOZy1zmMpe5zGUuc5nLXOYyl7nMZf9tDIDLXOYyl7nMZS5zmctc5jKXucxlLnOZy1z238YAuMxlLnOZy1zmMpe5zGUuc5nLXOYyl7nMZf9tDIDLXOYyl7nMZS5zmctc5jKXucxlLnOZy1z238YAuMxlLnOZy1zmMpe5zGUuc5nLXOYyl7nMZf9tDIDLXOYyl7nMZS5zmctc5jKXucxlLnOZy1z238YAuMxlLnOZy1zmMpe5zGUuc5nLXOYyl7nMZf9tDIDLXOYyl7nMZS5zmctc5jKXucxlLnOZy1z238YAuMxlLnOZy1zmMpe5zGUuc5nLXOYyl7nMZf9tDIDLXOYyl7nMZS5zmctc5jKXucxlLnOZy1z238YAuMxlLnOZy1zmMpe5zGUuc5nLXOYyl7nMZf9tDIDLXOYyl7nMZS5zmctc5jKXucxlLnOZy1z238YAuMxlLnOZy1zmMpe5zGUuc5nLXOYyl7nMZf9tDIDLXOYyl7nMZS5zmctc5jKXucxlLnOZy1z238YAuMxlLnOZy1zmMpe5zGUuc5nLXOYyl7nMZf9tDIDLXOYyl7nMZS5zmctc5jKXucxlLnOZy1z238YAuMxlLnOZy1zmMpe5zGUuc5nLXOYyl7nMZf9tDIDLXOYyl7nMZS5zmctc5jKXucxlLnOZy1z238YAuMxlLnOZy1zmMpe5zGUuc5nLXOYyl7nMZf9tDIDLXOYyl7nMZS5zmctc5jKXucxlLnOZy1z238YAuMxlLnOZy1zmMpe5zGUuc5nLXOYyl7nMZf9tDIDLXOYyl7nMZS5zmctc5jKXucxlLnOZy1z238YAuMxlLnOZy1zmMpe5zGUuc5nLXOYyl7nMZf9tDIDLXOYyl7nMZS5zmctc5jKXucxlLnOZy1z238YAuMxlLnOZy1zmMpe5zGUuc5nLXOYyl7nMZf9tDIDLXOYyl7nMZS5zmctc5jKXucxlLnOZy1z238YAuMxlLnOZy1zmMpe5zGUuc5nLXOYyl7nMZf9tDIDLXOYyl7nMZS5zmctc5jKXucxlLnOZy1z238YAPFkCALjMZS5zmctc5jKXucxlLnOZy1zmMpe5zGX/igAAT5cBeLLECAAuc5nLXOYyl7nMZS5zmctc5jKXucxlLnPZvyJGAHi6DMCT5RsDgMtc5jKXucxlLnOZy1zmMpe5zGUuc5nLXPav+MYA8HQZgCfL8wzGCAAuc5nLXOYyl7nMZS5zmctc5jKXucxlLnPZ4zFG8DwDwNNlAJ6KlO8hAIDLXOYyl7nMZS5zmctc5jKXucxlLnOZy1y2NwFSvgfAM2EAngoRIZ3yMUYAcJnLXOYyl7nMZS5zmctc5jKXucxlLnOZyyYZI6RTPiICwDNhAJ4qESEd+KR8D2MEAQBc5jKXucxlLnOZy1zmMpe5zGUuc5nLXOYSAYwRUr5HOvAREQCeKQPwdHmeIR34ZNIB2XSAy1zmMpe5zGUuc5nLXOYyl7nMZS5zmctckkkHpAMfzzMAPFsMgMtc5jKXucxlLnOZy1zmMpe5zGUuc5nLXPbfxgC4zGUuc5nLXOYyl7nMZS5zmctc5jKXucxl/20MgMtc5jKXucxlLnOZy1zmMpe5zGUuc5nLXPbfxgC4zGUuc5nLXOYyl7nMZS5zmctc5jKXucxl/20MgMtc5jKXucxlLnOZy1zmMpe5zGUuc5nLXPbfxgC4zGUuc5nLXOYyl7nMZS5zmctc5jKXucxl/20MgMtc5jKXucxlLnOZy1zmMpe5zGUuc5nLXPbfxgC4zGUuc5nLXOYyl7nMZS5zmctc5jKXucxl/20MgMtc5jKXucxlLnOZy1zmMpe5zGUuc5nLXPbfxgC4zGUuc5nLXOYyl7nMZS5zmctc5jKXucxl/23+D367j1z5b+jkAAAAAElFTkSuQmCC;" vertex="1" parent="1">
          <mxGeometry x="20" y="180.00000000000003" width="871" height="297.52" as="geometry" />
        </mxCell>
      </root>
    </mxGraphModel>
  </diagram>
</mxfile>
